<?xml version="1.0" encoding="utf-8"?>
<!-- Generator: Adobe Illustrator 25.0.1, SVG Export Plug-In . SVG Version: 6.00 Build 0)  -->
<svg version="1.1" xmlns="http://www.w3.org/2000/svg" xmlns:xlink="http://www.w3.org/1999/xlink" x="0px" y="0px"
	 viewBox="0 0 633 107" style="enable-background:new 0 0 633 107;" xml:space="preserve">
<style type="text/css">
	.st0{display:none;}
	.st1{display:inline;fill:#003366;}
	.st2{display:inline;fill:#FF3A30;}
	.st3{fill:#003366;}
	.st4{fill:#FF3A30;}
</style>
<g id="layer" class="st0">
	<path class="st1" d="M271.9,80.8h-12.5V51.1c0.1-2.8-0.4-5.1-1.3-7c-0.9-1.8-2.9-2.8-6-2.9c-2.3,0-4.4,0.6-6.5,1.5
		c-2,1-3.9,2.1-5.5,3.5c0.1,0.5,0.1,1.1,0.1,1.8v32.8h-12.6V51.3c0.1-2.8-0.3-5.2-1.3-7.1c-0.9-1.9-2.9-2.9-5.9-3
		c-2.3,0-4.4,0.6-6.5,1.5c-2,1-3.9,2.1-5.5,3.5v34.5h-12.7V31.8h10.6l1.3,5.4c5.5-4.2,11.2-6.4,17-6.5c3.1,0,5.8,0.7,8,2
		s3.9,3.1,5.1,5.4c2.9-2.4,5.9-4.3,9-5.5c3.1-1.2,6-1.9,8.8-1.9c2.9,0,5.6,0.5,8.1,1.5s4.5,2.8,6,5.3s2.3,5.8,2.4,10.1L271.9,80.8
		 M323.8,50.8c-0.1-2.7-0.9-5.2-2.5-7.4c-1.6-2.1-3.9-3.3-7.1-3.4c-3.1,0.1-5.5,1.2-7.2,3.4c-1.7,2.1-2.6,4.6-2.6,7.4H323.8z
		 M336.9,59.6h-32.1c0.2,3.7,1.6,6.6,4.2,8.9c2.6,2.2,5.9,3.4,9.8,3.4c2.4,0,4.6-0.3,6.6-0.9c2.1-0.6,4.2-1.4,6.3-2.6l3.1,8
		c-2.8,1.9-5.8,3.3-8.9,4.1c-3.1,0.9-6.2,1.3-9.2,1.2c-5.8-0.1-10.5-1.3-14.2-3.7c-3.6-2.4-6.3-5.5-8.1-9.4c-1.7-3.9-2.6-8-2.6-12.5
		c0-4.7,0.9-9,2.7-12.8s4.4-6.9,7.7-9.2c3.4-2.3,7.4-3.5,12.2-3.5c6.8,0.1,12.2,2.4,16.2,6.9s6,10.6,6.1,18.3L336.9,59.6z
		 M175.8,57.1c0,3.7-0.6,7.2-1.8,10.4c-1.2,3.2-2.9,5.9-5.3,8.2c-4.5,4.6-10.5,6.9-18,7c-7-0.1-12.8-2.1-17.2-6.1
		c-2.5-2.3-4.4-5.1-5.7-8.3c-1.3-3.3-2-6.9-2-10.8c0-3.8,0.6-7.4,1.9-10.6c1.3-3.2,3-6,5.4-8.3c4.5-4.5,10.4-6.8,17.7-6.9
		c7.7,0.1,13.9,2.5,18.3,7C173.5,43.4,175.7,49.5,175.8,57.1z M162.8,57.2c0-4.8-1.1-8.6-3.2-11.4c-2.1-2.8-5.1-4.3-9-4.3
		c-4,0.1-7,1.6-9,4.4c-2,2.9-3,6.6-3,11.3c0,4.8,1.1,8.7,3.2,11.5c2.1,2.9,5.1,4.3,9,4.4c4-0.1,6.9-1.6,8.9-4.5
		C161.8,65.7,162.8,61.9,162.8,57.2z M402,80.8h-12.6V52c0.1-2.7-0.3-5.1-1.3-7.2c-0.9-2.2-3-3.3-6.1-3.4c-2.2,0-4.4,0.5-6.5,1.5
		c-2.1,1-4.2,2.2-6.1,3.7v34.2h-12.6V31.9h10.8l1.4,5.3c2.7-2,5.4-3.5,8.2-4.7c2.8-1.1,5.9-1.7,9.3-1.7c2.6,0,5.1,0.5,7.4,1.6
		c2.4,1.1,4.3,3,5.9,5.5c1.5,2.6,2.3,6,2.4,10.4v32.5 M454.5,76.6c-2.6,1.8-5.5,3.1-8.5,4s-5.8,1.3-8.3,1.3
		c-4.4-0.1-7.5-1.1-9.5-3.2c-1.9-2.1-2.9-4.9-2.8-8.2V20.8l12.7-3.7v15h15.5l-3.7,9.3H438V66c-0.1,3.8,1.5,5.6,4.7,5.6
		c1.6,0,3.2-0.3,4.6-0.9c1.5-0.6,2.7-1.2,3.7-1.8L454.5,76.6 M516.7,80.8h-10.4L504,76c-1.7,1.6-3.9,3-6.5,4.1s-5.5,1.7-8.8,1.8
		c-2.3,0.1-4.7-0.4-7.3-1.4c-2.6-1-4.8-2.9-6.7-5.7c-1.9-2.8-2.8-6.7-2.9-11.9V32h12.6v30.2c0,3.1,0.7,5.5,2.2,7.2
		c1.5,1.8,3.7,2.7,6.8,2.7c2.1,0,3.9-0.5,5.5-1.3s3-1.7,4-2.7V32h12.6v35.4c0,3.7,0,6.6,0.2,8.7C516,78,516.3,79.7,516.7,80.8
		 M614.9,80.8h-12.5V51.1c0.1-2.8-0.4-5.1-1.3-7c-1-1.8-2.9-2.8-6-2.9c-2.3,0-4.4,0.6-6.5,1.5c-2,1-3.9,2.1-5.5,3.5
		c0.1,0.5,0.1,1.1,0.1,1.8v32.8h-12.6V51.3c0.1-2.8-0.3-5.2-1.3-7.1c-0.9-1.9-2.9-2.9-5.9-3c-2.3,0-4.4,0.6-6.5,1.5
		c-2,1-3.9,2.1-5.5,3.5v34.5h-12.6V31.8h10.7l1.3,5.4c5.5-4.2,11.2-6.4,17-6.5c3.1,0,5.8,0.7,8,2c2.2,1.3,3.9,3.1,5.1,5.4
		c2.9-2.4,5.9-4.3,9-5.5s6-1.9,8.8-1.9c2.9,0,5.6,0.5,8.1,1.5s4.5,2.8,6,5.3s2.3,5.8,2.4,10.1L614.9,80.8"/>
	<path id="app-bar-logo__path" class="st2" d="M106.1,37.8c-1.5-2.5-3.5-4.2-5.9-5.3c-2.4-1-5.1-1.6-7.9-1.6
		c-2.7,0.1-5.6,0.7-8.6,1.9c-3,1.2-5.8,2.9-8.7,5c-1.5-2.5-3.4-4.2-5.9-5.3c-2.5-1-5.1-1.6-8-1.6c-2.7,0.1-5.6,0.7-8.6,1.9
		c-2.9,1.2-5.7,2.9-8.7,5c-1.5-2.5-3.4-4.2-5.9-5.3c-2.4-1-5.1-1.6-7.9-1.6c-2.7,0.1-5.6,0.7-8.6,1.9c-2.2,0.9-4.3,2.1-6.4,3.4v10.2
		c1.6-1.3,3.4-2.4,5.4-3.4s4.1-1.5,6.4-1.5c3,0.1,4.9,1,5.9,2.9s1.4,4.2,1.3,7v29.8h12.3V47.9c0-0.5,0-1,0-1.4
		c1.6-1.3,3.4-2.4,5.4-3.4s4.1-1.5,6.3-1.5c3,0.1,5,1,5.9,2.9s1.4,4.2,1.3,7v29.8h12.3V48c0-0.5-0.1-1-0.1-1.4
		c1.6-1.3,3.4-2.4,5.4-3.4s4.1-1.5,6.4-1.5c3,0.1,4.9,1,5.9,2.9c0.9,1.9,1.4,4.2,1.2,7v29.8h12.3V48.1
		C108.4,43.6,107.6,40.2,106.1,37.8"/>
</g>
<g id="Layer_2">
	<path class="st3" d="M271.9,80.8h-12.5V51.1c0.1-2.8-0.4-5.1-1.3-7c-0.9-1.8-2.9-2.8-6-2.9c-2.3,0-4.4,0.6-6.5,1.5
		c-2,1-3.9,2.1-5.5,3.5c0.1,0.5,0.1,1.1,0.1,1.8v32.8h-12.6V51.3c0.1-2.8-0.3-5.2-1.3-7.1c-0.9-1.9-2.9-2.9-5.9-3
		c-2.3,0-4.4,0.6-6.5,1.5c-2,1-3.9,2.1-5.5,3.5v34.5h-12.7V31.8h10.6l1.3,5.4c5.5-4.2,11.2-6.4,17-6.5c3.1,0,5.8,0.7,8,2
		s3.9,3.1,5.1,5.4c2.9-2.4,5.9-4.3,9-5.5c3.1-1.2,6-1.9,8.8-1.9c2.9,0,5.6,0.5,8.1,1.5s4.5,2.8,6,5.3s2.3,5.8,2.4,10.1L271.9,80.8
		 M323.8,50.8c-0.1-2.7-0.9-5.2-2.5-7.4c-1.6-2.1-3.9-3.3-7.1-3.4c-3.1,0.1-5.5,1.2-7.2,3.4c-1.7,2.1-2.6,4.6-2.6,7.4H323.8z
		 M336.9,59.6h-32.1c0.2,3.7,1.6,6.6,4.2,8.9c2.6,2.2,5.9,3.4,9.8,3.4c2.4,0,4.6-0.3,6.6-0.9c2.1-0.6,4.2-1.4,6.3-2.6l3.1,8
		c-2.8,1.9-5.8,3.3-8.9,4.1c-3.1,0.9-6.2,1.3-9.2,1.2c-5.8-0.1-10.5-1.3-14.2-3.7c-3.6-2.4-6.3-5.5-8.1-9.4c-1.7-3.9-2.6-8-2.6-12.5
		c0-4.7,0.9-9,2.7-12.8s4.4-6.9,7.7-9.2c3.4-2.3,7.4-3.5,12.2-3.5c6.8,0.1,12.2,2.4,16.2,6.9s6,10.6,6.1,18.3L336.9,59.6z
		 M175.8,57.1c0,3.7-0.6,7.2-1.8,10.4c-1.2,3.2-2.9,5.9-5.3,8.2c-4.5,4.6-10.5,6.9-18,7c-7-0.1-12.8-2.1-17.2-6.1
		c-2.5-2.3-4.4-5.1-5.7-8.3c-1.3-3.3-2-6.9-2-10.8c0-3.8,0.6-7.4,1.9-10.6c1.3-3.2,3-6,5.4-8.3c4.5-4.5,10.4-6.8,17.7-6.9
		c7.7,0.1,13.9,2.5,18.3,7C173.5,43.4,175.7,49.5,175.8,57.1z M162.8,57.2c0-4.8-1.1-8.6-3.2-11.4c-2.1-2.8-5.1-4.3-9-4.3
		c-4,0.1-7,1.6-9,4.4c-2,2.9-3,6.6-3,11.3c0,4.8,1.1,8.7,3.2,11.5c2.1,2.9,5.1,4.3,9,4.4c4-0.1,6.9-1.6,8.9-4.5
		C161.8,65.7,162.8,61.9,162.8,57.2z M402,80.8h-12.6V52c0.1-2.7-0.3-5.1-1.3-7.2c-0.9-2.2-3-3.3-6.1-3.4c-2.2,0-4.4,0.5-6.5,1.5
		c-2.1,1-4.2,2.2-6.1,3.7v34.2h-12.6V31.9h10.8l1.4,5.3c2.7-2,5.4-3.5,8.2-4.7c2.8-1.1,5.9-1.7,9.3-1.7c2.6,0,5.1,0.5,7.4,1.6
		c2.4,1.1,4.3,3,5.9,5.5c1.5,2.6,2.3,6,2.4,10.4v32.5 M454.5,76.6c-2.6,1.8-5.5,3.1-8.5,4s-5.8,1.3-8.3,1.3
		c-4.4-0.1-7.5-1.1-9.5-3.2c-1.9-2.1-2.9-4.9-2.8-8.2V20.8l12.7-3.7v15h15.5l-3.7,9.3H438V66c-0.1,3.8,1.5,5.6,4.7,5.6
		c1.6,0,3.2-0.3,4.6-0.9c1.5-0.6,2.7-1.2,3.7-1.8L454.5,76.6 M516.7,80.8h-10.4L504,76c-1.7,1.6-3.9,3-6.5,4.1s-5.5,1.7-8.8,1.8
		c-2.3,0.1-4.7-0.4-7.3-1.4c-2.6-1-4.8-2.9-6.7-5.7c-1.9-2.8-2.8-6.7-2.9-11.9V32h12.6v30.2c0,3.1,0.7,5.5,2.2,7.2
		c1.5,1.8,3.7,2.7,6.8,2.7c2.1,0,3.9-0.5,5.5-1.3s3-1.7,4-2.7V32h12.6v35.4c0,3.7,0,6.6,0.2,8.7C516,78,516.3,79.7,516.7,80.8
		 M614.9,80.8h-12.5V51.1c0.1-2.8-0.4-5.1-1.3-7c-1-1.8-2.9-2.8-6-2.9c-2.3,0-4.4,0.6-6.5,1.5c-2,1-3.9,2.1-5.5,3.5
		c0.1,0.5,0.1,1.1,0.1,1.8v32.8h-12.6V51.3c0.1-2.8-0.3-5.2-1.3-7.1c-0.9-1.9-2.9-2.9-5.9-3c-2.3,0-4.4,0.6-6.5,1.5
		c-2,1-3.9,2.1-5.5,3.5v34.5h-12.6V31.8h10.7l1.3,5.4c5.5-4.2,11.2-6.4,17-6.5c3.1,0,5.8,0.7,8,2c2.2,1.3,3.9,3.1,5.1,5.4
		c2.9-2.4,5.9-4.3,9-5.5s6-1.9,8.8-1.9c2.9,0,5.6,0.5,8.1,1.5s4.5,2.8,6,5.3s2.3,5.8,2.4,10.1L614.9,80.8"/>
	<path id="app-bar-logo__path_1_" class="st4" d="M106.1,37.8c-1.5-2.5-3.5-4.2-5.9-5.3c-2.4-1-5.1-1.6-7.9-1.6
		c-2.7,0.1-5.6,0.7-8.6,1.9c-3,1.2-5.8,2.9-8.7,5c-1.5-2.5-3.4-4.2-5.9-5.3c-2.5-1-5.1-1.6-8-1.6c-2.7,0.1-5.6,0.7-8.6,1.9
		c-2.9,1.2-5.7,2.9-8.7,5c-1.5-2.5-3.4-4.2-5.9-5.3c-2.4-1-5.1-1.6-7.9-1.6c-2.7,0.1-5.6,0.7-8.6,1.9c-2.2,0.9-4.3,2.1-6.4,3.4v10.2
		c1.6-1.3,3.4-2.4,5.4-3.4s4.1-1.5,6.4-1.5c3,0.1,4.9,1,5.9,2.9s1.4,4.2,1.3,7v29.8h12.3V47.9c0-0.5,0-1,0-1.4
		c1.6-1.3,3.4-2.4,5.4-3.4s4.1-1.5,6.3-1.5c3,0.1,5,1,5.9,2.9s1.4,4.2,1.3,7v29.8h12.3V48c0-0.5-0.1-1-0.1-1.4
		c1.6-1.3,3.4-2.4,5.4-3.4s4.1-1.5,6.4-1.5c3,0.1,4.9,1,5.9,2.9c0.9,1.9,1.4,4.2,1.2,7v29.8h12.3V48.1
		C108.4,43.6,107.6,40.2,106.1,37.8"/>
</g>
</svg>
