<?xml version="1.0" encoding="utf-8"?>
<!-- Generator: Adobe Illustrator 15.0.0, SVG Export Plug-In . SVG Version: 6.00 Build 0)  -->
<!DOCTYPE svg PUBLIC "-//W3C//DTD SVG 1.1//EN" "http://www.w3.org/Graphics/SVG/1.1/DTD/svg11.dtd">
<svg version="1.1" id="Layer_1" xmlns="http://www.w3.org/2000/svg" xmlns:xlink="http://www.w3.org/1999/xlink" x="0px" y="0px"
	 width="1400px" height="503.572px" viewBox="0 0 1400 503.572" enable-background="new 0 0 1400 503.572" xml:space="preserve">
<path fill="#F7D096" stroke="#CC2F3F" d="M90.097,42.062c-8.317,4.695-14.691,11.742-18.995,20.269
	c-10.091,19.99-8.805,48.147,5.439,73.418c20.323,36.056,59.358,52.563,87.177,36.879c27.815-15.694,33.89-57.629,13.559-93.681
	C156.947,42.89,117.925,26.38,90.097,42.062C81.779,46.757,117.925,26.38,90.097,42.062z"/>
<path fill="#F7D096" stroke="#CC2F3F" d="M86.858,80.22c-7.293,4.219-9.79,13.547-5.575,20.846
	c4.216,7.289,13.55,9.785,20.841,5.572c7.294-4.22,9.791-13.547,5.573-20.845C103.483,78.502,94.156,76.009,86.858,80.22
	C79.565,84.438,94.156,76.009,86.858,80.22z"/>
<path fill="#F7D096" stroke="#CC2F3F" d="M141.653,50.99c-4.273,2.468-4.32,10.387-0.112,17.681
	c4.214,7.297,11.102,11.201,15.376,8.73c4.275-2.471,4.324-10.385,0.108-17.678C152.811,52.429,145.93,48.517,141.653,50.99
	C137.38,53.458,145.93,48.517,141.653,50.99z"/>
<path fill="#F7D096" stroke="#CC2F3F" d="M168.945,121.929L133.98,141.32l7.658,13.798l34.963-19.392L168.945,121.929z"/>
<path fill="#F7D096" stroke="#CC2F3F" d="M112.029,36.517l-23.152,6.711c7.253,9.285,14.462,18.612,21.481,28.075
	c8.104,10.926,15.008,22.624,21.971,34.297c2.422,4.062,4.835,8.129,7.229,12.208l16.783-10.908
	c-5.12-10.771-10.3-21.557-16.053-32.007c-2.946-5.353-6.493-10.262-10.153-15.146c-4.479-5.979-9.081-11.867-13.718-17.724
	c-1.045-1.321-2.094-2.639-3.146-3.956C113.128,37.889,112.273,36.517,112.029,36.517C112.029,36.517,112.028,36.517,112.029,36.517
	z"/>
<path fill="#F7D096" stroke="#CC2F3F" d="M117.718,107.345l-36.435,21.051l7.894,13.667l36.441-21.058L117.718,107.345z"/>
<path fill="#F7D096" stroke="#CC2F3F" d="M177.229,81.563l-22.76,8.25l5.38,14.834l22.759-8.248L177.229,81.563z"/>
<path fill="#F7D096" stroke="#CC2F3F" d="M977.886,40.013c-27.453-0.246-49.959,28.162-50.271,63.449
	c-0.313,35.288,21.605,73.393,49.061,73.635c27.455,0.238,50.041-37.463,50.354-72.748
	C1027.341,69.062,1005.341,40.259,977.886,40.013C950.433,39.767,1005.341,40.259,977.886,40.013z"/>
<path fill="#F7D096" stroke="#CC2F3F" d="M988.728,130.003l-23.268-0.212l0.781-88.104c3.742-1.121,7.639-1.711,11.645-1.674
	c4.016,0.033,7.896,0.694,11.619,1.879L988.728,130.003L988.728,130.003z"/>
<path fill="#F7D096" stroke="#CC2F3F" d="M927.616,104.604l26.777,0.236l-0.197,22.664l-24.07-0.214
	C928.522,119.374,927.646,111.627,927.616,104.604C927.616,104.604,927.646,111.627,927.616,104.604z"/>
<path fill="#F7D096" stroke="#CC2F3F" d="M1024.099,128.124l-27.064-0.238l0.201-22.664l29.773,0.266
	C1026.854,112.511,1025.839,120.241,1024.099,128.124C1024.099,128.124,1025.839,120.241,1024.099,128.124z"/>
<path fill="#F7D096" stroke="#CC2F3F" d="M945.237,75.748c-4.938,0.229-8.74,4.407-8.516,9.335c0.227,4.924,4.398,8.736,9.326,8.508
	c4.936-0.226,8.742-4.4,8.52-9.33C954.337,79.334,950.161,75.522,945.237,75.748C940.302,75.978,950.161,75.522,945.237,75.748z"/>
<path fill="#F7D096" stroke="#CC2F3F" d="M996.411,85.201c0-4.549,3.566-8.476,8.102-8.893c4.536-0.417,8.78,2.772,9.61,7.258
	c0.83,4.485-1.97,9.002-6.365,10.234c-4.396,1.233-9.146-1.161-10.768-5.429C996.606,87.361,996.411,86.282,996.411,85.201
	C996.411,80.269,996.411,90.134,996.411,85.201z"/>
<path fill="#F7D096" stroke="#CC2F3F" d="M968.856,337.05c-31.213,1.365-55.096,34.994-53.332,75.117
	c1.758,40.116,28.953,82.103,60.168,80.737c31.207-1.372,54.623-45.568,52.857-85.687
	C1026.794,367.1,1000.065,335.684,968.856,337.05C937.644,338.415,1000.065,335.684,968.856,337.05z"/>
<path fill="#F7D096" stroke="#CC2F3F" d="M986.558,438.662l-26.445,1.158l-4.396-100.171c4.193-1.496,8.582-2.398,13.141-2.603
	c4.561-0.195,9.02,0.318,13.316,1.441L986.558,438.662L986.558,438.662z"/>
<path fill="#F7D096" stroke="#CC2F3F" d="M915.593,413.461l30.449-1.335l1.133,25.765l-27.367,1.203
	C917.515,430.188,916.05,421.441,915.593,413.461C915.593,413.461,916.05,421.441,915.593,413.461z"/>
<path fill="#F7D096" stroke="#CC2F3F" d="M1026.646,434.415l-30.771,1.346l-1.135-25.766l33.859-1.479
	C1028.845,416.504,1028.153,425.354,1026.646,434.415C1026.646,434.415,1028.153,425.354,1026.646,434.415z"/>
<path fill="#F7D096" stroke="#CC2F3F" d="M933.894,379.615c-5.59,0.554-9.672,5.532-9.115,11.117
	c0.549,5.586,5.521,9.666,11.109,9.11c5.586-0.552,9.664-5.531,9.115-11.111C944.446,383.146,939.476,379.064,933.894,379.615
	C928.304,380.169,939.476,379.064,933.894,379.615z"/>
<path fill="#F7D096" stroke="#CC2F3F" d="M1001.757,376.645c-5.582,0.556-9.652,5.523-9.109,11.117
	c0.551,5.582,5.527,9.663,11.107,9.111c5.586-0.554,9.672-5.528,9.121-11.11C1012.323,380.178,1007.349,376.093,1001.757,376.645
	C996.175,377.198,1007.349,376.093,1001.757,376.645z"/>
<path fill="#F7D096" stroke="#CC2F3F" d="M999.476,449.145l-51.102,2.24l0.904,20.842l51.104-2.237L999.476,449.145z"/>
<path fill="#F7D096" stroke="#CC2F3F" d="M1135.208,373.904c-23.232,12.995-28.516,47.746-11.805,77.602
	c16.711,29.854,53.494,51.391,76.723,38.391c23.229-13.002,24.109-55.609,7.4-85.463
	C1190.813,374.571,1158.435,360.907,1135.208,373.904C1111.976,386.899,1158.435,360.907,1135.208,373.904z"/>
<path fill="#F7D096" stroke="#CC2F3F" d="M1187.618,444.452l-19.688,11.015l-41.727-74.551c2.613-2.742,5.61-5.11,9.004-7.012
	c3.391-1.896,6.982-3.212,10.684-4.005L1187.618,444.452L1187.618,444.452z"/>
<path fill="#F7D096" stroke="#CC2F3F" d="M1123.958,452.467l22.658-12.682l10.73,19.171l-20.363,11.4
	C1131.823,464.461,1127.358,458.363,1123.958,452.467C1123.958,452.467,1127.358,458.363,1123.958,452.467z"/>
<path fill="#F7D096" stroke="#CC2F3F" d="M1216.493,425.857l-22.902,12.816l-10.729-19.175l25.195-14.108
	C1211.304,411.384,1214.167,418.385,1216.493,425.857C1216.493,425.857,1214.167,418.385,1216.493,425.857z"/>
<path fill="#F7D096" stroke="#CC2F3F" d="M1124.907,419.697c-4.041,2.564-5.238,7.913-2.674,11.951
	c2.557,4.035,7.904,5.235,11.939,2.677c4.043-2.563,5.24-7.909,2.688-11.948C1134.296,418.341,1128.948,417.139,1124.907,419.697
	C1120.866,422.264,1128.948,417.139,1124.907,419.697z"/>
<path fill="#F7D096" stroke="#CC2F3F" d="M1175.419,391.426c-4.037,2.566-5.236,7.914-2.678,11.955
	c2.559,4.037,7.912,5.239,11.951,2.68c4.035-2.562,5.234-7.911,2.682-11.949C1184.81,390.069,1179.464,388.869,1175.419,391.426
	C1171.382,393.992,1179.464,388.869,1175.419,391.426z"/>
<path fill="#F7D096" stroke="#CC2F3F" d="M1163.396,468.727l38.031-21.285l8.681,15.51l-38.029,21.285L1163.396,468.727z"/>
<path fill="#F7D096" stroke="#CC2F3F" d="M1010.894,274.769c2.537,26.495,32.211,45.34,66.268,42.078
	c34.061-3.265,68.588-28.252,66.051-54.75c-2.537-26.498-41.17-44.476-75.229-41.215
	C1033.921,224.142,1008.364,248.27,1010.894,274.769C1013.431,301.264,1008.364,248.27,1010.894,274.769z"/>
<path fill="#F7D096" stroke="#CC2F3F" d="M1096.583,255.231l2.148,22.455l-85.041,8.146c-1.457-3.497-2.416-7.194-2.795-11.063
	c-0.367-3.869-0.119-7.688,0.646-11.394L1096.583,255.231L1096.583,255.231z"/>
<path fill="#F7D096" stroke="#CC2F3F" d="M1078.261,316.724l-2.469-25.847l21.873-2.096l2.217,23.229
	C1092.409,314.359,1085.032,315.987,1078.261,316.724C1078.261,316.724,1085.032,315.987,1078.261,316.724z"/>
<path fill="#F7D096" stroke="#CC2F3F" d="M1091.208,221.31l2.496,26.127l-21.871,2.096l-2.756-28.747
	C1075.866,220.224,1083.429,220.423,1091.208,221.31C1091.208,221.31,1083.429,220.423,1091.208,221.31z"/>
<path fill="#F7D096" stroke="#CC2F3F" d="M1048.657,302.648c0.719,4.734,5.133,7.981,9.859,7.263
	c4.727-0.711,7.977-5.124,7.262-9.854c-0.713-4.729-5.127-7.979-9.854-7.271C1051.196,293.507,1047.944,297.915,1048.657,302.648
	C1049.376,307.385,1047.944,297.915,1048.657,302.648z"/>
<path fill="#F7D096" stroke="#CC2F3F" d="M1043.144,245.025c0.723,4.729,5.127,7.984,9.855,7.269c4.73-0.717,7.986-5.128,7.27-9.857
	c-0.717-4.728-5.125-7.981-9.854-7.27C1045.681,235.884,1042.433,240.294,1043.144,245.025
	C1043.864,249.754,1042.433,240.294,1043.144,245.025z"/>
<path fill="#F7D096" stroke="#CC2F3F" d="M1109.079,287.217l-4.154-43.384l17.695-1.694l4.151,43.383L1109.079,287.217z"/>
<path fill="#F7D096" stroke="#CC2F3F" d="M717.196,42.57c-30.547-1.029-56.391,29.971-57.711,69.237
	c-1.32,39.263,22.021,82.277,52.574,83.304c30.545,1.024,56.73-40.319,58.055-79.582C771.438,76.267,747.743,43.599,717.196,42.57
	C686.649,41.541,747.743,43.599,717.196,42.57z"/>
<path fill="#F7D096" stroke="#CC2F3F" d="M726.771,143.026l-25.891-0.873l3.305-98.045c4.199-1.141,8.553-1.686,13.014-1.541
	c4.461,0.15,8.771,0.994,12.879,2.416L726.771,143.026L726.771,143.026z"/>
<path fill="#F7D096" stroke="#CC2F3F" d="M659.46,113.077l29.801,1.003l-0.846,25.218l-26.787-0.9
	C660.058,129.539,659.296,120.896,659.46,113.077C659.46,113.077,659.296,120.896,659.46,113.077z"/>
<path fill="#F7D096" stroke="#CC2F3F" d="M766.19,141.916l-30.117-1.017l0.848-25.217l33.141,1.113
	C769.696,124.604,768.351,133.185,766.19,141.916C766.19,141.916,768.351,133.185,766.19,141.916z"/>
<path fill="#F7D096" stroke="#CC2F3F" d="M679.864,81.448c-5.49,0.119-9.852,4.66-9.73,10.152c0.117,5.486,4.66,9.844,10.148,9.728
	c5.49-0.117,9.848-4.659,9.736-10.151C689.897,85.687,685.358,81.33,679.864,81.448C674.374,81.567,685.358,81.33,679.864,81.448z"
	/>
<path fill="#F7D096" stroke="#CC2F3F" d="M746.298,83.681c-5.496,0.121-9.846,4.66-9.734,10.148
	c0.115,5.492,4.656,9.848,10.146,9.736c5.494-0.12,9.85-4.662,9.734-10.151C756.333,87.923,751.79,83.567,746.298,83.681
	C740.802,83.802,751.79,83.567,746.298,83.681z"/>
<path fill="#F7D096" stroke="#CC2F3F" d="M688.534,152.546l50.018,1.687l-0.688,20.399l-50.019-1.687L688.534,152.546z"/>
<path fill="#F7D096" stroke="#CC2F3F" d="M665.907,185.587c-26.426-2.224-50.167,23.514-53.027,57.48
	c-2.854,33.965,15.5,72.258,41.932,74.481c26.424,2.221,50.916-32.463,53.771-66.43
	C711.444,217.152,692.335,187.808,665.907,185.587C639.481,183.363,692.335,187.808,665.907,185.587z"/>
<path fill="#F7D096" stroke="#CC2F3F" d="M669.823,273.056l-22.396-1.883l7.139-84.818c3.688-0.809,7.484-1.09,11.344-0.768
	c3.859,0.326,7.559,1.241,11.059,2.654L669.823,273.056L669.823,273.056z"/>
<path fill="#F7D096" stroke="#CC2F3F" d="M612.801,244.168l25.782,2.17l-1.834,21.815l-23.172-1.948
	C612.604,258.456,612.32,250.932,612.801,244.168C612.801,244.168,612.32,250.932,612.801,244.168z"/>
<path fill="#F7D096" stroke="#CC2F3F" d="M704.034,273.81l-26.059-2.191l1.84-21.812l28.67,2.407
	C707.821,258.966,706.29,266.341,704.034,273.81C704.034,273.81,706.29,266.341,704.034,273.81z"/>
<path fill="#F7D096" stroke="#CC2F3F" d="M631.863,217.646c-4.769-0.139-8.737,3.611-8.874,8.375
	c-0.143,4.76,3.606,8.735,8.364,8.873c4.771,0.137,8.737-3.608,8.882-8.371C640.374,221.759,636.629,217.783,631.863,217.646
	C627.097,217.507,636.629,217.783,631.863,217.646z"/>
<path fill="#F7D096" stroke="#CC2F3F" d="M689.333,222.478c-4.764-0.135-8.736,3.611-8.879,8.372
	c-0.137,4.765,3.609,8.74,8.369,8.879c4.764,0.137,8.736-3.608,8.879-8.371C697.841,226.593,694.097,222.621,689.333,222.478
	C684.569,222.343,694.097,222.621,689.333,222.478z"/>
<path fill="#F7D096" stroke="#CC2F3F" d="M1104.132,72.345c-17.902,19.192-12.41,53.404,12.266,76.405
	c24.674,23.003,65.688,32.151,83.584,12.954c17.895-19.191,5.9-59.46-18.77-82.459C1156.54,56.241,1122.028,53.153,1104.132,72.345
	C1086.229,91.537,1122.028,53.153,1104.132,72.345z"/>
<path fill="#F7D096" stroke="#CC2F3F" d="M1174.56,122.81l-15.168,16.263L1097.79,81.64c1.627-3.365,3.729-6.487,6.342-9.295
	c2.611-2.802,5.588-5.117,8.826-6.976L1174.56,122.81L1174.56,122.81z"/>
<path fill="#F7D096" stroke="#CC2F3F" d="M1117.204,149.487l17.459-18.725l15.846,14.771l-15.693,16.828
	C1128.198,158.382,1122.175,154.001,1117.204,149.487C1117.204,149.487,1122.175,154.001,1117.204,149.487z"/>
<path fill="#F7D096" stroke="#CC2F3F" d="M1196.077,96.661l-17.646,18.924l-15.848-14.773L1182,79.993
	C1186.851,84.638,1191.649,90.347,1196.077,96.661C1196.077,96.661,1191.649,90.347,1196.077,96.661z"/>
<path fill="#F7D096" stroke="#CC2F3F" d="M1106.257,123.908c0-4.545,3.716-8.387,8.261-8.532c4.542-0.145,8.505,3.441,8.794,7.981
	c0.288,4.535-3.165,8.614-7.693,9.047c-4.524,0.432-8.714-2.891-9.29-7.406C1106.279,124.638,1106.257,124.273,1106.257,123.908
	C1106.257,119.194,1106.257,128.622,1106.257,123.908z"/>
<path fill="#F7D096" stroke="#CC2F3F" d="M1147.157,76.698c-3.021,3.623-2.533,8.998,1.084,12.023
	c3.617,3.025,9.002,2.537,12.02-1.08c3.021-3.619,2.539-9.004-1.078-12.026C1155.563,72.599,1150.181,73.079,1147.157,76.698
	C1144.138,80.321,1150.181,73.079,1147.157,76.698z"/>
<path fill="#F7D096" stroke="#CC2F3F" d="M513.251,92.171c-31.108-12.861-86.96,50.84-124.765,142.28
	c-37.795,91.435-43.217,175.981-12.109,188.845c31.106,12.855,86.964-50.843,124.76-142.281
	C538.935,189.575,544.359,105.026,513.251,92.171C482.143,79.31,544.359,105.026,513.251,92.171z"/>
<path fill="#F7D096" stroke="#CC2F3F" d="M420.82,237.086c-11.472,2.508-21.494,1.223-22.387-2.865
	c-0.893-4.085,7.683-9.431,19.149-11.935c11.475-2.504,21.5-1.221,22.386,2.863C440.863,229.235,432.291,234.582,420.82,237.086
	C409.349,239.594,432.291,234.582,420.82,237.086z"/>
<path fill="#F7D096" stroke="#CC2F3F" d="M475.187,259.56c6.352,9.869,14.354,16.039,17.87,13.778
	c3.52-2.263,1.219-12.104-5.133-21.977c-6.354-9.872-14.357-16.038-17.875-13.777C466.531,239.849,468.827,249.687,475.187,259.56
	C481.536,269.429,468.827,249.687,475.187,259.56z"/>
<path fill="#F7D096" stroke="#CC2F3F" d="M380.055,254.888l41.174,17.021l-4.455,10.773l-41.175-17.02L380.055,254.888z"/>
<path fill="#F7D096" stroke="#CC2F3F" d="M451.501,284.421l41.174,17.021l-4.451,10.769l-41.175-17.021L451.501,284.421z"/>
<path fill="#F7D096" stroke="#CC2F3F" d="M410.455,339.763c-5.256-2.174-11.276,0.326-13.448,5.579
	c-2.171,5.253,0.328,11.272,5.583,13.444c5.252,2.171,11.269-0.326,13.441-5.583C418.205,347.953,415.708,341.933,410.455,339.763
	C405.199,337.589,415.708,341.933,410.455,339.763z"/>
<path fill="#F7D096" stroke="#CC2F3F" d="M521.083,97.669L427.773,323.4l-12.039,4.673l-7.107-12.585l92.914-224.774
	c4.188-0.482,8.116-0.029,11.708,1.455C516.186,93.382,518.793,95.233,521.083,97.669C521.083,97.669,518.793,95.233,521.083,97.669
	z"/>
<path fill="#F7D096" stroke="#CC2F3F" d="M134.937,125.076c-26.869,11.326-21.657,84.538,11.639,163.522
	c33.301,78.983,82.075,133.828,108.947,122.497c26.869-11.324,21.659-84.539-11.639-163.521
	C210.585,168.593,161.808,113.746,134.937,125.076C108.067,136.402,161.808,113.746,134.937,125.076z"/>
<path fill="#F7D096" stroke="#CC2F3F" d="M167.892,270.296c-5.44,8.59-12.336,13.982-15.396,12.039
	c-3.063-1.936-1.131-10.477,4.313-19.066c5.444-8.594,12.343-13.98,15.403-12.042C175.271,253.164,173.339,261.701,167.892,270.296
	C162.451,278.886,173.339,261.701,167.892,270.296z"/>
<path fill="#F7D096" stroke="#CC2F3F" d="M214.854,250.495c9.953,2.102,18.628,0.929,19.375-2.617
	c0.749-3.546-6.715-8.125-16.664-10.224c-9.956-2.1-18.628-0.926-19.377,2.617C197.441,243.817,204.901,248.393,214.854,250.495
	C224.808,252.597,204.901,248.393,214.854,250.495z"/>
<path fill="#F7D096" stroke="#CC2F3F" d="M154.026,306.264l35.567-14.995l3.922,9.304l-35.567,14.995L154.026,306.264z"/>
<path fill="#F7D096" stroke="#CC2F3F" d="M251.326,265.241l-35.566,14.992l3.923,9.305l35.57-14.996L251.326,265.241z"/>
<path fill="#F7D096" stroke="#CC2F3F" d="M219.371,347.44c0-4.543,3.563-8.466,8.091-8.882c4.529-0.417,8.768,2.771,9.596,7.247
	c0.828,4.479-1.967,8.989-6.356,10.223c-4.39,1.229-9.134-1.16-10.752-5.422C219.566,349.598,219.371,348.52,219.371,347.44
	C219.371,342.516,219.371,352.365,219.371,347.44z"/>
<path fill="#F7D096" stroke="#CC2F3F" d="M143.094,123.603l82.204,194.983l-4.451,10.265l-12.085-3.291l-81.854-194.158
	c2.257-2.872,4.925-5.016,8.028-6.325C137.474,124.007,140.205,123.528,143.094,123.603
	C143.094,123.603,140.205,123.528,143.094,123.603z"/>
<path fill="#F7D096" stroke="#CC2F3F" d="M977.317,87.132l0.391-10.469l-39.459,42.41l7.111,14.191
	c2.769-3.626,5.537-7.252,8.306-10.878c1.935-2.533,3.536-5.403,5.277-8.069c5.597-8.564,11.191-17.129,16.79-25.694
	c0.012-0.018,0.021-0.036,0.033-0.053L977.317,87.132L977.317,87.132z"/>
<path fill="#F7D096" stroke="#CC2F3F" d="M979.851,58.024l-14.828-20.117L981.44,1.421c0,0,13.148,35.988,11.816,39.531
	c-1.322,3.544-5.313,14.18-5.313,14.18L979.851,58.024L979.851,58.024z"/>
<path fill="#F7D096" stroke="#CC2F3F" d="M979.851,58.024l-14.828-20.117L981.44,1.421l2.912,53.578L979.851,58.024z"/>
<path fill="#F7D096" stroke="#CC2F3F" d="M987.267,463.108l-10.42,1.261l0.121-390.843l11.246-2.028L987.267,463.108z"/>
<path fill="#F7D096" stroke="#CC2F3F" d="M982.962,181.705l-6.047,1.103l1.625-108.361l6.34-1.262L982.962,181.705z"/>
<path fill="#F7D096" stroke="#CC2F3F" d="M986.565,51.983c0,0,3.133,0.269,4.691,2.574c1.566,2.301-1.547,6.631-1.547,6.631
	l-2.855,1.889l-13.592,0.292c0,0-3.129-1.713-1.715-7.649c1.42-5.938,14.121-3.867,14.121-3.867L986.565,51.983L986.565,51.983z"/>
<path fill="#F7D096" stroke="#CC2F3F" d="M983.493,53.97l-1.076,8.791l-9.152,0.608c0,0-4.045-2.006-1.715-7.649
	c1.865-4.521,11.711-3.558,11.711-3.558L983.493,53.97L983.493,53.97z"/>
<path fill="#F7D096" stroke="#CC2F3F" d="M976.327,73.617c0,0-2.703,0.194-4.309-0.909c-1.604-1.107-0.654-6.611,0-8.086
	c0.652-1.473,16.357-1.035,16.943-0.718c0.588,0.319,2.186,1.728,2.119,3.522c-0.064,1.789-1.334,3.846-1.334,3.846L976.327,73.617
	L976.327,73.617z"/>
<path fill="#F7D096" stroke="#CC2F3F" d="M982.745,71.509c0,0-8.365,0.74-9.973-0.367c-1.605-1.107-1.408-5.045-0.756-6.52
	c0.654-1.471,9.99-0.227,10.576,0.096C983.187,65.036,982.745,71.509,982.745,71.509L982.745,71.509z"/>
<path fill="#F7D096" stroke="#CC2F3F" d="M969.724,80.321l8.014-0.516c0,0-33.48,50.357-34.91,49.369
	c-1.426-0.988-6.16-13.615-6.16-13.615c8.028-8.664,16.049-17.382,24.482-25.656c2.158-2.12,4.429-4.127,6.574-6.261
	c0.222-0.218,1.107-0.948,1.07-1.21L969.724,80.321L969.724,80.321z"/>
<path fill="#F7D096" stroke="#CC2F3F" d="M970.278,71.146l7.59,1.328c0,0,1.361,3.643,0.264,4.955
	c-1.802,2.137-3.874,4.081-5.811,6.094c-3.946,4.104-7.865,8.233-11.729,12.415c-6.313,6.83-12.186,14.108-18.755,20.696
	c-0.208,0.209-3.437,3.377-3.588,2.439c-0.415-2.582-0.646-5.416-1.736-7.822c-0.262-0.578-0.682-1.017-0.906-1.618
	c-0.324-0.871-0.55-1.783-0.768-2.686c-0.838-3.476-1.462-7.011-2.037-10.539c9.644-6.589,19.253-13.39,29.332-19.298
	c2.1-1.229,4.241-2.397,6.278-3.729c0.179-0.117,0.581-0.357,0.604-0.487L970.278,71.146L970.278,71.146z"/>
<path fill="#F7D096" stroke="#CC2F3F" d="M970.278,71.146l7.59,1.328c0,0-40.693,39.224-41.844,37.979
	c-1.15-1.234-3.225-14.043-3.225-14.043c9.644-6.589,19.253-13.39,29.332-19.298c2.1-1.229,4.241-2.397,6.278-3.729
	c0.179-0.117,0.581-0.357,0.604-0.487L970.278,71.146L970.278,71.146z"/>
<path fill="#F7D096" stroke="#CC2F3F" d="M927.571,252.226c0-23.448,1.686-46.961,5.658-70.082
	c3.139-18.263,7.591-36.616,15.142-53.601c2.815-6.336,6.104-12.533,10.268-18.095c3.188-4.257,6.971-8.262,11.608-10.944
	c3.81-2.203,8.182-3.339,12.581-2.785c4.602,0.579,8.774,2.887,12.284,5.837c4.516,3.796,8.106,8.624,11.165,13.635
	c3.93,6.442,7.042,13.37,9.7,20.421c6.922,18.351,10.963,37.777,13.638,57.164c3.282,23.799,4.364,47.912,3.665,71.918
	c-0.662,22.709-2.933,45.456-7.568,67.712c-3.555,17.06-8.38,34.298-16.556,49.774c-2.957,5.598-6.414,11.034-10.79,15.639
	c-3.342,3.515-7.339,6.618-12.006,8.122c-9.516,3.064-18.359-2.173-24.592-9.11c-4.332-4.823-7.752-10.432-10.68-16.194
	c-3.683-7.252-6.604-14.88-9.09-22.617c-6.288-19.59-9.881-40.035-12.045-60.466C928.327,283.171,927.571,267.694,927.571,252.226
	C927.571,166.263,927.571,338.19,927.571,252.226z"/>
<path fill="#F7D096" stroke="#CC2F3F" d="M935.442,227.647c2.07-2.986,10.545-0.688,18.924,5.13
	c8.377,5.818,13.488,12.956,11.416,15.94c-1.505,2.168-5.317,1.244-7.362,0.663c-4.381-1.246-8.477-3.581-12.161-6.216
	c-3.398-2.432-6.676-5.283-9.103-8.714C935.972,232.776,934.008,229.711,935.442,227.647
	C937.515,224.661,933.368,230.632,935.442,227.647z"/>
<path fill="#F7D096" stroke="#CC2F3F" d="M1005.517,232.806c8.379-5.821,16.85-8.12,18.926-5.133
	c2.072,2.987-3.037,10.125-11.416,15.941c-8.383,5.821-16.854,8.115-18.926,5.131C992.024,245.758,997.136,238.624,1005.517,232.806
	C1013.896,226.985,997.136,238.624,1005.517,232.806z"/>
<path fill="#F7D096" stroke="#CC2F3F" d="M927.571,271.451h38.711v10.124h-38.711V271.451z"/>
<path fill="#F7D096" stroke="#CC2F3F" d="M994.769,271.451h38.709v10.124h-38.709V271.451z"/>
<path fill="#F7D096" stroke="#CC2F3F" d="M980.165,329.494c-4.559,0-8.492,3.57-8.909,8.113c-0.418,4.544,2.777,8.795,7.271,9.626
	c4.491,0.831,9.011-1.978,10.245-6.376c1.231-4.401-1.16-9.159-5.436-10.783C982.327,329.689,981.247,329.494,980.165,329.494
	C975.22,329.494,985.101,329.494,980.165,329.494z"/>
<path fill="#F7D096" stroke="#CC2F3F" d="M962.224,398.324c-15.225-16.486-27.158-52.95-32.135-98.572l15.23,12.486l-8.789,10.688
	l12.838,10.529l-8.027,9.755l12.586,10.321l-6.158,7.491l14.318,11.743l-7.297,8.882l12.627,10.354L962.224,398.324
	C946.999,381.838,962.224,398.324,962.224,398.324z"/>
<path fill="#F7D096" stroke="#CC2F3F" d="M1031.231,297.168c-4.955,48.385-17.703,86.837-33.959,102.76l-6.514-7.923l12.627-10.354
	l-7.299-8.882l14.32-11.743l-6.16-7.491l12.586-10.321l-8.029-9.755l12.844-10.529l-8.791-10.688L1031.231,297.168
	C1026.276,345.553,1031.231,297.168,1031.231,297.168z"/>
<path fill="#F7D096" stroke="#CC2F3F" d="M1003.204,203.325h-46.088l23.049,23.045L1003.204,203.325z"/>
<path fill="#F7D096" stroke="#CC2F3F" d="M988.638,225.89v89.121l-8.11,3.352l-9.884-3.352v-89.088l8.98,8.982L988.638,225.89z"/>
<path fill="#F7D096" stroke="#CC2F3F" d="M1144.521,107.912c0.077-16.758-9.077-31.798-21.938-42.016
	c-15.029-11.939-34.43-17.679-53.466-17.945c-19.896-0.279-40.21,5.063-57.392,15.099c-14.257,8.327-28.267,21.289-31.113,38.322
	c-0.318,1.909-0.486,3.844-0.495,5.779c-0.152,32.925,45.186,59.824,87.502,60.02
	C1109.937,167.368,1144.374,140.836,1144.521,107.912C1144.673,74.987,1144.374,140.836,1144.521,107.912z"/>
<path fill="#F7D096" stroke="#CC2F3F" d="M1103.13,121.364l-0.227-27.903l-89.504,0.386c-1.883,4.481-2.893,9.15-2.85,13.959
	c0.039,4.808,1.121,9.474,3.08,13.946L1103.13,121.364L1103.13,121.364z"/>
<path fill="#F7D096" stroke="#CC2F3F" d="M1095.837,76.054c-0.25-4.979-4.488-8.813-9.465-8.561
	c-4.979,0.248-8.813,4.488-8.563,9.467c0.252,4.98,4.486,8.809,9.469,8.561C1092.251,85.269,1096.089,81.032,1095.837,76.054
	C1095.587,71.074,1096.089,81.032,1095.837,76.054z"/>
<path fill="#F7D096" stroke="#CC2F3F" d="M1095.562,136.386c-0.25-4.978-4.49-8.811-9.469-8.561
	c-4.977,0.252-8.811,4.488-8.563,9.471c0.252,4.977,4.49,8.809,9.469,8.561C1091.976,145.603,1095.81,141.367,1095.562,136.386
	C1095.312,131.408,1095.81,141.367,1095.562,136.386z"/>
<path fill="#F7D096" stroke="#CC2F3F" d="M1103.13,70.462h3.455v70.617h-3.455V70.462z"/>
<path fill="#F7D096" stroke="#CC2F3F" d="M1109.679,70.462h3.453v70.617h-3.453V70.462z"/>
<path fill="#F7D096" stroke="#CC2F3F" d="M1115.991,70.462h3.455v70.617h-3.455V70.462z"/>
<path fill="#F7D096" stroke="#CC2F3F" d="M1057.948,80.029l-2.865-0.015V48.653c0.963-0.104,1.916-0.192,2.865-0.271V80.029
	L1057.948,80.029z"/>
<path fill="#F7D096" stroke="#CC2F3F" d="M1061.397,48.138c1.834-0.103,3.643-0.172,5.404-0.186l-0.146,32.115l-5.258-0.021V48.138
	C1063.231,48.035,1061.397,48.138,1061.397,48.138z"/>
<path fill="#F7D096" stroke="#CC2F3F" d="M1045.083,50.048V79.97l-5.609-0.027l0.141-28.865c1.834-0.378,3.654-0.717,5.473-1.029
	L1045.083,50.048L1045.083,50.048z"/>
<path fill="#F7D096" stroke="#CC2F3F" d="M1048.536,49.49c1.037-0.156,2.072-0.304,3.096-0.438v30.944l-3.096-0.012V49.49
	C1049.573,49.334,1048.536,49.49,1048.536,49.49z"/>
<path fill="#F7D096" stroke="#CC2F3F" d="M1057.948,166.69c-0.949-0.086-1.902-0.18-2.865-0.286V131.39l2.865,0.013V166.69
	C1056.999,166.604,1057.948,166.69,1057.948,166.69z"/>
<path fill="#F7D096" stroke="#CC2F3F" d="M1061.397,131.415l5.02,0.023l-0.168,35.713c-1.584-0.027-3.209-0.104-4.852-0.203V131.415
	L1061.397,131.415z"/>
<path fill="#F7D096" stroke="#CC2F3F" d="M1048.536,131.358l3.096,0.013v34.608c-1.025-0.137-2.059-0.285-3.096-0.448V131.358
	L1048.536,131.358z"/>
<path fill="#F7D096" stroke="#CC2F3F" d="M1045.085,131.341v33.611c-1.986-0.355-3.982-0.743-5.998-1.18l0.152-32.457
	C1041.188,131.324,1043.137,131.333,1045.085,131.341L1045.085,131.341z"/>
<path fill="#F7D096" stroke="#CC2F3F" d="M998.315,123.074c1.809,0,3.273-1.464,3.271-3.274V91.741c0-1.811-1.465-3.273-3.271-3.273
	l0,0c-1.805,0-3.273,1.463-3.273,3.273V119.8C995.042,121.61,996.511,123.074,998.315,123.074L998.315,123.074
	C1000.124,123.074,998.315,123.074,998.315,123.074z"/>
<path fill="#F7D096" stroke="#CC2F3F" d="M850.534,482.125c35.953-10.944,53.701-57.279,39.635-103.497
	c-14.064-46.215-58.324-86.98-94.285-76.039c-35.949,10.945-49.986,69.46-35.924,115.676
	C774.024,464.479,814.577,493.069,850.534,482.125C886.487,471.181,814.577,493.069,850.534,482.125z"/>
<path fill="#F7D096" stroke="#CC2F3F" d="M821.897,441.53l30.352-9.669l-30.621-97.471c-5.525-0.541-10.957-0.063-16.188,1.604
	c-5.229,1.666-9.947,4.422-14.162,8.067L821.897,441.53L821.897,441.53z"/>
<path fill="#F7D096" stroke="#CC2F3F" d="M868.851,418.287c5.348-1.948,8.102-7.865,6.143-13.212
	c-1.949-5.344-7.867-8.099-13.215-6.143c-5.346,1.953-8.098,7.87-6.141,13.209C857.587,417.488,863.507,420.239,868.851,418.287
	C874.196,416.339,863.507,420.239,868.851,418.287z"/>
<path fill="#F7D096" stroke="#CC2F3F" d="M802.96,438.34c5.35-1.948,8.094-7.858,6.143-13.208
	c-1.951-5.348-7.869-8.094-13.219-6.142c-5.342,1.956-8.092,7.861-6.141,13.213C791.698,437.547,797.612,440.296,802.96,438.34
	C808.31,436.392,797.612,440.296,802.96,438.34z"/>
<path fill="#F7D096" stroke="#CC2F3F" d="M801.562,451.948l77.013-23.833l-1.158-3.767l-77.021,23.833L801.562,451.948z"/>
<path fill="#F7D096" stroke="#CC2F3F" d="M803.772,459.088l77.018-23.832l-1.166-3.76l-77.018,23.829L803.772,459.088z"/>
<path fill="#F7D096" stroke="#CC2F3F" d="M882.901,442.165l-77.015,23.839l-1.164-3.762l77.015-23.839L882.901,442.165z"/>
<path fill="#F7D096" stroke="#CC2F3F" d="M851.731,378.313l-0.957-3.132l34.205-10.581c0.436,1.015,0.854,2.022,1.266,3.027
	L851.731,378.313L851.731,378.313z"/>
<path fill="#F7D096" stroke="#CC2F3F" d="M887.671,371.31c0.729,1.965,1.414,3.913,2.033,5.832l-35.086,10.675l-1.744-5.738
	L887.671,371.31C888.399,373.272,887.671,371.31,887.671,371.31z"/>
<path fill="#F7D096" stroke="#CC2F3F" d="M847.45,364.265l-1.859-6.126l31.525-9.598c1.027,1.874,2.016,3.749,2.969,5.626
	L847.45,364.265L847.45,364.265z"/>
<path fill="#F7D096" stroke="#CC2F3F" d="M881.858,357.739c0.52,1.08,1.021,2.153,1.516,3.229l-33.742,10.442l-1.031-3.383
	L881.858,357.739C882.378,358.819,881.858,357.739,881.858,357.739z"/>
<g>
	<path fill="#F7D096" stroke="#CC2F3F" d="M757.22,407.552c-0.225-1.063-0.441-2.133-0.65-3.218l38.186-11.815l0.951,3.125
		L757.22,407.552C756.995,406.489,757.22,407.552,757.22,407.552z"/>
	<path fill="#F7D096" stroke="#CC2F3F" d="M796.854,399.411l1.666,5.479l-39.002,11.875c-0.504-1.738-0.973-3.541-1.416-5.362
		L796.854,399.411L796.854,399.411z"/>
	<path fill="#F7D096" stroke="#CC2F3F" d="M792.577,385.367l1.029,3.38l-37.742,11.682c-0.197-1.165-0.379-2.341-0.555-3.524
		L792.577,385.367L792.577,385.367z"/>
	<path fill="#F7D096" stroke="#CC2F3F" d="M754.778,392.945c-0.285-2.289-0.535-4.601-0.736-6.938l35.445-10.792l1.939,6.382
		L754.778,392.945C754.493,390.656,754.778,392.945,754.778,392.945z"/>
</g>
<path fill="#F7D096" stroke="#CC2F3F" d="M784.667,327.813c0.607,1.973,2.701,3.07,4.67,2.464l30.6-9.469
	c1.979-0.609,3.082-2.706,2.473-4.675l0,0c-0.609-1.978-2.705-3.079-4.678-2.471l-30.604,9.471
	C785.157,323.743,784.054,325.843,784.667,327.813L784.667,327.813C785.274,329.783,784.667,327.813,784.667,327.813z"/>
<path fill="#F7D096" stroke="#CC2F3F" d="M1102.655,59.71c-23.74,16.012-26.297,53.723-5.719,84.236
	c20.576,30.51,61.928,50.304,85.66,34.291c23.738-16.012,20.873-61.762,0.299-92.271
	C1162.317,55.453,1126.394,43.701,1102.655,59.71C1078.915,75.722,1126.394,43.701,1102.655,59.71z"/>
<path fill="#F7D096" stroke="#CC2F3F" d="M1148.313,140.308l14.691,21.168c1.625-0.443,3.16-1.139,4.564-2.107
	c1.402-0.967,2.594-2.159,3.588-3.514l-14.693-21.168"/>
<path fill="#F7D096" stroke="#CC2F3F" d="M1137.54,143.615c-4.922,3.354-7.5,8.144-5.764,10.692
	c1.74,2.554,7.139,1.906,12.059-1.447c4.918-3.352,7.498-8.137,5.758-10.686C1147.853,139.62,1142.454,140.267,1137.54,143.615
	C1132.618,146.97,1142.454,140.267,1137.54,143.615z"/>
<path fill="#F7D096" stroke="#CC2F3F" d="M1131.284,151.813l16.166-11.014c0.928,0.232,1.672,0.68,2.143,1.375
	c0.609,0.893,0.682,2.063,0.313,3.354l-15.113,10.296c-1.336-0.128-2.4-0.621-3.014-1.517
	C1131.306,153.616,1131.165,152.759,1131.284,151.813C1131.284,151.813,1131.165,152.759,1131.284,151.813z"/>
<path fill="#F7D096" stroke="#CC2F3F" d="M1163.624,125.841c-4.916,3.354-7.496,8.141-5.756,10.693
	c1.74,2.551,7.135,1.904,12.057-1.447c4.918-3.35,7.498-8.138,5.758-10.689C1173.942,121.845,1168.542,122.493,1163.624,125.841
	C1158.708,129.194,1168.542,122.493,1163.624,125.841z"/>
<path fill="#F7D096" stroke="#CC2F3F" d="M1157.378,134.04l16.162-11.012c0.926,0.229,1.672,0.678,2.143,1.371
	c0.609,0.893,0.678,2.064,0.313,3.354l-15.119,10.301c-1.332-0.133-2.397-0.625-3.008-1.519
	C1157.396,135.843,1157.253,134.985,1157.378,134.04C1157.378,134.04,1157.253,134.985,1157.378,134.04z"/>
<path fill="#F7D096" stroke="#CC2F3F" d="M1152.942,128.778l-2.021,5.718l-6.939,0.388l-47.639-69.92
	c2.551-2.597,5.439-4.831,8.574-6.678L1152.942,128.778L1152.942,128.778z"/>
<path fill="#F7D096" stroke="#CC2F3F" d="M1166.282,172.128l14.369-9.787l1.545,2.269l-14.367,9.787L1166.282,172.128z"/>
<path fill="#F7D096" stroke="#CC2F3F" d="M1148.978,165.104c-2.512,1.707-3.152,5.123-1.447,7.627
	c1.707,2.508,5.123,3.154,7.629,1.449c2.504-1.707,3.156-5.123,1.441-7.631C1154.894,164.048,1151.483,163.399,1148.978,165.104
	C1146.466,166.812,1151.483,163.399,1148.978,165.104z"/>
<path fill="#F7D096" stroke="#CC2F3F" d="M1181.79,142.751c-2.508,1.707-3.156,5.12-1.449,7.627
	c1.711,2.508,5.125,3.155,7.633,1.448c2.508-1.71,3.154-5.123,1.441-7.631C1187.71,141.692,1184.296,141.04,1181.79,142.751
	C1179.282,144.458,1184.296,141.04,1181.79,142.751z"/>
<path fill="#F7D096" stroke="#CC2F3F" d="M734.993,176.919c-28.945,10.942-41.012,49.975-26.949,87.182
	c14.068,37.213,52.641,68.311,81.588,57.365c28.951-10.94,37.305-59.777,23.242-96.988
	C798.808,187.271,763.94,165.976,734.993,176.919C706.048,187.861,763.94,165.976,734.993,176.919z"/>
<path fill="#F7D096" stroke="#CC2F3F" d="M762.995,273.048l10.195,25.922c1.816-0.068,3.604-0.417,5.322-1.086
	c1.721-0.671,3.27-1.625,4.65-2.807l-10.199-25.917"/>
<path fill="#F7D096" stroke="#CC2F3F" d="M750.837,273.851c-6.004,2.304-9.912,6.693-8.713,9.813
	c1.191,3.118,7.031,3.78,13.035,1.479c6.01-2.306,9.91-6.699,8.715-9.815C762.677,272.207,756.841,271.551,750.837,273.851
	C744.833,276.151,756.841,271.551,750.837,273.851z"/>
<path fill="#F7D096" stroke="#CC2F3F" d="M742.226,280.921l19.736-7.566c0.914,0.473,1.586,1.129,1.912,1.974
	c0.42,1.096,0.201,2.343-0.506,3.604l-18.453,7.076c-1.375-0.469-2.379-1.249-2.791-2.345
	C741.798,282.821,741.858,281.881,742.226,280.921C742.226,280.921,741.858,281.881,742.226,280.921z"/>
<path fill="#F7D096" stroke="#CC2F3F" d="M782.696,261.638c-6.008,2.305-9.906,6.698-8.713,9.813
	c1.189,3.118,7.031,3.778,13.039,1.475c6.006-2.302,9.908-6.692,8.711-9.813C794.544,259.998,788.7,259.337,782.696,261.638
	C776.688,263.942,788.7,259.337,782.696,261.638z"/>
<path fill="#F7D096" stroke="#CC2F3F" d="M774.083,268.708l19.744-7.57c0.914,0.477,1.588,1.133,1.906,1.978
	c0.418,1.092,0.201,2.344-0.508,3.606l-18.457,7.072c-1.367-0.465-2.367-1.251-2.785-2.343
	C773.659,270.606,773.722,269.671,774.083,268.708C774.083,268.708,773.722,269.671,774.083,268.708z"/>
<path fill="#F7D096" stroke="#CC2F3F" d="M770.726,262.071l-3.543,5.517l-7.396-1.321l-32.736-85.391
	c3.328-2.094,6.925-3.733,10.684-4.893L770.726,262.071L770.726,262.071z"/>
<path fill="#F7D096" stroke="#CC2F3F" d="M791.56,304.259l-17.543,6.728l1.056,2.771l17.553-6.726L791.56,304.259z"/>
<path fill="#F7D096" stroke="#CC2F3F" d="M757.524,299.298c-3.059,1.172-4.586,4.604-3.41,7.663c1.176,3.063,4.604,4.594,7.66,3.417
	c3.059-1.173,4.59-4.604,3.422-7.663C764.019,299.652,760.589,298.121,757.524,299.298
	C754.468,300.47,760.589,298.121,757.524,299.298z"/>
<path fill="#F7D096" stroke="#CC2F3F" d="M797.601,283.937c-3.061,1.172-4.59,4.604-3.416,7.668c1.172,3.06,4.605,4.588,7.666,3.412
	c3.061-1.17,4.588-4.602,3.41-7.658C804.087,284.296,800.659,282.761,797.601,283.937
	C794.54,285.108,800.659,282.761,797.601,283.937z"/>
<path fill="#F7D096" stroke="#CC2F3F" d="M320.283,55.685c-26.992,1.063-47.776,30.056-46.407,64.763
	c1.364,34.7,24.722,71.116,51.722,70.055c26.991-1.065,47.406-39.202,46.042-73.903C370.271,81.892,347.28,54.623,320.283,55.685
	C293.291,56.748,347.28,54.623,320.283,55.685z"/>
<path fill="#F7D096" stroke="#CC2F3F" d="M335.205,143.632l-22.88,0.9l-3.41-86.648c3.626-1.277,7.429-2.041,11.368-2.197
	c3.944-0.156,7.8,0.308,11.509,1.299L335.205,143.632L335.205,143.632z"/>
<path fill="#F7D096" stroke="#CC2F3F" d="M273.931,121.565l26.336-1.035l0.878,22.283l-23.67,0.935
	C275.522,136.044,274.293,128.47,273.931,121.565C273.931,121.565,274.293,128.47,273.931,121.565z"/>
<path fill="#F7D096" stroke="#CC2F3F" d="M369.884,140.108l-26.614,1.049l-0.88-22.284l29.283-1.155
	C371.855,124.628,371.226,132.274,369.884,140.108C369.884,140.108,371.226,132.274,369.884,140.108z"/>
<path fill="#F7D096" stroke="#CC2F3F" d="M289.881,92.364c-4.836,0.459-8.38,4.746-7.921,9.581c0.455,4.831,4.739,8.378,9.572,7.923
	c4.833-0.459,8.383-4.745,7.926-9.577C298.999,95.459,294.716,91.911,289.881,92.364C285.045,92.823,294.716,91.911,289.881,92.364z
	"/>
<path fill="#F7D096" stroke="#CC2F3F" d="M348.587,90.054c-4.834,0.459-8.379,4.744-7.926,9.576
	c0.455,4.836,4.748,8.383,9.574,7.928c4.838-0.459,8.383-4.746,7.93-9.58C357.708,93.146,353.421,89.599,348.587,90.054
	C343.753,90.513,353.421,89.599,348.587,90.054z"/>
<path fill="#F7D096" stroke="#CC2F3F" d="M302.124,154.487l44.204-1.738l0.709,18.031l-44.204,1.739L302.124,154.487z"/>
<path fill="#F7D096" stroke="#CC2F3F" d="M770.413,290.121c-5.854-0.026-11.389,2.565-16.275,7.18
	c-11.445,10.801-19.334,32.688-19.441,57.961c-0.154,36.063,15.576,65.369,35.146,65.455c19.572,0.084,35.563-29.078,35.72-65.146
	C805.72,319.51,789.983,290.205,770.413,290.121C764.56,290.095,789.983,290.205,770.413,290.121z"/>
<path fill="#F7D096" stroke="#CC2F3F" d="M769.843,420.717c19.572,0.084,35.563-29.078,35.719-65.146
	c0.084-18.96-4.229-36.056-11.182-48.014c-4.971-8.553,5.051,88.414-48.623,92.11C744.626,410.815,765.79,420.701,769.843,420.717
	C789.415,420.801,765.79,420.701,769.843,420.717z"/>
<path fill="#F7D096" stroke="#CC2F3F" d="M754.835,297.708c0,0-1.723,0.549-3.303,2.801c-1.58,2.25-9.137,14.736-12.604,26.239
	c-3.469,11.506-4.555,29.437-2.514,47.782c2.035,18.346,15.188,36.994,15.188,36.994l0.142-1.042c0,0-0.148-1.7-2.219-15.129
	c-2.072-13.43,2.193-8.991,3.064-11.526c0.867-2.533,2.74-1.377,4.295-3.229c1.559-1.85-0.825-8.275-1.094-10.712
	c-0.268-2.435,3.879-7.365,5.443-7.843c1.557-0.479,6.666,0.454,8.555-1.537c1.354-1.432,1.082-3.827,1.011-5.624
	c-0.107-2.745,0.137-5.451,0.116-8.188c-0.04-5.925-1.337-11.831-2.354-17.645c-0.477-2.729-0.718-6.066-2.351-8.421
	c-1.626-2.343-4.472-3.501-6.323-5.635c-2.246-2.585-1.176-5.521-1.209-8.603c-0.014-1.202-0.361-1.724-1.356-2.313
	c-1.487-0.883-2.38-2.161-2.354-3.935c0.008-0.575,0.104-0.975,0.104-0.975L754.835,297.708L754.835,297.708z"/>
<path fill="#F7D096" stroke="#CC2F3F" d="M772.409,290.706c0,0,4.662,0.343,10.656,4.229c5.996,3.887,10.889,11.582,14.717,19.542
	c3.832,7.96,6.6,26.187,7.611,31.243c1.006,5.063-1.826,32.575-1.826,32.575l-1.066,0.262c0,0-1.137-1.274-1.969-2.289
	c-0.828-1.011-2.658-5.717-2.844-11.13c-0.155-4.591-3.103-8.55-6.563-11.332c-1.254-1.009-2.599-1.791-3.994-2.573
	c-0.897-0.507-1.057-1.849-1.344-2.735c-1.166-3.617,0.188-3.219-0.254-6.954c-0.438-3.735,0.313-7.001,6.484-14.966
	c6.178-7.962-1.674-14.775-3.629-20.208c-1.718-4.779-6.285-6.274-10.169-8.877c-1.86-1.248-3.811-2.796-4.889-4.812
	C772.954,291.966,772.897,291.349,772.409,290.706L772.409,290.706z"/>
<path fill="#F7D096" stroke="#CC2F3F" d="M334.959,108.985c-24.271-7.445-61.687,44.349-83.57,115.688
	c-21.883,71.34-19.949,135.205,4.324,142.652c24.269,7.446,61.681-44.354,83.562-115.688
	C361.16,180.294,359.225,116.431,334.959,108.985C310.688,101.54,359.225,116.431,334.959,108.985z"/>
<path fill="#F7D096" stroke="#CC2F3F" d="M278.602,215.386c-5.472-6.959-11.919-11.024-14.399-9.076
	c-2.479,1.951-0.056,9.176,5.417,16.136c5.475,6.96,11.921,11.024,14.398,9.075C286.499,229.571,284.074,222.347,278.602,215.386
	C273.13,208.427,284.074,222.347,278.602,215.386z"/>
<path fill="#F7D096" stroke="#CC2F3F" d="M321.017,228.396c8.438-2.695,16.055-2.442,17.014,0.563
	c0.96,3.004-5.104,7.626-13.531,10.323c-8.442,2.692-16.052,2.446-17.011-0.563C306.524,235.714,312.585,231.093,321.017,228.396
	C329.455,225.7,312.585,231.093,321.017,228.396z"/>
<path fill="#F7D096" stroke="#CC2F3F" d="M246.495,240.63l32.123,9.856l-2.577,8.402l-32.124-9.854L246.495,240.63z"/>
<path fill="#F7D096" stroke="#CC2F3F" d="M302.261,257.728l32.123,9.854l-2.577,8.401l-32.124-9.855L302.261,257.728z"/>
<path fill="#F7D096" stroke="#CC2F3F" d="M275.361,302.183c-4.096-1.256-8.44,1.051-9.696,5.146
	c-1.261,4.102,1.047,8.439,5.143,9.699c4.099,1.26,8.443-1.045,9.697-5.145C281.763,307.785,279.461,303.441,275.361,302.183
	C271.266,300.927,279.461,303.441,275.361,302.183z"/>
<path fill="#F7D096" stroke="#CC2F3F" d="M242.956,354.732c-8.444-17.553-9.066-50.852-1.574-89.981l9.459,14.243l-10.01,6.63
	l7.968,12.005l-9.146,6.057l7.818,11.771l-7.021,4.646l8.895,13.396l-8.313,5.51l7.844,11.813L242.956,354.732
	C234.512,337.182,242.956,354.732,242.956,354.732z"/>
<path fill="#F7D096" stroke="#CC2F3F" d="M325.977,288.362c-16.434,38.887-36.801,67.554-54.342,76.625l-3.385-8.23l13.113-5.376
	l-3.798-9.229l14.874-6.101l-3.203-7.787l13.067-5.358l-4.177-10.146l13.336-5.465l-4.572-11.107L325.977,288.362
	C309.543,327.249,325.977,288.362,325.977,288.362z"/>
<path fill="#F7D096" stroke="#CC2F3F" d="M326.604,203.347l-38.246-11.736l13.253,24.992L326.604,203.347z"/>
<path fill="#F7D096" stroke="#CC2F3F" d="M308.77,221.761l-22.683,73.961l-7.588,0.717l-7.35-5.297l22.678-73.936l5.165,9.742
	L308.77,221.761z"/>
<path fill="#F7D096" stroke="#CC2F3F" d="M856.677,378.084c0.365-25.385-59.826-46.836-134.439-47.915
	c-74.617-1.075-135.396,18.629-135.764,44.021c-0.362,25.378,59.826,46.824,134.441,47.904
	C795.528,423.168,856.312,403.464,856.677,378.084C857.042,352.699,856.312,403.464,856.677,378.084z"/>
<path fill="#F7D096" stroke="#CC2F3F" d="M743.466,337.348c2.566,1.837,0.467,9.162-4.688,16.362
	c-5.154,7.199-11.412,11.547-13.979,9.711c-2.564-1.837-0.467-9.162,4.688-16.362C734.644,339.859,740.901,335.511,743.466,337.348
	C746.032,339.185,740.901,335.511,743.466,337.348z"/>
<path fill="#F7D096" stroke="#CC2F3F" d="M738.124,398.064c4.945,7.348,6.834,14.731,4.215,16.492
	c-2.615,1.761-8.748-2.771-13.691-10.11c-4.945-7.35-6.834-14.729-4.219-16.49C727.044,386.197,733.175,390.723,738.124,398.064
	C743.069,405.412,733.175,390.723,738.124,398.064z"/>
<path fill="#F7D096" stroke="#CC2F3F" d="M705.558,329.934l-0.483,33.6l-8.787-0.127l0.483-33.6L705.558,329.934z"/>
<path fill="#F7D096" stroke="#CC2F3F" d="M704.229,421.851l0.481-33.595l-8.787-0.131l-0.483,33.602L704.229,421.851z"/>
<path fill="#F7D096" stroke="#CC2F3F" d="M654.513,374.845c0.063-4.278-3.363-7.811-7.65-7.873
	c-4.289-0.063-7.813,3.367-7.873,7.649c-0.064,4.29,3.361,7.813,7.646,7.876C650.921,382.558,654.45,379.134,654.513,374.845
	C654.573,370.564,654.45,379.134,654.513,374.845z"/>
<path fill="#F7D096" stroke="#CC2F3F" d="M594.998,358.417c14.492-13.01,46.292-22.912,85.956-26.654l-11.033,13.063l-9.164-7.765
	l-9.297,11.01l-8.373-7.09l-9.114,10.795l-6.426-5.442l-10.373,12.283l-7.612-6.443l-9.146,10.834L594.998,358.417
	C609.49,345.407,594.998,358.417,594.998,358.417z"/>
<path fill="#F7D096" stroke="#CC2F3F" d="M681.931,419.582c-41.934-4.91-75.149-16.456-88.767-30.766l6.959-5.553l8.831,11.092
	l7.798-6.224l10.014,12.574l6.58-5.25l8.796,11.048l8.574-6.845l8.979,11.276l9.389-7.494L681.931,419.582
	C639.997,414.672,681.931,419.582,681.931,419.582z"/>
<path fill="#F7D096" stroke="#CC2F3F" d="M763.737,396.428l0.578-40.003l-20.295,19.714L763.737,396.428z"/>
<path fill="#F7D096" stroke="#CC2F3F" d="M744.333,383.5l-77.354-1.112l-2.81-7.081l3.029-8.541l77.33,1.115l-7.906,7.682
	L744.333,383.5z"/>
<path fill="#F7D096" stroke="#CC2F3F" d="M222.305,341.409c-26.158,5.567-41.55,37.332-34.389,70.951
	c7.16,33.612,36.054,65.205,62.208,59.637c26.153-5.572,39.66-46.192,32.502-79.807
	C275.461,358.573,248.455,335.841,222.305,341.409C196.146,346.979,248.455,335.841,222.305,341.409z"/>
<path fill="#F7D096" stroke="#CC2F3F" d="M251.628,424.675l-22.166,4.719l-17.879-83.934c3.324-1.853,6.9-3.237,10.722-4.052
	c3.819-0.813,7.653-1.01,11.444-0.668L251.628,424.675L251.628,424.675z"/>
<path fill="#F7D096" stroke="#CC2F3F" d="M188.158,413.441l25.514-5.433l4.598,21.587l-22.928,4.886
	C192.143,427.292,189.675,420.113,188.158,413.441C188.158,413.441,189.675,420.113,188.158,413.441z"/>
<path fill="#F7D096" stroke="#CC2F3F" d="M284.861,415.414l-25.784,5.492l-4.6-21.588l28.367-6.043
	C284.182,399.986,284.852,407.552,284.861,415.414C284.861,415.414,284.852,407.552,284.861,415.414z"/>
<path fill="#F7D096" stroke="#CC2F3F" d="M198.812,382.284c-4.642,1.259-7.379,6.038-6.121,10.673
	c1.241,4.575,6.094,7.361,10.671,6.12c4.577-1.241,7.355-6.096,6.119-10.672C208.223,383.77,203.448,381.029,198.812,382.284
	C194.17,383.543,203.448,381.029,198.812,382.284z"/>
<path fill="#F7D096" stroke="#CC2F3F" d="M249.257,378.569c0-4.632,3.786-8.547,8.417-8.693c4.628-0.147,8.667,3.507,8.962,8.133
	c0.294,4.621-3.227,8.778-7.843,9.219c-4.61,0.44-8.878-2.943-9.466-7.546C249.28,379.313,249.257,378.941,249.257,378.569
	C249.257,373.766,249.257,383.373,249.257,378.569z"/>
<g>
	<path fill="#FFEFD9" stroke="#CC2F3F" d="M353.826,194.735c-9.303,2.188-17.101,8.404-23.098,17.585
		c-14.059,21.498-18.254,59.234-8.818,99.386c13.467,57.292,49.589,97.815,80.675,90.51c31.088-7.313,45.38-59.672,31.91-116.972
		C421.029,227.947,384.915,187.427,353.826,194.735C344.523,196.923,384.915,187.427,353.826,194.735z"/>
	<path fill="#FFEFD9" stroke="#CC2F3F" d="M395.198,403.567C395.197,403.567,395.197,403.567,395.198,403.567
		c-15.065,0-28.386-9.711-38.251-20.269c-13.724-14.685-23.287-33.142-29.865-52.005c-7.814-22.406-11.786-46.538-10.54-70.275
		c0.549-10.471,2.15-20.958,5.379-30.953c2.936-9.086,7.279-18.024,13.871-25.036c7.035-7.483,16.588-12.089,26.983-11.613
		c6.905,0.316,13.554,2.727,19.496,6.169c15.277,8.852,26.597,23.853,35.036,39.044c10.866,19.561,17.729,41.407,20.895,63.521
		c2.905,20.294,2.835,41.62-2.807,61.458c-4.014,14.103-11.491,29.146-25.039,36.229
		C405.688,402.284,400.47,403.567,395.198,403.567C395.197,403.567,397.734,403.567,395.198,403.567z M361.217,194.383
		c-21.558,0-33.976,20.592-39.267,38.998c-6.249,21.736-5.686,45.315-1.776,67.413c3.872,21.888,11.321,43.46,22.944,62.471
		c8.687,14.207,20.339,28.344,35.774,35.472c6.995,3.229,14.812,4.735,22.452,3.236c6.685-1.313,12.677-4.854,17.479-9.631
		c11.755-11.697,16.786-29.083,18.949-45.077c2.953-21.846,0.762-44.357-4.683-65.646c-5.229-20.451-13.676-40.51-26.262-57.558
		c-9.188-12.445-21.586-24.762-37.072-28.604C366.965,194.764,364.095,194.383,361.217,194.383
		C358.756,194.383,390.526,194.383,361.217,194.383z"/>
</g>
<path fill="#F7D096" stroke="#CC2F3F" d="M402.585,402.216c31.088-7.313,45.38-59.672,31.91-116.972
	c-7.079-30.128-20.424-55.612-36.005-71.954c-11.137-11.678,41.644,138.399-42.132,164.683
	C358.801,396.086,396.146,403.726,402.585,402.216C433.673,394.903,396.146,403.726,402.585,402.216z"/>
<path fill="#F7D096" stroke="#CC2F3F" d="M331.987,212.701c0,0-2.53,1.524-4.18,5.701c-1.648,4.171-8.893,26.861-10.021,46.435
	c-1.13,19.579,3.967,48.447,14.181,76.789c10.21,28.345,38.181,52.934,38.181,52.934l-0.175-1.701c0,0-0.881-2.647-9.275-23.168
	c-8.397-20.521,0.069-15.111,0.48-19.463c0.415-4.35,3.825-3.229,5.59-6.75c1.765-3.531-4.464-12.822-5.81-16.586
	c-1.351-3.768,3.357-13.169,5.652-14.519c2.293-1.352,10.759-1.816,12.991-5.694c1.637-2.837,0.229-6.627-0.582-9.498
	c-0.647-2.293-1.289-4.589-1.74-6.931c-0.391-2.03-0.673-4.065-1.175-6.075c-2.332-9.329-6.6-18.156-10.404-26.947
	c-1.561-3.609-2.997-7.546-5.36-10.733c-1.571-2.119-3.745-3.379-6.104-4.46c-3.501-1.604-7.695-2.875-10.054-6.135
	c-1.962-2.713-1.911-6.352-2.495-9.517c-0.205-1.111-0.407-2.426-1.107-3.354c-0.463-0.614-1.17-0.837-1.876-1.052
	c-2.827-0.858-4.891-2.454-5.576-5.455c-0.204-0.918-0.204-1.584-0.204-1.584L331.987,212.701L331.987,212.701z"/>
<path fill="#F7D096" stroke="#CC2F3F" d="M357.214,194.904c0,0,7.526-1.229,18.518,2.655c10.994,3.887,21.686,14.242,30.789,25.42
	c9.107,11.177,20.438,39.045,23.961,46.691c3.521,7.644,9.489,52.389,9.489,52.389l-1.589,0.821c0,0-2.294-1.588-3.997-2.88
	c-1.703-1.295-6.401-8.06-8.748-16.587c-1.949-7.085-7.94-12.186-14.336-15.294c-2.468-1.2-5.01-2.013-7.643-2.74
	c-1.663-0.46-2.414-2.512-3.231-3.849c-3.228-5.295-0.937-5.18-3.049-10.941c-2.108-5.758-2.167-11.224,4.604-26.217
	c6.771-14.988-8.275-22.815-13.442-30.694c-2.127-3.242-5.123-5.476-8.727-6.841c-3.61-1.368-7.424-2.106-11.037-3.473
	c-3.367-1.274-6.981-2.976-9.396-5.744c-0.444-0.508-0.861-1.07-1.129-1.693C358.05,195.458,357.615,195.229,357.214,194.904
	L357.214,194.904z"/>
<path fill="#F7D096" stroke="#CC2F3F" d="M398.405,327.469c9.097-0.451,17.82,1.979,25.636,6.665
	c18.303,10.979,31.6,34.323,32.981,61.941c1.966,39.408-21.097,72.586-51.502,74.103c-30.407,1.513-56.646-29.201-58.605-68.604
	C344.938,362.162,367.995,328.986,398.405,327.469C407.502,327.018,367.995,328.986,398.405,327.469z"/>
<path fill="#F7D096" stroke="#CC2F3F" d="M418.863,356.262c8.027-0.317,14.786,5.933,15.103,13.957
	c0.314,8.021-5.933,14.787-13.962,15.101c-8.021,0.315-14.784-5.934-15.1-13.957C404.588,363.334,410.838,356.578,418.863,356.262
	C426.893,355.942,410.838,356.578,418.863,356.262z"/>
<path fill="#F7D096" stroke="#CC2F3F" d="M359.814,360.589c4.703-0.187,8.778,6.169,9.091,14.191
	c0.317,8.027-3.244,14.684-7.942,14.87c-4.704,0.183-8.776-6.175-9.089-14.199C351.557,367.43,355.112,360.771,359.814,360.589
	C364.518,360.402,355.112,360.771,359.814,360.589z"/>
<path fill="#F7D096" stroke="#CC2F3F" d="M412.831,444.507l-38.055,2.165l-0.854-15.02l38.055-2.165L412.831,444.507z"/>
<path fill="#F7D096" stroke="#CC2F3F" d="M376.333,333.843l22.072-6.373c-1.188,11.836-2.325,23.687-3.165,35.553
	c-0.959,13.563-0.376,27.213-0.007,40.793c0.087,3.188,0.179,6.379,0.282,9.565l-19.075-0.255
	c-1.424-11.86-2.876-23.789-3.448-35.725c-0.303-6.312,0.3-12.642,0.844-18.921c0.605-6.992,1.321-13.979,2.086-20.955
	C376.057,336.298,376.192,335.07,376.333,333.843L376.333,333.843z"/>
<path fill="#F7D096" stroke="#CC2F3F" d="M407.798,393.827l40.082-1.573l0.591,15.029l-40.089,1.573L407.798,393.827z"/>
<path fill="#F7D096" stroke="#CC2F3F" d="M372.459,413.1l-22.546,4.936l-3.217-14.696l22.546-4.935L372.459,413.1z"/>
<path fill="#F7D096" stroke="#CC2F3F" d="M614.658,346.011c-8.609-2.972-17.665-3.065-26.479-0.75
	c-20.637,5.439-39.919,24.15-48.944,50.288c-12.872,37.299,0.021,75.593,28.801,85.53c28.779,9.936,62.541-12.239,75.412-49.536
	C656.333,394.242,643.44,355.953,614.658,346.011C606.049,343.039,643.44,355.953,614.658,346.011z"/>
<path fill="#F7D096" stroke="#CC2F3F" d="M586.983,367.957c-7.618-2.543-15.854,1.574-18.396,9.191
	c-2.543,7.616,1.575,15.854,9.201,18.396c7.613,2.544,15.844-1.573,18.388-9.194C598.718,378.729,594.603,370.496,586.983,367.957
	C579.365,365.414,594.603,370.496,586.983,367.957z"/>
<path fill="#F7D096" stroke="#CC2F3F" d="M642.485,388.583c-4.469-1.49-10.15,3.478-12.688,11.095
	c-2.541,7.624-0.978,15.006,3.484,16.494c4.468,1.49,10.146-3.478,12.688-11.101C648.507,397.456,646.948,390.072,642.485,388.583
	C638.019,387.093,646.948,390.072,642.485,388.583z"/>
<path fill="#F7D096" stroke="#CC2F3F" d="M609.117,452.897l-35.944-12.695l-5.005,14.188l35.941,12.691L609.117,452.897z"/>
<path fill="#F7D096" stroke="#CC2F3F" d="M634.083,358.292l-19.425-12.28c-2.161,11.698-4.371,23.396-6.873,35.025
	c-2.86,13.296-7.227,26.24-11.366,39.179c-0.972,3.038-1.95,6.076-2.938,9.109l18.393,5.076c4.672-10.994,9.389-22.045,13.268-33.35
	c2.052-5.975,3.237-12.222,4.469-18.402c1.367-6.888,2.63-13.792,3.842-20.707C633.653,360.788,634.083,359.47,634.083,358.292
	C634.083,358.292,634.083,358.291,634.083,358.292z"/>
<path fill="#F7D096" stroke="#CC2F3F" d="M587.137,407.123l-38.054-12.697l-4.76,14.271l38.06,12.692L587.137,407.123z"/>
<path fill="#F7D096" stroke="#CC2F3F" d="M643.153,433.3l-20.272-11.031l-7.187,13.224l20.274,11.026L643.153,433.3z"/>
<path fill="#F7D096" stroke="#CC2F3F" d="M556.431,26.362c-23.512-12.531-55.627,1.813-71.726,32.035
	c-16.105,30.223-14.347,72.841,9.17,85.373c23.513,12.525,59.866-9.778,75.968-40C585.947,73.552,579.943,38.89,556.431,26.362
	C532.919,13.831,579.943,38.89,556.431,26.362z"/>
<path fill="#F7D096" stroke="#CC2F3F" d="M525.376,108.655l-19.923-10.619l40.206-75.46c3.722,0.718,7.34,1.955,10.771,3.786
	c3.438,1.828,6.48,4.145,9.152,6.83L525.376,108.655L525.376,108.655z"/>
<path fill="#F7D096" stroke="#CC2F3F" d="M484.19,59.382l22.937,12.223l-10.341,19.406l-20.614-10.986
	C478.346,72.494,481.065,65.438,484.19,59.382C484.19,59.382,481.065,65.438,484.19,59.382z"/>
<path fill="#F7D096" stroke="#CC2F3F" d="M556.651,122.915l-23.183-12.354l10.341-19.408l25.506,13.591
	C566.033,110.716,561.69,116.914,556.651,122.915C556.651,122.915,561.69,116.914,556.651,122.915z"/>
<path fill="#F7D096" stroke="#CC2F3F" d="M512.3,42.46c-4.342-2.02-9.497-0.133-11.509,4.211c-2.021,4.34-0.136,9.493,4.208,11.51
	c4.339,2.016,9.489,0.131,11.51-4.211C518.521,49.63,516.641,44.476,512.3,42.46C507.958,40.44,516.641,44.476,512.3,42.46z"/>
<path fill="#F7D096" stroke="#CC2F3F" d="M563.423,69.704c-4.34-2.016-9.49-0.132-11.508,4.208
	c-2.021,4.34-0.134,9.496,4.209,11.513c4.339,2.016,9.492,0.133,11.512-4.211C569.648,76.874,567.767,71.724,563.423,69.704
	C559.083,67.688,567.767,71.724,563.423,69.704z"/>
<path fill="#F7D096" stroke="#CC2F3F" d="M709.374,151.128c-25.266-10.445-70.639,41.303-101.347,115.58
	c-30.694,74.275-35.106,142.952-9.835,153.397c25.268,10.446,70.641-41.299,101.342-115.572
	C730.239,230.255,734.647,161.577,709.374,151.128C684.108,140.683,734.647,161.577,709.374,151.128z"/>
<path fill="#F7D096" stroke="#CC2F3F" d="M634.292,268.851c-9.318,2.037-17.459,0.993-18.188-2.326
	c-0.725-3.32,6.239-7.66,15.561-9.695c9.318-2.031,17.459-0.993,18.182,2.325C650.573,262.472,643.606,266.815,634.292,268.851
	C624.974,270.888,643.606,266.815,634.292,268.851z"/>
<path fill="#F7D096" stroke="#CC2F3F" d="M678.452,287.104c5.162,8.019,11.662,13.027,14.52,11.188
	c2.861-1.837,0.988-9.828-4.172-17.852c-5.16-8.018-11.664-13.026-14.516-11.188C671.423,271.094,673.29,279.084,678.452,287.104
	C683.614,295.123,673.29,279.084,678.452,287.104z"/>
<path fill="#F7D096" stroke="#CC2F3F" d="M634.61,297.144l-33.445-13.828l-3.619,8.748l33.453,13.826L634.61,297.144z"/>
<path fill="#F7D096" stroke="#CC2F3F" d="M659.233,307.337l33.448,13.825l-3.616,8.751l-33.449-13.825L659.233,307.337z"/>
<path fill="#F7D096" stroke="#CC2F3F" d="M625.874,352.255c-4.269-1.768-9.16,0.262-10.925,4.528
	c-1.769,4.271,0.266,9.161,4.536,10.921c4.265,1.768,9.15-0.262,10.917-4.528C632.168,358.907,630.139,354.018,625.874,352.255
	C621.604,350.487,630.139,354.018,625.874,352.255z"/>
<path fill="#F7D096" stroke="#CC2F3F" d="M715.733,155.601L639.94,338.963l-9.776,3.795l-5.774-10.222l75.475-182.589
	c3.402-0.392,6.592-0.024,9.512,1.181C711.757,152.115,713.88,153.619,715.733,155.601
	C715.733,155.601,713.88,153.619,715.733,155.601z"/>
<path fill="#F7D096" stroke="#CC2F3F" d="M734.897,145.152l-2.375-8.91l-22.256,45.875l9.648,10.101
	c0.803-2.17,1.605-4.34,2.409-6.51c0.604-1.635,1.337-3.271,1.819-4.947c1.186-4.1,2.367-8.2,3.553-12.3
	c2.089-7.233,4.177-14.466,6.266-21.699L734.897,145.152L734.897,145.152z"/>
<path fill="#F7D096" stroke="#CC2F3F" d="M729.511,120.009l-17.67-13.097l4.395-34.94c0,0,20.355,26.885,20.148,30.209
	c-0.201,3.326-0.813,13.303-0.813,13.303L729.511,120.009L729.511,120.009z"/>
<path fill="#F7D096" stroke="#CC2F3F" d="M729.511,120.009l-17.668-13.096l4.392-34.939l16.284,44.326L729.511,120.009z"/>
<path fill="#F7D096" stroke="#CC2F3F" d="M840.341,458.922l-8.44,3.749L731.089,133.8l8.938-4.613L840.341,458.922z"/>
<path fill="#F7D096" stroke="#CC2F3F" d="M764.062,223.265l-4.805,2.492l-26.613-91.593l5.013-2.696L764.062,223.265z"/>
<path fill="#F7D096" stroke="#CC2F3F" d="M733.603,113.19c0,0,2.701-0.584,4.609,0.957c1.912,1.531,0.414,5.975,0.414,5.975
	l-1.922,2.331l-11.357,3.752c0,0-3.08-0.631-3.414-5.995c-0.344-5.359,10.881-6.896,10.881-6.896L733.603,113.19L733.603,113.19z"/>
<path fill="#F7D096" stroke="#CC2F3F" d="M731.53,115.656l1.361,7.677l-7.547,2.873c0,0-3.92-0.641-3.414-5.995
	c0.4-4.282,8.934-6.013,8.934-6.013L731.53,115.656L731.53,115.656z"/>
<path fill="#F7D096" stroke="#CC2F3F" d="M730.571,134.039c0,0-2.229,0.863-3.861,0.349c-1.635-0.52-2.256-5.397-2.086-6.806
	c0.172-1.407,13.5-5.096,14.074-4.979c0.578,0.115,2.279,0.889,2.688,2.416c0.408,1.524-0.135,3.584-0.135,3.584L730.571,134.039
	L730.571,134.039z"/>
<path fill="#F7D096" stroke="#CC2F3F" d="M735.425,130.608c0,0-6.842,2.783-8.482,2.265c-1.637-0.519-2.486-3.883-2.316-5.291
	c0.172-1.407,8.346-2.769,8.922-2.651C734.126,125.05,735.425,130.608,735.425,130.608L735.425,130.608z"/>
<path fill="#F7D096" stroke="#CC2F3F" d="M726.749,141.384l6.607-2.504c0,0-15.168,51.016-16.631,50.553
	c-1.451-0.463-8.695-9.865-8.695-9.865c5.25-10.878,10.49-21.791,16.46-32.296c0.665-1.171,1.37-2.342,1.937-3.567
	c0.058-0.121,0.095-0.269,0.082-0.302L726.749,141.384L726.749,141.384z"/>
<path fill="#F7D096" stroke="#CC2F3F" d="M724.843,133.521l6.729-0.84c0,0,2.092,2.713,1.504,4.098
	c-1.173,2.77-2.707,5.422-4.062,8.105c-2.547,5.055-5.068,10.125-7.464,15.254c-2.103,4.504-4.117,9.049-6.223,13.552
	c-0.834,1.782-1.677,3.562-2.591,5.304c-0.526,1.001-1.054,2.123-1.825,2.964c-0.148,0.162-0.482,0.481-0.645,0.158
	c-1.019-2.073-1.943-4.433-3.507-6.169c-0.374-0.416-0.833-0.674-1.177-1.125c-0.472-0.619-0.876-1.29-1.273-1.958
	c-1.619-2.729-3.068-5.568-4.477-8.414c3.164-3.964,6.354-7.908,9.567-11.833c2.372-2.896,4.754-5.785,7.188-8.63
	c2.2-2.573,4.558-5,6.784-7.546c0.214-0.244,0.863-0.851,0.861-1.122L724.843,133.521L724.843,133.521z"/>
<path fill="#F7D096" stroke="#CC2F3F" d="M724.845,133.521l6.729-0.84c0,0-24.105,43.504-25.396,42.756
	c-1.293-0.744-6.34-10.985-6.34-10.985c3.164-3.964,6.354-7.908,9.567-11.833c2.372-2.896,4.754-5.785,7.188-8.63
	c2.2-2.573,4.558-5,6.784-7.546c0.214-0.244,0.863-0.851,0.861-1.122L724.845,133.521L724.845,133.521z"/>
<path fill="#F7D096" stroke="#CC2F3F" d="M331.759,61.354c-28.108-5.459-56.587,19.395-63.607,55.522
	c-7.021,36.125,8.223,79.359,36.324,84.821c28.109,5.466,58.435-28.915,65.457-65.04S359.864,66.819,331.759,61.354
	C303.65,55.896,359.864,66.819,331.759,61.354z"/>
<path fill="#F7D096" stroke="#CC2F3F" d="M307.054,150.636l-4.577,25.355c1.461,0.833,3.036,1.43,4.715,1.736
	c1.683,0.309,3.364,0.309,5.024,0.053l4.58-25.359"/>
<path fill="#F7D096" stroke="#CC2F3F" d="M297.094,145.351c-5.845-1.108-11.053,0.455-11.634,3.488
	c-0.571,3.034,3.699,6.395,9.549,7.504c5.848,1.109,11.054-0.455,11.628-3.486C307.214,149.82,302.938,146.46,297.094,145.351
	C291.249,144.242,302.938,146.46,297.094,145.351z"/>
<path fill="#F7D096" stroke="#CC2F3F" d="M286.876,146.728l19.221,3.646c0.489,0.817,0.698,1.66,0.54,2.483
	c-0.2,1.063-0.98,1.941-2.152,2.594l-17.969-3.407c-0.851-1.036-1.255-2.139-1.056-3.204
	C285.616,148.019,286.124,147.31,286.876,146.728C286.876,146.728,286.124,147.31,286.876,146.728z"/>
<path fill="#F7D096" stroke="#CC2F3F" d="M328.108,151.231c-5.848-1.107-11.056,0.453-11.634,3.488
	c-0.571,3.035,3.701,6.392,9.551,7.504c5.849,1.105,11.058-0.455,11.63-3.485C338.229,155.701,333.955,152.341,328.108,151.231
	C322.261,150.124,333.955,152.341,328.108,151.231z"/>
<path fill="#F7D096" stroke="#CC2F3F" d="M317.895,152.606l19.217,3.645c0.492,0.819,0.7,1.662,0.545,2.487
	c-0.197,1.062-0.983,1.938-2.151,2.593l-17.972-3.41c-0.85-1.033-1.255-2.137-1.058-3.203
	C316.632,153.899,317.14,153.188,317.895,152.606C317.895,152.606,317.14,153.188,317.895,152.606z"/>
<path fill="#F7D096" stroke="#CC2F3F" d="M318.479,145.753l-5.471,2.617l-5.188-4.641l15.762-83.119
	c3.634-0.037,7.269,0.417,10.783,1.342L318.479,145.753L318.479,145.753z"/>
<path fill="#F7D096" stroke="#CC2F3F" d="M297.285,185.849l17.082,3.24l-0.511,2.695l-17.083-3.24L297.285,185.849z"/>
<path fill="#F7D096" stroke="#CC2F3F" d="M289.987,168.636c-2.981-0.568-5.854,1.392-6.42,4.369
	c-0.563,2.982,1.395,5.855,4.374,6.418c2.979,0.566,5.854-1.391,6.417-4.371C294.923,172.073,292.967,169.199,289.987,168.636
	C287.006,168.067,292.967,169.199,289.987,168.636z"/>
<path fill="#F7D096" stroke="#CC2F3F" d="M328.999,176.032c-2.981-0.566-5.854,1.391-6.416,4.369
	c-0.566,2.982,1.389,5.855,4.372,6.418c2.978,0.568,5.851-1.389,6.419-4.373C333.934,179.468,331.979,176.597,328.999,176.032
	C326.018,175.466,331.979,176.597,328.999,176.032z"/>
<path fill="#F7D096" stroke="#CC2F3F" d="M519.459,59.667c-27.648-13.816-64.453,3.788-82.216,39.322
	c-17.759,35.537-14.422,84.908,13.224,98.725c27.646,13.817,69.134-13.152,86.896-48.686
	C555.124,113.491,547.106,73.483,519.459,59.667S547.106,73.483,519.459,59.667z"/>
<path fill="#F7D096" stroke="#CC2F3F" d="M513.571,100.091l-23.579-11.406l-36.888,75.483c2.991,3.451,6.502,6.24,10.563,8.205
	c4.063,1.966,8.442,2.993,13.019,3.205L513.571,100.091L513.571,100.091z"/>
<path fill="#F7D096" stroke="#CC2F3F" d="M472.407,87.394c-4.296-1.863-9.279,0.113-11.146,4.406
	c-1.854,4.295,0.117,9.285,4.413,11.145c4.295,1.861,9.281-0.112,11.141-4.409C478.673,94.241,476.701,89.255,472.407,87.394
	C468.111,85.53,476.701,89.255,472.407,87.394z"/>
<path fill="#F7D096" stroke="#CC2F3F" d="M523.067,112.709c-4.295-1.86-9.277,0.112-11.143,4.41
	c-1.854,4.294,0.115,9.285,4.409,11.142c4.293,1.859,9.28-0.109,11.144-4.406C529.334,119.562,527.361,114.569,523.067,112.709
	C518.772,110.849,527.361,114.569,523.067,112.709z"/>
<path fill="#F7D096" stroke="#CC2F3F" d="M472.182,76.009l59.437,29.361l-1.437,2.905l-59.436-29.36L472.182,76.009z"/>
<path fill="#F7D096" stroke="#CC2F3F" d="M534.32,99.873L474.89,70.515l-1.432,2.906l59.431,29.357L534.32,99.873z"/>
<path fill="#F7D096" stroke="#CC2F3F" d="M477.528,65.198l59.429,29.358l-1.435,2.904l-59.431-29.356L477.528,65.198z"/>
<path fill="#F7D096" stroke="#CC2F3F" d="M459.999,120.938l-1.2,2.402l-26.394-13.04c0.31-0.851,0.636-1.689,0.956-2.521
	L459.999,120.938L459.999,120.938z"/>
<path fill="#F7D096" stroke="#CC2F3F" d="M434.596,104.772c0.673-1.586,1.368-3.135,2.087-4.627l26.975,13.478l-2.208,4.414
	L434.596,104.772C435.269,103.187,434.596,104.772,434.596,104.772z"/>
<path fill="#F7D096" stroke="#CC2F3F" d="M454.604,131.738l-2.354,4.708l-24.241-12.113c0.444-1.703,0.92-3.381,1.407-5.037
	L454.604,131.738L454.604,131.738z"/>
<path fill="#F7D096" stroke="#CC2F3F" d="M430.387,116.157c0.305-0.936,0.607-1.867,0.922-2.786l26.044,12.867l-1.299,2.598
	L430.387,116.157C430.688,115.222,430.387,116.157,430.387,116.157z"/>
<path fill="#F7D096" stroke="#CC2F3F" d="M532.935,156.968c-0.468,0.76-0.942,1.521-1.432,2.287l-29.471-14.558l1.199-2.399
	L532.935,156.968C532.467,157.728,532.935,156.968,532.935,156.968z"/>
<path fill="#F7D096" stroke="#CC2F3F" d="M504.682,139.396l2.11-4.215l29.983,14.988c-0.682,1.323-1.424,2.657-2.191,3.999
	L504.682,139.396L504.682,139.396z"/>
<path fill="#F7D096" stroke="#CC2F3F" d="M499.291,150.196l1.295-2.6l29.126,14.389c-0.547,0.806-1.095,1.613-1.666,2.417
	L499.291,150.196L499.291,150.196z"/>
<path fill="#F7D096" stroke="#CC2F3F" d="M526.124,167.067c-1.125,1.525-2.281,3.046-3.484,4.557L495.381,158l2.457-4.903
	L526.124,167.067C524.999,168.593,526.124,167.067,526.124,167.067z"/>
<path fill="#F7D096" stroke="#CC2F3F" d="M471.435,189.017c0.752-1.521,0.129-3.367-1.392-4.117l-23.616-11.666
	c-1.521-0.754-3.365-0.125-4.118,1.396l0,0c-0.753,1.52-0.126,3.363,1.399,4.113l23.611,11.665
	C468.842,191.162,470.681,190.538,471.435,189.017L471.435,189.017C472.187,187.496,471.435,189.017,471.435,189.017z"/>
<path fill="#F7D096" stroke="#CC2F3F" d="M1215.958,171.49c-5.486-5.817-13.26-8.851-22.424-9.343
	c-21.461-1.159-50.535,11.635-75.652,35.311c-35.832,33.79-50.016,76.938-31.684,96.384c18.342,19.442,62.244,7.819,98.078-25.975
	C1220.106,234.084,1234.29,190.937,1215.958,171.49C1210.472,165.673,1234.29,190.937,1215.958,171.49z"/>
<path fill="#F7D096" stroke="#CC2F3F" d="M1086.198,293.842c18.342,19.442,62.244,7.819,98.078-25.975
	c18.84-17.76,31.689-38.116,36.984-56.252c3.783-12.966-82.727,88.212-136.902,38.587
	C1072.269,259.572,1082.403,289.813,1086.198,293.842C1104.54,313.284,1082.403,289.813,1086.198,293.842z"/>
<path fill="#F7D096" stroke="#CC2F3F" d="M1193.79,163.22c0,0-2.174-1.197-5.887-0.635c-3.711,0.559-23.174,4.828-37.822,12.223
	c-14.645,7.399-33.412,23.201-49.646,42.484c-16.234,19.287-22.305,49.855-22.305,49.855l1.16-0.844c0,0,1.547-1.748,12.881-16.435
	c11.342-14.689,10.973-6.292,14.293-7.815c3.326-1.524,3.943,1.415,7.236,1.211c3.293-0.202,7.408-8.609,9.566-11.163
	c2.158-2.557,10.943-3.095,12.885-2c1.938,1.093,5.828,7.03,9.572,7.02c2.831-0.004,5.054-2.774,6.842-4.62
	c2.577-2.662,5.484-4.914,8.128-7.498c5.707-5.581,10.271-12.308,15.005-18.698c2.25-3.037,5.317-6.411,6.118-10.233
	c0.752-3.604-0.591-7.315-0.419-10.941c0.08-1.686,0.484-3.339,1.514-4.706c0.959-1.274,2.28-2.229,3.521-3.209
	c1.186-0.937,3.468-2.295,3.625-3.991c0.051-0.548-0.136-1.097-0.252-1.625c-0.231-1.042-0.362-2.132-0.077-3.177
	c0.294-1.08,0.957-2.025,1.771-2.777c0.582-0.535,1.063-0.813,1.063-0.813L1193.79,163.22L1193.79,163.22z"/>
<path fill="#F7D096" stroke="#CC2F3F" d="M1217.259,174.019c0,0,4.047,4.931,5.846,14.521c1.799,9.589-1.213,21.672-5.484,32.957
	c-4.27,11.28-19.695,31.177-23.752,36.936c-4.059,5.758-33.949,28.854-33.949,28.854l-1.258-0.809c0,0,0.186-2.328,0.408-4.103
	c0.225-1.774,3.148-8.017,8.336-13.293c4.169-4.238,5.406-10.448,5.099-16.204c-0.131-2.418-0.553-4.776-1.214-7.102
	c-0.431-1.515,0.688-2.852,1.383-4.128c2.48-4.555,3.359-2.848,6.643-6.793c3.287-3.948,7.223-6.283,20.914-7.672
	c13.689-1.383,13.045-15.563,16.578-22.611c1.578-3.146,1.823-6.479,1.166-9.897c-0.678-3.528-1.833-6.931-2.229-10.517
	c-0.28-2.532-0.366-5.326,0.571-7.747c0.167-0.432,0.37-0.861,0.649-1.232C1217.215,174.848,1217.193,174.429,1217.259,174.019
	L1217.259,174.019z"/>
<path fill="#F7D096" stroke="#CC2F3F" d="M1177.421,448.782c32.453-15.814,42.287-62.45,21.957-104.166
	c-20.328-41.716-68.473-73.707-100.93-57.895c-32.453,15.814-36.928,73.443-16.604,115.163
	C1102.175,443.601,1144.964,464.6,1177.421,448.782C1209.874,432.968,1144.964,464.6,1177.421,448.782z"/>
<path fill="#F7D096" stroke="#CC2F3F" d="M1134.585,340.118l-14.621-29.018c-2.104,0.272-4.143,0.864-6.063,1.827
	c-1.928,0.962-3.627,2.236-5.104,3.754l14.621,29.021"/>
<path fill="#F7D096" stroke="#CC2F3F" d="M1148.626,337.882c6.73-3.319,10.789-8.843,9.072-12.336
	c-1.727-3.492-8.576-3.636-15.311-0.313c-6.732,3.316-10.795,8.844-9.07,12.33C1135.042,341.058,1141.894,341.2,1148.626,337.882
	C1155.356,334.563,1141.894,341.2,1148.626,337.882z"/>
<path fill="#F7D096" stroke="#CC2F3F" d="M1157.874,328.747l-22.123,10.904c-1.115-0.451-1.961-1.144-2.434-2.089
	c-0.604-1.226-0.482-2.699,0.203-4.24l20.688-10.2c1.637,0.396,2.883,1.199,3.49,2.425
	C1158.165,326.489,1158.192,327.59,1157.874,328.747C1157.874,328.747,1158.192,327.59,1157.874,328.747z"/>
<path fill="#F7D096" stroke="#CC2F3F" d="M1112.919,355.48c6.732-3.317,10.795-8.842,9.072-12.333
	c-1.721-3.492-8.576-3.634-15.307-0.314c-6.729,3.318-10.795,8.841-9.068,12.333C1099.337,358.658,1106.192,358.803,1112.919,355.48
	C1119.651,352.163,1106.192,358.803,1112.919,355.48z"/>
<path fill="#F7D096" stroke="#CC2F3F" d="M1122.169,346.351l-22.121,10.904c-1.113-0.452-1.965-1.142-2.43-2.089
	c-0.607-1.225-0.484-2.702,0.199-4.24l20.688-10.2c1.635,0.396,2.881,1.198,3.484,2.425
	C1122.458,344.096,1122.491,345.191,1122.169,346.351C1122.169,346.351,1122.491,345.191,1122.169,346.351z"/>
<path fill="#F7D096" stroke="#CC2F3F" d="M1126.78,353.698l3.521-6.787l8.736,0.74l47.178,95.682
	c-3.637,2.795-7.638,5.081-11.877,6.828L1126.78,353.698L1126.78,353.698z"/>
<path fill="#F7D096" stroke="#CC2F3F" d="M1117.743,297.248l-19.662,9.694l-1.529-3.104l19.66-9.692L1117.743,297.248z"/>
<path fill="#F7D096" stroke="#CC2F3F" d="M1128.138,302.828c0-3.773,3.15-6.925,6.924-6.925c3.774,0,6.928,3.149,6.928,6.925
	c0,3.772-3.151,6.926-6.928,6.926C1131.287,309.754,1128.138,306.602,1128.138,302.828
	C1128.138,299.004,1128.138,306.653,1128.138,302.828z"/>
<path fill="#F7D096" stroke="#CC2F3F" d="M1093.218,331.178c3.434-1.691,4.84-5.845,3.154-9.272
	c-1.695-3.427-5.846-4.838-9.277-3.146c-3.426,1.692-4.838,5.844-3.146,9.271C1085.638,331.456,1089.79,332.868,1093.218,331.178
	C1096.649,329.484,1089.79,332.868,1093.218,331.178z"/>
<desc>Created with Snap</desc>
</svg>
