<?xml version="1.0" encoding="utf-8"?>
<!-- Generator: Adobe Illustrator 15.0.0, SVG Export Plug-In . SVG Version: 6.00 Build 0)  -->
<!DOCTYPE svg PUBLIC "-//W3C//DTD SVG 1.1//EN" "http://www.w3.org/Graphics/SVG/1.1/DTD/svg11.dtd">
<svg version="1.1" id="Layer_1" xmlns="http://www.w3.org/2000/svg" xmlns:xlink="http://www.w3.org/1999/xlink" x="0px" y="0px"
	 width="1400px" height="503.572px" viewBox="0 0 1400 503.572" enable-background="new 0 0 1400 503.572" xml:space="preserve">
<g id="Layer_1_1_">
	
		<rect x="-84.193" y="-346.334" transform="matrix(-1 0.0013 -0.0013 -1 1420.7317 431.6)" fill="#FFFFFF" stroke="#FFFFFF" stroke-miterlimit="10" width="1588.837" height="1125.191"/>
	<path fill="#B5DCDA" stroke="#FFFFFF" stroke-width="0.5" stroke-miterlimit="10" d="M574.596,57.083
		c0.023,18.13-12.139,34.626-29.484,39.934c-17.512,5.357-36.943-1.666-47.025-16.932c-10.104-15.302-8.815-36.046,3.079-49.992
		c11.884-13.934,32.105-18.523,48.827-11C564.8,25.754,574.576,40.848,574.596,57.083C574.626,80.106,574.568,34.053,574.596,57.083
		z"/>
	<path fill="#80C7C1" stroke="#FFFFFF" stroke-width="0.5" stroke-miterlimit="10" d="M532.466,31.358
		c0.008,4.521-3.094,8.616-7.455,9.82c-4.397,1.214-9.188-0.729-11.5-4.661c-2.318-3.943-1.65-9.099,1.576-12.333
		c3.229-3.234,8.38-3.911,12.329-1.605C530.514,24.387,532.464,27.772,532.466,31.358C532.476,36.974,532.463,25.737,532.466,31.358
		z"/>
	<path fill="#80C7C1" stroke="#FFFFFF" stroke-width="0.5" stroke-miterlimit="10" d="M64.778,33.974
		c0.015,9.033-5.675,17.367-14.095,20.645c-8.52,3.316-18.459,0.912-24.538-5.906c-6.084-6.825-7.321-17.005-3.024-25.083
		c4.271-8.031,13.263-12.692,22.287-11.576C56.33,13.403,64.767,22.979,64.778,33.974C64.797,46.188,64.765,21.754,64.778,33.974z"
		/>
	<path fill="#80C7C1" stroke="#FFFFFF" stroke-width="0.5" stroke-miterlimit="10" d="M57.25,26.231
		c0.008,4.513-3.328,8.507-7.775,9.292c-4.468,0.788-8.981-1.82-10.518-6.091c-1.54-4.281,0.293-9.177,4.254-11.405
		c3.968-2.231,9.112-1.228,11.963,2.314C56.512,22.002,57.25,24.098,57.25,26.231C57.26,31.432,57.248,21.026,57.25,26.231z"/>
	<path fill="#80C7C1" stroke="#FFFFFF" stroke-width="0.5" stroke-miterlimit="10" d="M53.948,20.58
		c0,2.313-1.928,4.244-4.241,4.248c-2.309,0-4.241-1.925-4.243-4.235c-0.004-2.312,1.921-4.244,4.233-4.247
		C52.009,16.343,53.945,18.267,53.948,20.58C53.948,22.922,53.945,18.235,53.948,20.58z"/>
	<path fill="#28316D" stroke="#FFFFFF" stroke-width="0.5" stroke-miterlimit="10" d="M472.416,473.806
		c0.015,9.035-5.669,17.372-14.091,20.652c-8.521,3.318-18.458,0.913-24.536-5.907c-6.082-6.825-7.319-17.006-3.023-25.083
		c4.271-8.027,13.26-12.694,22.282-11.578C463.966,453.241,472.405,462.813,472.416,473.806
		C472.437,486.026,472.403,461.596,472.416,473.806z"/>
	<path fill="#80C7C1" stroke="#FFFFFF" stroke-width="0.5" stroke-miterlimit="10" d="M464.89,466.063
		c0.01,4.517-3.323,8.511-7.773,9.295c-4.468,0.786-8.982-1.816-10.518-6.09c-1.537-4.282,0.293-9.179,4.254-11.408
		c3.968-2.233,9.112-1.229,11.962,2.313C464.152,461.835,464.888,463.931,464.89,466.063
		C464.9,471.27,464.886,460.86,464.89,466.063z"/>
	<path fill="#80C7C1" stroke="#FFFFFF" stroke-width="0.5" stroke-miterlimit="10" d="M475.831,565.329
		c0,2.346-1.893,4.243-4.235,4.245c-2.344,0.005-4.243-1.893-4.246-4.232c-0.002-2.344,1.89-4.244,4.234-4.248
		C473.926,561.09,475.827,562.986,475.831,565.329z"/>
	<path fill="#28316D" stroke="#FFFFFF" stroke-width="0.5" stroke-miterlimit="10" d="M926.726,230.124
		c0.024,18.389-2.23,36.773-6.767,54.598c-4.386,17.236-10.894,33.927-19.32,49.589c-8.304,15.432-18.463,29.855-30.181,42.885
		c-11.689,12.997-24.926,24.6-39.347,34.479c-14.552,9.97-30.302,18.181-46.816,24.377c-16.923,6.353-34.63,10.578-52.594,12.576
		c-18.474,2.056-37.212,1.783-55.615-0.823c-17.82-2.523-35.317-7.257-51.978-14.067c-16.297-6.664-31.775-15.308-46.012-25.666
		c-14.131-10.283-27.029-22.25-38.345-35.568c-11.358-13.369-21.115-28.094-28.979-43.774c-8-15.949-14.033-32.876-17.917-50.29
		c-4.024-18.039-5.736-36.581-5.156-55.052c0.574-18.276,3.417-36.474,8.494-54.042c4.924-17.04,11.938-33.466,20.829-48.814
		c8.773-15.149,19.365-29.239,31.468-41.889c12.091-12.637,25.686-23.831,40.414-33.263c14.887-9.534,30.925-17.259,47.666-22.939
		c17.196-5.835,35.118-9.5,53.222-10.916c18.503-1.448,37.192-0.582,55.475,2.618c17.658,3.09,34.927,8.365,51.297,15.672
		c16.05,7.164,31.225,16.271,45.108,27.048c13.804,10.714,26.326,23.071,37.224,36.73c10.955,13.732,20.262,28.775,27.639,44.718
		c7.519,16.249,13.023,33.42,16.354,51.012C925.433,202.764,926.708,216.442,926.726,230.124
		C926.888,351.389,926.569,108.861,926.726,230.124z"/>
	<path fill="#5CBCB5" stroke="#FFFFFF" stroke-width="0.5" stroke-miterlimit="10" d="M696.368,157.949
		c0.45,9.49-8.387,17.115-17.712,15.294c-9.269-1.81-14.588-12.159-10.661-20.752c2.829-6.188,9.712-9.723,16.392-8.418
		C691.021,145.368,696.042,151.204,696.368,157.949C696.757,166.146,695.972,149.749,696.368,157.949z"/>
	<path fill="#5CBCB5" stroke="#FFFFFF" stroke-width="0.5" stroke-miterlimit="10" d="M857.515,192.776
		c0.868,18.094-9.746,35.321-26.309,42.672c-16.758,7.437-36.893,3.544-49.7-9.547c-12.817-13.103-16.245-33.382-8.394-49.96
		c7.806-16.478,25.382-26.665,43.56-25.267c17.964,1.382,33.718,14.025,38.969,31.26
		C856.713,185.452,857.339,189.103,857.515,192.776C858.688,217.243,856.347,168.312,857.515,192.776z"/>
	<path fill="#5CBCB5" stroke="#FFFFFF" stroke-width="0.5" stroke-miterlimit="10" d="M788.384,87.814
		c0.437,9.066-5.289,17.592-13.856,20.604c-8.647,3.04-18.514-0.101-23.832-7.554c-5.334-7.472-5.036-17.879,0.697-25.042
		c5.729-7.156,15.798-9.743,24.261-6.193C782.976,72.701,788.006,79.882,788.384,87.814
		C788.935,99.278,787.837,76.347,788.384,87.814z"/>
	<path fill="#EBA3C7" stroke="#FFFFFF" stroke-width="0.5" stroke-miterlimit="10" d="M1072.372,289.835
		c1.476,18.142-1.358,36.539-8.313,53.365c-6.716,16.25-17.177,30.892-30.351,42.535c-13.37,11.814-29.455,20.446-46.707,25.012
		c-17.843,4.721-36.8,5.127-54.816,1.108c-17.27-3.853-33.561-11.746-47.323-22.859c-13.729-11.085-24.862-25.302-32.276-41.317
		c-7.737-16.718-11.34-35.262-10.536-53.66c0.782-17.916,5.815-35.556,14.588-51.194c8.598-15.325,20.698-28.628,35.151-38.623
		c14.869-10.283,32.116-16.943,50.03-19.36c18.152-2.449,36.804-0.581,54.072,5.547c16.591,5.887,31.753,15.615,44.054,28.206
		c12.418,12.711,21.828,28.268,27.268,45.189C1069.927,272.229,1071.652,280.99,1072.372,289.835
		C1077.54,353.358,1067.2,226.308,1072.372,289.835z"/>
	<path fill="#28316D" stroke="#FFFFFF" stroke-width="0.5" stroke-miterlimit="10" d="M1055.236,257.644
		c0.008,9.433-9.212,16.521-18.33,14.088c-9.057-2.418-13.539-13.103-8.906-21.257c3.238-5.703,10.101-8.583,16.441-6.889
		C1050.734,245.265,1055.228,251.136,1055.236,257.644C1055.243,265.687,1055.224,249.593,1055.236,257.644z"/>
	<path fill="#28316D" stroke="#FFFFFF" stroke-width="0.5" stroke-miterlimit="10" d="M1014.85,223.679
		c-0.346,9.167-7.836,16.81-17.005,17.303c-9.171,0.494-17.486-6.25-18.817-15.354c-1.332-9.101,4.649-17.994,13.601-20.147
		c8.956-2.154,18.352,3.037,21.295,11.762C1014.62,219.309,1014.932,221.499,1014.85,223.679
		C1014.475,233.615,1015.224,213.736,1014.85,223.679z"/>
	<path fill="#99CFCA" stroke="#FFFFFF" stroke-width="0.5" stroke-miterlimit="10" d="M862.938,424.961
		c0.022,18.001-6.927,35.583-19.26,48.696c-12.253,13.029-29.261,21.07-47.115,22.211c-18.065,1.151-36.153-4.726-50.05-16.334
		c-13.654-11.408-22.691-27.825-24.925-45.486c-2.28-18.03,2.503-36.549,13.318-51.163c10.542-14.244,26.33-24.229,43.749-27.539
		c17.9-3.399,36.776,0.277,52.043,10.236c14.797,9.653,25.687,24.779,30.048,41.909C862.199,413.195,862.93,419.076,862.938,424.961
		C862.989,464.15,862.886,385.771,862.938,424.961z"/>
	<path fill="#5CBCB5" stroke="#FFFFFF" stroke-width="0.5" stroke-miterlimit="10" d="M863.863,364.332
		c0.44,9.247-7.082,17.236-16.334,17.375c-9.257,0.139-16.983-7.66-16.813-16.905c0.162-8.83,7.53-16.125,16.348-16.257
		C855.887,348.412,863.438,355.523,863.863,364.332C864.3,373.481,863.421,355.186,863.863,364.332z"/>
	<path fill="#76C4BC" stroke="#FFFFFF" stroke-width="0.5" stroke-miterlimit="10" d="M563.792,317.154
		c0.86,17.979-7.986,35.462-22.964,45.443c-15.187,10.12-35.201,11.389-51.542,3.26c-16.077-7.997-27.063-24.191-28.499-42.095
		c-1.447-18.047,6.914-35.883,21.699-46.328c14.932-10.551,34.94-12.354,51.516-4.629c16.242,7.567,27.642,23.449,29.551,41.272
		C563.663,315.102,563.742,316.127,563.792,317.154C565.153,345.621,562.427,288.677,563.792,317.154z"/>
	<path fill="#28316D" stroke="#FFFFFF" stroke-width="0.5" stroke-miterlimit="10" d="M487.304,117.665
		c0.521,18.116-3.625,36.241-12.043,52.296c-8.143,15.528-20.148,28.951-34.669,38.779c-14.901,10.086-32.309,16.241-50.236,17.787
		c-18.175,1.567-36.643-1.555-53.246-9.128c-15.963-7.281-30.023-18.551-40.632-32.523c-10.813-14.242-17.909-31.167-20.461-48.868
		c-2.614-18.134-0.522-36.866,6.15-53.936c6.396-16.363,16.901-31.032,30.295-42.396c13.564-11.51,29.981-19.51,47.417-23.049
		c18.003-3.654,36.91-2.593,54.369,3.135c16.726,5.488,31.972,15.198,44.067,27.983c12.173,12.868,21.041,28.747,25.543,45.882
		C485.921,101.473,487.071,109.555,487.304,117.665C488.986,176.301,485.618,59.025,487.304,117.665z"/>
	<path fill="#28316D" stroke="#FFFFFF" stroke-width="0.5" stroke-miterlimit="10" d="M344.831,80.433
		c0.34,4.479-1.845,8.882-5.61,11.33c-3.816,2.481-8.839,2.645-12.809,0.419c-3.94-2.209-6.406-6.489-6.344-11.005
		c0.061-4.464,2.621-8.645,6.554-10.75C334.395,66.265,344.17,71.658,344.831,80.433C345.349,87.261,344.317,73.602,344.831,80.433z
		"/>
	<path fill="#DE75AA" stroke="#FFFFFF" stroke-width="0.5" stroke-miterlimit="10" d="M1311.085,120.578
		c0.023,18.08-4.825,36.021-14.027,51.59c-8.91,15.076-21.738,27.743-36.93,36.457c-15.722,9.018-33.764,13.624-51.879,13.352
		c-18.04-0.271-35.862-5.405-51.253-14.827c-14.937-9.145-27.404-22.168-35.879-37.495c-8.787-15.89-13.108-34.045-12.537-52.188
		c0.566-17.997,5.985-35.696,15.627-50.905c9.377-14.793,22.593-27.061,38.051-35.296c16.053-8.552,34.312-12.586,52.471-11.717
		c17.951,0.858,35.527,6.557,50.556,16.415c14.646,9.608,26.711,23.014,34.703,38.604
		C1307.266,88.763,1311.063,104.626,1311.085,120.578C1311.158,176.513,1311.013,64.643,1311.085,120.578z"/>
	<path fill="#5CBCB5" stroke="#FFFFFF" stroke-width="0.5" stroke-miterlimit="10" d="M1261.049,77.425
		c0.216,4.465-2.192,8.764-6.105,10.922c-3.969,2.188-8.982,1.871-12.646-0.791c-3.656-2.656-5.502-7.281-4.681-11.726
		c0.805-4.358,4.106-7.993,8.369-9.211C1253.207,64.556,1260.691,69.923,1261.049,77.425
		C1261.363,83.943,1260.738,70.901,1261.049,77.425z"/>
	<g>
		<path fill="#5CBCB5" stroke="#FFFFFF" stroke-width="0.5" stroke-miterlimit="10" d="M1254.595,426.391
			c0.022,18.003-8.615,35.276-23.011,46.083c-14.591,10.954-34.01,14.318-51.445,8.937c-16.942-5.229-30.831-18.402-36.97-35.035
			c-6.321-17.126-3.994-36.743,6.18-51.899c9.984-14.875,26.705-24.431,44.603-25.401c18.051-0.98,35.813,6.761,47.376,20.66
			C1249.853,399.982,1254.576,413.061,1254.595,426.391C1254.634,458.138,1254.552,394.646,1254.595,426.391z"/>
		<path fill="#B5DCDA" stroke="#FFFFFF" stroke-width="0.5" stroke-miterlimit="10" d="M1219.348,385.237
			c-0.011,4.57-3.403,8.599-7.913,9.369c-4.527,0.772-9.087-1.879-10.621-6.213c-1.537-4.34,0.339-9.293,4.355-11.531
			c4.027-2.243,9.234-1.2,12.104,2.397C1218.619,380.951,1219.356,383.077,1219.348,385.237
			C1219.335,390.509,1219.368,379.966,1219.348,385.237z"/>
	</g>
	<g>
		<path fill="#B5DCDA" stroke="#FFFFFF" stroke-width="0.5" stroke-miterlimit="10" d="M1356.893,151.542
			c-0.671,17.986-9.89,34.928-24.605,45.285c-14.916,10.498-34.382,13.34-51.689,7.58c-16.819-5.599-30.445-19.002-36.354-35.713
			c-6.086-17.215-3.558-36.807,6.713-51.901c10.044-14.763,26.719-24.279,44.555-25.314c18.097-1.05,35.952,6.58,47.676,20.408
			C1352.501,122.873,1357.43,137.148,1356.893,151.542C1355.699,183.544,1358.086,119.53,1356.893,151.542z"/>
		<path fill="#5CBCB5" stroke="#FFFFFF" stroke-width="0.5" stroke-miterlimit="10" d="M1344.828,129.831
			c-0.236,9.004-4.401,17.612-11.308,23.394c-6.973,5.838-16.291,8.398-25.271,6.97c-8.803-1.4-16.739-6.609-21.568-14.095
			c-4.941-7.659-6.315-17.301-3.743-26.044c2.488-8.453,8.571-15.616,16.489-19.474c8.192-3.993,17.968-4.216,26.334-0.604
			C1337.496,105.045,1345.163,117.058,1344.828,129.831C1344.371,147.269,1345.285,112.39,1344.828,129.831z"/>
	</g>
	<path fill="#B5DCDA" stroke="#FFFFFF" stroke-width="0.5" stroke-miterlimit="10" d="M1339.208,289.54
		c0.024,18.106-4.656,36.09-13.58,51.85c-8.634,15.248-21.094,28.246-35.958,37.523c-15.282,9.537-32.944,14.995-50.938,15.776
		c-18.181,0.79-36.443-3.149-52.634-11.474c-15.589-8.015-29.073-19.953-38.94-34.438c-10.092-14.814-16.26-32.15-17.79-50.011
		c-1.561-18.197,1.635-36.702,9.325-53.276c7.382-15.911,18.782-29.869,32.871-40.313c14.338-10.628,31.331-17.486,49.035-19.755
		c18.168-2.328,36.868,0.114,53.789,7.143c16.216,6.736,30.633,17.583,41.641,31.26c11.147,13.852,18.678,30.487,21.674,48.017
		C1338.699,277.687,1339.2,283.612,1339.208,289.54C1339.285,347.588,1339.132,231.486,1339.208,289.54z"/>
	<path fill="#5CBCB5" stroke="#FFFFFF" stroke-width="0.5" stroke-miterlimit="10" d="M1287.976,315.992
		c0.023,17.998-9.209,35.138-24.229,45.05c-15.23,10.05-35.093,11.639-51.73,4.136c-16.229-7.317-28.076-22.632-31.001-40.202
		c-2.984-17.928,3.437-36.511,16.877-48.744c13.475-12.264,32.712-16.905,50.308-12.155c17.149,4.63,31.238,17.876,36.938,34.698
		C1287.016,304.311,1287.968,310.147,1287.976,315.992C1288.014,345.733,1287.937,286.254,1287.976,315.992z"/>
	<path fill="#2A9A83" stroke="#FFFFFF" stroke-width="0.5" stroke-miterlimit="10" d="M523.11,281.159
		c0.2,3.707-2.644,7.016-6.345,7.355c-3.804,0.348-7.28-2.515-7.632-6.326c-0.359-3.907,2.676-7.438,6.598-7.652
		C519.547,274.331,522.902,277.344,523.11,281.159C523.32,285.024,522.9,277.295,523.11,281.159z"/>
	<path fill="#D3E9E9" stroke="#FFFFFF" stroke-width="0.5" stroke-miterlimit="10" d="M491.292,243.195
		c0.024,18.213-3.441,36.387-10.254,53.283c-6.569,16.291-16.196,31.314-28.218,44.12c-11.995,12.776-26.343,23.314-42.14,30.904
		c-16.27,7.817-34.008,12.453-52.018,13.634c-18.32,1.201-36.843-1.119-54.269-6.909c-16.725-5.557-32.362-14.271-45.915-25.531
		c-13.459-11.184-24.831-24.844-33.367-40.119c-8.736-15.634-14.451-32.905-16.765-50.664c-2.382-18.285-1.213-37.028,3.491-54.86
		c4.513-17.112,12.275-33.326,22.739-47.596c10.34-14.101,23.279-26.269,37.994-35.717c14.973-9.614,31.741-16.365,49.205-19.783
		c18.123-3.547,36.944-3.537,55.063,0.033c17.453,3.439,34.208,10.208,49.165,19.833c14.704,9.463,27.63,21.644,37.955,35.755
		c10.452,14.285,18.197,30.513,22.689,47.635C489.727,218.945,491.276,231.067,491.292,243.195
		C491.398,321.651,491.191,164.729,491.292,243.195z"/>
	<path fill="#5CBCB5" stroke="#FFFFFF" stroke-width="0.5" stroke-miterlimit="10" d="M360.46,138.173
		c0.484,8.973-3.859,17.729-11.289,22.782c-7.532,5.123-17.508,5.863-25.715,1.91c-8.068-3.886-13.663-11.881-14.522-20.798
		c-0.865-8.973,3.105-17.917,10.347-23.289c7.316-5.427,17.244-6.578,25.607-2.962c8.197,3.544,14.118,11.287,15.357,20.134
		C360.349,136.688,360.42,137.43,360.46,138.173C361.23,152.431,359.691,123.912,360.46,138.173z"/>
	<path fill="#28316D" stroke="#FFFFFF" stroke-width="0.5" stroke-miterlimit="10" d="M1074.938,391.442
		c0.023,18.116-4.503,36.124-13.168,52.04c-8.378,15.386-20.493,28.661-35.041,38.422c-14.875,9.979-32.166,16.162-49.998,17.868
		c-18.209,1.74-36.773-1.116-53.569-8.379c-16.108-6.964-30.431-17.871-41.463-31.516c-11.164-13.806-18.856-30.31-22.193-47.752
		c-3.453-18.047-2.281-36.938,3.439-54.402c5.481-16.735,15.098-32.027,27.754-44.271c12.681-12.266,28.319-21.374,45.27-26.282
		c17.662-5.115,36.608-5.646,54.535-1.561c17.267,3.937,33.449,12.172,46.837,23.757c13.284,11.497,23.719,26.193,30.133,42.553
		C1072.401,364.486,1074.921,377.948,1074.938,391.442C1075.018,451.464,1074.858,331.416,1074.938,391.442z"/>
	<path fill="#2A9A83" stroke="#FFFFFF" stroke-width="0.5" stroke-miterlimit="10" d="M1033.285,344.646
		c0.304,9.357-8.207,16.927-17.468,15.537c-9.303-1.395-15.215-11.25-12.066-20.114c2.405-6.776,9.464-11.016,16.575-9.962
		C1027.502,331.169,1033.046,337.401,1033.285,344.646C1033.558,353.04,1033.008,336.257,1033.285,344.646z"/>
	<path fill="#B5DCDA" stroke="#FFFFFF" stroke-width="0.5" stroke-miterlimit="10" d="M228.423,273.911
		c0.003,2.561-2.13,4.701-4.69,4.704c-2.561,0.002-4.7-2.132-4.705-4.691c0-2.559,2.133-4.698,4.692-4.702
		C226.277,269.219,228.419,271.353,228.423,273.911C228.426,276.509,228.419,271.319,228.423,273.911z"/>
	<path fill="#28316D" stroke="#FFFFFF" stroke-width="0.5" stroke-miterlimit="10" d="M300.191,165.227
		c0.024,18.208-3.458,36.376-10.298,53.254c-6.597,16.275-16.262,31.27-28.326,44.029c-12.039,12.733-26.435,23.208-42.271,30.712
		c-16.323,7.734-34.106,12.257-52.136,13.305c-18.308,1.063-36.79-1.406-54.144-7.35c-16.66-5.705-32.2-14.568-45.622-25.965
		c-13.339-11.326-24.555-25.12-32.898-40.503c-8.551-15.765-14.032-33.142-16.083-50.959c-2.106-18.298-0.651-36.998,4.342-54.73
		c4.789-17.01,12.819-33.066,23.518-47.127C56.86,65.977,70.024,54.051,84.92,44.896c15.188-9.334,32.128-15.74,49.696-18.773
		c18.188-3.139,36.996-2.706,55.015,1.297c17.324,3.849,33.868,11.013,48.545,20.985c14.459,9.823,27.067,22.329,37.009,36.707
		c10.087,14.589,17.386,31.065,21.379,48.348C298.97,143.867,300.177,154.545,300.191,165.227
		C300.296,243.295,300.089,87.154,300.191,165.227z"/>
	<path fill="#5CBCB5" stroke="#FFFFFF" stroke-width="0.5" stroke-miterlimit="10" d="M207.441,126.585
		c0.009,4.561-3.563,8.5-8.107,8.924c-4.545,0.424-8.806-2.769-9.644-7.263s1.964-9.025,6.367-10.266
		c4.405-1.242,9.17,1.15,10.8,5.426C207.243,124.42,207.44,125.501,207.441,126.585C207.452,131.532,207.435,121.64,207.441,126.585
		z"/>
	<path fill="#5CBCB5" stroke="#FFFFFF" stroke-width="0.5" stroke-miterlimit="10" d="M263.228,95.075
		c0.013,9.202-7.577,16.941-16.778,17.103c-9.199,0.161-17.067-7.298-17.375-16.499c-0.308-9.194,7.015-17.191,16.213-17.648
		c9.188-0.456,17.301,6.743,17.903,15.932C263.215,94.333,263.227,94.704,263.228,95.075
		C263.241,104.51,263.215,85.64,263.228,95.075z"/>
	<path fill="#5CBCB5" stroke="#FFFFFF" stroke-width="0.5" stroke-miterlimit="10" d="M139.587,114.592
		c0.003,2.247-1.87,4.128-4.117,4.131c-2.245,0-4.127-1.871-4.127-4.118c-0.004-2.248,1.869-4.126,4.117-4.13
		C137.706,110.471,139.587,112.345,139.587,114.592C139.59,116.869,139.587,112.315,139.587,114.592z"/>
	<path fill="#5CBCB5" stroke="#FFFFFF" stroke-width="0.5" stroke-miterlimit="10" d="M94.323,75.413
		c0.002,3.207-2.676,5.886-5.881,5.893c-3.207,0.004-5.887-2.671-5.893-5.877c-0.003-3.207,2.669-5.89,5.877-5.893
		C91.635,69.528,94.319,72.203,94.323,75.413C94.326,78.66,94.319,72.161,94.323,75.413z"/>
	<path fill="#5CBCB5" stroke="#FFFFFF" stroke-width="0.5" stroke-miterlimit="10" d="M113.326,255.638
		c0.003,3.209-2.672,5.891-5.88,5.896c-3.207,0.003-5.89-2.671-5.894-5.878c-0.003-3.208,2.671-5.891,5.88-5.894
		C110.64,249.758,113.319,252.431,113.326,255.638C113.329,258.89,113.319,252.388,113.326,255.638z"/>
	<path fill="#5CBCB5" stroke="#FFFFFF" stroke-width="0.5" stroke-miterlimit="10" d="M198.725,158.052
		c0.009,9.021-5.966,17.254-14.555,20.029c-8.676,2.803-18.411-0.462-23.659-7.908c-5.258-7.459-5.011-17.785,0.588-24.988
		c5.593-7.195,15.486-10,24.021-6.78C193.211,141.458,198.71,149.409,198.725,158.052
		C198.737,169.657,198.705,146.44,198.725,158.052z"/>
	<path fill="#5CBCB5" stroke="#FFFFFF" stroke-width="0.5" stroke-miterlimit="10" d="M192.635,91.434
		c0.003,2.465-2.055,4.531-4.521,4.531c-2.466,0.003-4.524-2.054-4.531-4.519c-0.003-2.467,2.054-4.532,4.521-4.535
		C190.568,86.909,192.633,88.97,192.635,91.434C192.639,93.934,192.633,88.938,192.635,91.434z"/>
	<path fill="#5CBCB5" stroke="#FFFFFF" stroke-width="0.5" stroke-miterlimit="10" d="M241.792,25.75
		c0.006,4.492-3.739,8.249-8.232,8.251c-4.493,0.01-8.248-3.736-8.254-8.228c-0.003-4.491,3.738-8.249,8.231-8.255
		C238.031,17.511,241.789,21.254,241.792,25.75C241.798,30.301,241.789,21.196,241.792,25.75z"/>
	<path fill="#EBA3C7" stroke="#FFFFFF" stroke-width="0.5" stroke-miterlimit="10" d="M459.891,368.383
		c1.478,18.144-1.356,36.54-8.312,53.366c-6.717,16.251-17.178,30.892-30.354,42.534c-13.371,11.815-29.457,20.447-46.708,25.012
		c-17.842,4.72-36.799,5.125-54.815,1.106c-17.269-3.853-33.559-11.746-47.322-22.858c-13.728-11.085-24.862-25.302-32.275-41.316
		c-7.738-16.717-11.341-35.262-10.538-53.659c0.782-17.916,5.815-35.557,14.589-51.195c8.597-15.326,20.698-28.629,35.151-38.624
		c14.87-10.282,32.115-16.943,50.029-19.361c18.152-2.45,36.805-0.579,54.073,5.55c16.591,5.888,31.754,15.614,44.055,28.207
		c12.417,12.71,21.83,28.268,27.269,45.188C457.446,350.778,459.171,359.539,459.891,368.383
		C465.063,431.909,454.722,304.856,459.891,368.383z"/>
	<path fill="#5CBCB5" stroke="#FFFFFF" stroke-width="0.5" stroke-miterlimit="10" d="M442.75,336.19
		c0.011,9.431-9.213,16.523-18.329,14.089c-9.056-2.42-13.536-13.103-8.904-21.258c3.239-5.703,10.099-8.582,16.44-6.892
		C438.251,323.811,442.743,329.684,442.75,336.19C442.76,344.23,442.741,328.14,442.75,336.19z"/>
	<path fill="#5CBCB5" stroke="#FFFFFF" stroke-width="0.5" stroke-miterlimit="10" d="M457.329,368.861
		c0.717,9.407-7.958,17.162-17.231,15.411c-9.208-1.739-14.475-12.057-10.462-20.533c2.807-5.93,9.436-9.308,15.883-8.095
		C451.919,356.85,456.837,362.374,457.329,368.861C457.94,376.881,456.721,360.837,457.329,368.861z"/>
	<path fill="#5CBCB5" stroke="#FFFFFF" stroke-width="0.5" stroke-miterlimit="10" d="M402.368,302.224
		c-0.346,9.171-7.837,16.811-17.007,17.309c-9.169,0.497-17.486-6.256-18.817-15.355c-1.332-9.103,4.65-17.996,13.604-20.148
		c8.956-2.151,18.352,3.035,21.296,11.762C402.139,297.855,402.451,300.045,402.368,302.224
		C401.993,312.163,402.746,292.284,402.368,302.224z"/>
	<path fill="#5CBCB5" stroke="#FFFFFF" stroke-width="0.5" stroke-miterlimit="10" d="M189.365,402.064
		c0,2.312-1.923,4.242-4.236,4.245c-2.312,0.003-4.245-1.924-4.248-4.235c-0.002-2.311,1.924-4.241,4.234-4.243
		C187.43,397.826,189.358,399.751,189.365,402.064C189.365,404.408,189.358,399.722,189.365,402.064z"/>
	<path fill="#5CBCB5" stroke="#FFFFFF" stroke-width="0.5" stroke-miterlimit="10" d="M1187.213,150.358
		c0.024,18.214-3.442,36.388-10.255,53.284c-6.569,16.292-16.195,31.315-28.218,44.122c-11.995,12.776-26.343,23.314-42.14,30.905
		c-16.27,7.816-34.008,12.454-52.018,13.637c-18.319,1.202-36.842-1.119-54.268-6.91c-16.726-5.557-32.36-14.271-45.913-25.531
		c-13.458-11.184-24.83-24.844-33.365-40.12c-8.736-15.634-14.451-32.906-16.767-50.666c-2.382-18.285-1.215-37.028,3.488-54.861
		c4.514-17.112,12.274-33.326,22.738-47.596c10.339-14.102,23.277-26.269,37.993-35.717c14.973-9.614,31.741-16.365,49.205-19.783
		c18.123-3.547,36.943-3.537,55.063,0.032c17.454,3.438,34.208,10.207,49.165,19.833c14.704,9.463,27.63,21.644,37.954,35.755
		c10.451,14.285,18.196,30.512,22.688,47.634C1185.647,126.108,1187.197,138.229,1187.213,150.358
		C1187.316,228.819,1187.111,71.894,1187.213,150.358z"/>
	<path fill="#2A9A83" stroke="#FFFFFF" stroke-width="0.5" stroke-miterlimit="10" d="M1117.029,89.823
		c0.439,9.25-7.085,17.232-16.336,17.371c-9.255,0.139-16.981-7.66-16.814-16.902c0.159-8.829,7.532-16.13,16.351-16.261
		C1109.056,73.899,1116.604,81.012,1117.029,89.823C1117.465,98.968,1116.587,80.669,1117.029,89.823z"/>
	<path fill="#B5DCDA" stroke="#FFFFFF" stroke-width="0.5" stroke-miterlimit="10" d="M916.118,73.976
		c0.025,18.131-12.137,34.628-29.484,39.932c-17.511,5.355-36.943-1.663-47.027-16.929c-10.109-15.303-8.816-36.045,3.08-49.992
		c11.887-13.933,32.104-18.525,48.825-11C906.318,42.649,916.096,57.741,916.118,73.976
		C916.15,97.002,916.086,50.948,916.118,73.976z"/>
	<path fill="#80C7C1" stroke="#FFFFFF" stroke-width="0.5" stroke-miterlimit="10" d="M873.988,48.248
		c0.008,4.523-3.093,8.616-7.456,9.822c-4.396,1.215-9.188-0.728-11.497-4.659c-2.315-3.941-1.65-9.099,1.575-12.332
		c3.226-3.235,8.379-3.914,12.326-1.608C872.032,41.278,873.984,44.663,873.988,48.248C873.998,53.87,873.981,42.629,873.988,48.248
		z"/>
</g>
<g id="Layer_2">
	<path fill="#FFFFFF" d="M473.771,376.583l-93.592-232.295l51.257-0.068l46.003,116.149l44.422-114.042l2.228-0.004l44.727,113.927
		l45.692-116.271l51.26-0.066L573.106,375.5l-8.279,0.012l-41.84-100.876l-41.256,101.937L473.771,376.583z M744.078,135.527
		l4.777-0.004l96.146,235.795l-51.261,0.069l-9.266-24.503l-75.457,0.099l-8.882,24.527l-51.578,0.068L744.078,135.527z
		 M767.544,304.241l-20.776-59.192l-21.25,59.248L767.544,304.241z M990.18,371.128l-45.965-86.863l-21.966,0.031l0.115,86.919
		l-45.531,0.06l-0.3-227.643l89.783-0.118c81.188-0.106,89.302,114.182,22.466,133.691l52.974,93.854L990.18,371.128z
		 M922.191,240.042l40.118-0.053c30.882-0.04,30.813-50.981-0.068-50.941l-40.117,0.053L922.191,240.042z"/>
</g>
<g id="Layer_3">
	<path fill="#D9ECEC" stroke="#FFFFFF" stroke-width="0.5" stroke-miterlimit="10" d="M1212.248,390.449
		c0.862,18.013-4.193,36.041-14.338,50.954c-9.91,14.57-24.396,25.836-40.996,31.769c-17.242,6.163-36.422,6.478-53.849,0.852
		c-16.737-5.403-31.555-16.169-41.915-30.375c-10.699-14.67-16.327-32.676-15.993-50.822c0.33-17.903,6.531-35.443,17.505-49.592
		c10.832-13.968,26.043-24.319,43.045-29.179c17.591-5.026,36.701-4.128,53.719,2.599c16.339,6.457,30.443,18.114,39.882,32.931
		C1207.091,361.803,1211.557,375.982,1212.248,390.449C1214.455,436.563,1210.045,344.325,1212.248,390.449z"/>
	<path fill="#B5DCDA" stroke="#FFFFFF" stroke-width="0.5" stroke-miterlimit="10" d="M1134.754,363.06
		c0.462,9.569-9.044,16.917-18.192,14.043c-9.069-2.849-12.723-14.18-7.008-21.783c3.528-4.694,9.797-6.723,15.405-4.96
		C1130.503,352.101,1134.479,357.255,1134.754,363.06C1135.127,370.79,1134.389,355.331,1134.754,363.06z"/>
	<path fill="#80C7C1" stroke="#FFFFFF" stroke-width="0.5" stroke-miterlimit="10" d="M387.827,85.073
		c0.863,18.026-4.548,36.037-15.235,50.582c-10.488,14.274-25.712,24.807-42.803,29.488c-17.647,4.834-36.792,3.382-53.473-4.148
		c-16.044-7.243-29.444-19.873-37.614-35.466c-8.5-16.223-11.083-35.291-7.271-53.201c3.683-17.298,13.291-33.087,26.893-44.38
		c13.943-11.577,31.692-18.038,49.81-18.204c17.972-0.164,35.693,5.922,49.779,17.082c13.916,11.024,23.895,26.659,27.929,43.956
		C386.937,75.472,387.598,80.262,387.827,85.073C389.917,128.709,385.748,41.429,387.827,85.073z"/>
	<path fill="#5CBCB5" stroke="#FFFFFF" stroke-width="0.5" stroke-miterlimit="10" d="M314.5,59.161
		c0.464,9.587-9.583,16.602-18.427,12.838c-4.095-1.743-7.113-5.531-7.877-9.917c-0.777-4.458,0.818-9.094,4.174-12.129
		c3.788-3.426,9.373-4.369,14.074-2.366C311.081,49.563,314.261,54.125,314.5,59.161C314.854,66.47,314.153,51.847,314.5,59.161z"/>
	<path fill="#B5DCDA" stroke="#FFFFFF" stroke-width="0.5" stroke-miterlimit="10" d="M302.41,349.261
		c0.024,18.173-3.935,36.279-11.627,52.748c-7.423,15.893-18.236,30.148-31.509,41.611c-13.363,11.541-29.165,20.191-46.107,25.177
		c-17.671,5.198-36.488,6.388-54.681,3.522c-17.618-2.774-34.56-9.399-49.4-19.289c-14.567-9.708-27.039-22.491-36.382-37.295
		c-9.546-15.124-15.748-32.28-18.068-50.016c-2.386-18.239-0.727-36.983,4.917-54.496c5.408-16.781,14.438-32.334,26.285-45.388
		c11.796-12.998,26.328-23.464,42.416-30.488c16.724-7.302,35.003-10.796,53.239-10.293c18.093,0.5,36.003,4.966,52.186,13.08
		c15.668,7.855,29.614,19.046,40.703,32.617c11.193,13.698,19.415,29.764,23.925,46.872
		C301.027,327.938,302.396,338.597,302.41,349.261C302.5,417.971,302.316,280.548,302.41,349.261z"/>
	<path fill="#5CBCB5" stroke="#FFFFFF" stroke-width="0.5" stroke-miterlimit="10" d="M244.359,290.408
		c0.013,8.992-3.906,17.695-10.639,23.654c-6.799,6.02-16.03,8.823-25.032,7.648c-8.823-1.152-16.887-6.13-21.915-13.464
		c-5.155-7.521-6.789-17.121-4.446-25.93c2.273-8.551,8.208-15.896,16.072-19.945c8.116-4.18,17.899-4.6,26.348-1.143
		C236.476,266.028,244.345,277.739,244.359,290.408C244.385,307.823,244.34,272.981,244.359,290.408z"/>
	<path fill="#EBA3C7" stroke="#FFFFFF" stroke-width="0.5" stroke-miterlimit="10" d="M532.876,87.109
		c0.518,17.968-7.154,35.527-20.67,47.375c-13.678,11.99-32.416,17.23-50.339,14.137c-17.474-3.015-33.049-13.876-42.002-29.169
		c-9.214-15.74-10.801-35.325-4.256-52.35c6.342-16.497,19.941-29.704,36.63-35.53c17.209-6.007,36.677-3.847,52.13,5.819
		c15.098,9.444,25.503,25.399,27.952,43.049C532.627,82.651,532.812,84.878,532.876,87.109
		C533.84,120.594,531.916,53.625,532.876,87.109z"/>
	<path fill="#80C7C1" stroke="#FFFFFF" stroke-width="0.5" stroke-miterlimit="10" d="M502.214,62.094
		c0.292,3.849-2.68,7.304-6.528,7.596c-3.849,0.29-7.302-2.682-7.592-6.53c-0.29-3.847,2.682-7.301,6.528-7.591
		C498.469,55.276,501.926,58.247,502.214,62.094C502.51,65.995,501.922,58.196,502.214,62.094z"/>
	<path fill="#A6D1CF" stroke="#FFFFFF" stroke-width="0.5" stroke-miterlimit="10" d="M200.201,415.458
		c0.01,9.034-5.678,17.37-14.1,20.647c-8.52,3.315-18.459,0.911-24.536-5.906c-6.082-6.823-7.317-17.008-3.023-25.083
		c4.27-8.028,13.261-12.696,22.283-11.578C191.746,394.891,200.184,404.465,200.201,415.458
		C200.214,427.677,200.182,403.244,200.201,415.458z"/>
	<path fill="#28316D" stroke="#FFFFFF" stroke-width="0.5" stroke-miterlimit="10" d="M1202.785,81.589
		c0.022,18-6.346,35.673-17.871,49.502c-11.332,13.599-27.259,23.064-44.647,26.415c-17.902,3.449-36.791,0.412-52.663-8.569
		c-15.298-8.655-27.406-22.532-33.866-38.881c-6.716-16.997-7.135-36.256-1.182-53.534c5.733-16.637,17.237-31.037,32.155-40.359
		c15.441-9.649,34.11-13.502,52.12-10.871c17.574,2.567,33.944,11.338,45.887,24.474c12.054,13.257,19.197,30.551,19.99,48.453
		C1202.758,79.341,1202.783,80.465,1202.785,81.589C1202.84,124.232,1202.728,38.947,1202.785,81.589z"/>
	<path fill="#5CBCB5" stroke="#FFFFFF" stroke-width="0.5" stroke-miterlimit="10" d="M1164.641,48.691
		c0.216,4.584-3.189,8.716-7.74,9.352c-4.555,0.636-8.984-2.367-10.036-6.853c-1.051-4.481,1.549-9.167,5.921-10.623
		c4.373-1.455,9.276,0.73,11.118,4.954C1164.339,46.522,1164.588,47.601,1164.641,48.691
		C1164.875,53.661,1164.4,43.716,1164.641,48.691z"/>
	<path fill="#28316D" stroke="#FFFFFF" stroke-width="0.5" stroke-miterlimit="10" d="M632.626,401.953
		c0.024,18.03-5.481,35.849-15.727,50.688c-9.971,14.442-24.189,25.804-40.502,32.284c-17.007,6.756-36.028,8.076-53.817,3.797
		c-17.166-4.13-32.9-13.463-44.82-26.479c-12-13.104-19.914-29.718-22.458-47.309c-2.609-18.053,0.389-36.755,8.624-53.036
		c7.911-15.642,20.462-28.788,35.711-37.428c15.835-8.971,34.287-12.841,52.397-11.122c17.765,1.688,34.808,8.813,48.512,20.238
		c13.523,11.276,23.568,26.52,28.511,43.424C631.421,385.104,632.615,393.525,632.626,401.953
		C632.693,451.174,632.562,352.73,632.626,401.953z"/>
	<path fill="#5CBCB5" stroke="#FFFFFF" stroke-width="0.5" stroke-miterlimit="10" d="M505.098,345.325
		c0.004,3.258-2.717,5.979-5.974,5.983c-3.258,0.005-5.985-2.713-5.988-5.972c-0.004-3.26,2.717-5.978,5.975-5.983
		C502.37,339.349,505.091,342.068,505.098,345.325C505.103,348.624,505.091,342.021,505.098,345.325z"/>
	<path fill="#5CBCB5" stroke="#FFFFFF" stroke-width="0.5" stroke-miterlimit="10" d="M591.045,359.795
		c0.014,9.012-5.529,17.36-13.835,20.856c-8.412,3.541-18.389,1.549-24.81-4.927c-6.422-6.476-8.327-16.473-4.706-24.853
		c3.578-8.28,11.984-13.745,21.004-13.648C580.906,337.356,591.03,347.59,591.045,359.795
		C591.064,372.271,591.029,347.315,591.045,359.795z"/>
</g>
</svg>
