<?xml version="1.0" encoding="utf-8"?>
<!-- Generator: Adobe Illustrator 15.0.0, SVG Export Plug-In . SVG Version: 6.00 Build 0)  -->
<!DOCTYPE svg PUBLIC "-//W3C//DTD SVG 1.1//EN" "http://www.w3.org/Graphics/SVG/1.1/DTD/svg11.dtd">
<svg version="1.1" id="Layer_1" xmlns="http://www.w3.org/2000/svg" xmlns:xlink="http://www.w3.org/1999/xlink" x="0px" y="0px"
	 width="1400px" height="503.572px" viewBox="0 0 1400 503.572" enable-background="new 0 0 1400 503.572" xml:space="preserve">
<path fill="#B5DCDA" d="M629.673,136.888c0.014,11.365-7.609,21.706-18.482,25.033c-10.978,3.358-23.158-1.044-29.478-10.614
	c-6.333-9.591-5.525-22.595,1.93-31.337c7.449-8.734,20.125-11.611,30.607-6.895C623.533,117.25,629.661,126.711,629.673,136.888
	C629.692,151.32,629.656,122.452,629.673,136.888z"/>
<path fill="#80C7C1" d="M603.264,120.762c0.005,2.834-1.939,5.401-4.673,6.156c-2.756,0.761-5.759-0.457-7.208-2.921
	c-1.453-2.472-1.034-5.704,0.987-7.731c2.025-2.027,5.253-2.452,7.729-1.006C602.041,116.393,603.263,118.515,603.264,120.762
	C603.27,124.283,603.262,117.239,603.264,120.762z"/>
<path fill="#80C7C1" d="M310.095,122.402c0.009,5.662-3.558,10.887-8.835,12.941c-5.341,2.078-11.571,0.572-15.382-3.702
	c-3.814-4.278-4.589-10.66-1.896-15.724c2.677-5.034,8.314-7.956,13.971-7.256C304.8,109.507,310.088,115.51,310.095,122.402
	C310.106,130.059,310.087,114.742,310.095,122.402z"/>
<path fill="#80C7C1" d="M305.376,117.549c0.005,2.829-2.086,5.333-4.874,5.824c-2.802,0.494-5.63-1.141-6.594-3.818
	c-0.965-2.683,0.184-5.752,2.667-7.149c2.487-1.399,5.712-0.77,7.5,1.45C304.914,114.898,305.376,116.211,305.376,117.549
	C305.382,120.81,305.375,114.286,305.376,117.549z"/>
<path fill="#80C7C1" d="M303.307,114.006c0,1.45-1.208,2.661-2.659,2.663c-1.448,0-2.659-1.207-2.66-2.655
	c-0.002-1.449,1.204-2.66,2.653-2.662S303.304,112.557,303.307,114.006C303.307,115.475,303.304,112.536,303.307,114.006z"/>
<path fill="#28316D" d="M565.622,398.109c0.009,5.664-3.553,10.891-8.833,12.946c-5.341,2.081-11.57,0.572-15.38-3.702
	c-3.813-4.278-4.589-10.662-1.896-15.724c2.677-5.031,8.313-7.958,13.968-7.258C560.325,385.22,565.615,391.219,565.622,398.109
	C565.635,405.771,565.614,390.456,565.622,398.109z"/>
<path fill="#80C7C1" d="M560.904,393.256c0.007,2.833-2.083,5.336-4.872,5.827c-2.8,0.492-5.631-1.139-6.594-3.817
	c-0.963-2.685,0.184-5.754,2.666-7.151c2.488-1.399,5.712-0.771,7.499,1.449C560.442,390.606,560.903,391.92,560.904,393.256
	C560.911,396.521,560.902,389.995,560.904,393.256z"/>
<path fill="#80C7C1" d="M567.763,455.481c0,1.471-1.186,2.659-2.655,2.66c-1.47,0.004-2.66-1.187-2.662-2.652
	c-0.001-1.469,1.186-2.661,2.654-2.663C566.568,452.823,567.76,454.012,567.763,455.481z"/>
<path fill="#28316D" d="M850.405,245.359c0.016,11.527-1.397,23.051-4.242,34.224c-2.749,10.804-6.829,21.268-12.11,31.085
	c-5.206,9.674-11.574,18.715-18.919,26.883c-7.327,8.146-15.625,15.42-24.665,21.612c-9.121,6.25-18.994,11.396-29.347,15.281
	c-10.607,3.982-21.707,6.631-32.968,7.883c-11.58,1.289-23.326,1.117-34.862-0.516c-11.171-1.582-22.139-4.549-32.582-8.817
	c-10.216-4.179-19.919-9.597-28.843-16.089c-8.858-6.446-16.942-13.948-24.037-22.296c-7.12-8.381-13.236-17.611-18.165-27.439
	c-5.015-9.998-8.797-20.608-11.231-31.524c-2.522-11.308-3.595-22.932-3.232-34.509c0.359-11.456,2.143-22.864,5.325-33.876
	c3.086-10.681,7.483-20.978,13.056-30.599c5.5-9.496,12.139-18.329,19.726-26.258c7.579-7.921,16.101-14.938,25.333-20.851
	c9.332-5.976,19.385-10.818,29.88-14.379c10.778-3.658,22.013-5.955,33.361-6.843c11.6-0.907,23.315-0.365,34.775,1.642
	c11.068,1.937,21.894,5.243,32.155,9.824c10.062,4.49,19.574,10.199,28.275,16.955c8.653,6.715,16.503,14.461,23.334,23.023
	c6.867,8.608,12.701,18.038,17.325,28.031c4.714,10.186,8.163,20.949,10.251,31.977
	C849.595,228.208,850.394,236.782,850.405,245.359C850.506,321.373,850.307,169.345,850.405,245.359z"/>
<path fill="#5CBCB5" d="M706.006,200.116c0.282,5.949-5.258,10.729-11.103,9.587c-5.811-1.135-9.145-7.622-6.684-13.009
	c1.774-3.879,6.088-6.095,10.276-5.276C702.654,192.229,705.801,195.888,706.006,200.116
	C706.249,205.254,705.758,194.976,706.006,200.116z"/>
<path fill="#5CBCB5" d="M807.02,221.947c0.545,11.343-6.108,22.142-16.491,26.75c-10.504,4.662-23.126,2.221-31.154-5.985
	c-8.034-8.213-10.184-20.925-5.261-31.317c4.893-10.329,15.91-16.715,27.305-15.839c11.261,0.867,21.136,8.792,24.428,19.595
	C806.518,217.356,806.91,219.645,807.02,221.947C807.756,237.284,806.288,206.612,807.02,221.947z"/>
<path fill="#5CBCB5" d="M763.686,156.152c0.274,5.683-3.314,11.027-8.686,12.916c-5.42,1.906-11.605-0.063-14.939-4.735
	c-3.343-4.684-3.156-11.208,0.437-15.697c3.592-4.486,9.903-6.108,15.209-3.882C760.296,146.678,763.448,151.18,763.686,156.152
	C764.031,163.338,763.344,148.964,763.686,156.152z"/>
<path fill="#EBA3C7" d="M941.703,282.789c0.925,11.371-0.852,22.903-5.211,33.451c-4.21,10.187-10.768,19.364-19.025,26.663
	c-8.381,7.405-18.464,12.816-29.279,15.679c-11.184,2.959-23.066,3.214-34.361,0.694c-10.824-2.415-21.037-7.362-29.663-14.329
	c-8.606-6.948-15.585-15.86-20.232-25.899c-4.85-10.48-7.108-22.104-6.605-33.638c0.491-11.229,3.646-22.287,9.146-32.09
	c5.391-9.606,12.975-17.946,22.034-24.211c9.321-6.446,20.132-10.621,31.362-12.136c11.378-1.535,23.069-0.364,33.894,3.477
	c10.399,3.69,19.904,9.788,27.615,17.681c7.784,7.968,13.683,17.72,17.093,28.327C940.17,271.752,941.252,277.244,941.703,282.789
	C944.942,322.607,938.461,242.967,941.703,282.789z"/>
<path fill="#28316D" d="M930.961,262.609c0.006,5.913-5.773,10.355-11.49,8.831c-5.677-1.517-8.486-8.214-5.582-13.325
	c2.03-3.574,6.331-5.379,10.307-4.318C928.139,254.85,930.955,258.529,930.961,262.609
	C930.966,267.65,930.953,257.563,930.961,262.609z"/>
<path fill="#28316D" d="M905.645,241.318c-0.216,5.746-4.911,10.537-10.659,10.847c-5.749,0.31-10.961-3.918-11.795-9.625
	c-0.835-5.705,2.913-11.279,8.526-12.629s11.504,1.905,13.348,7.374C905.501,238.579,905.696,239.952,905.645,241.318
	C905.41,247.547,905.88,235.086,905.645,241.318z"/>
<path fill="#99CFCA" d="M810.419,367.491c0.014,11.284-4.342,22.306-12.073,30.525c-7.68,8.167-18.341,13.207-29.532,13.923
	c-11.324,0.721-22.663-2.963-31.374-10.239c-8.559-7.15-14.224-17.441-15.625-28.512c-1.43-11.303,1.569-22.912,8.349-32.071
	c6.608-8.93,16.505-15.188,27.424-17.264c11.22-2.13,23.053,0.174,32.624,6.416c9.274,6.052,16.102,15.534,18.834,26.271
	C809.957,360.116,810.414,363.803,810.419,367.491C810.451,392.058,810.387,342.926,810.419,367.491z"/>
<path fill="#5CBCB5" d="M810.999,329.486c0.276,5.797-4.438,10.805-10.238,10.893c-5.803,0.086-10.646-4.802-10.54-10.598
	c0.103-5.536,4.722-10.108,10.248-10.19C805.999,319.508,810.733,323.965,810.999,329.486
	C811.272,335.222,810.723,323.754,810.999,329.486z"/>
<path fill="#76C4BC" d="M622.901,299.913c0.539,11.271-5.007,22.229-14.396,28.485c-9.52,6.343-22.066,7.14-32.309,2.044
	c-10.078-5.013-16.965-15.164-17.865-26.388c-0.907-11.312,4.334-22.493,13.602-29.04c9.36-6.613,21.902-7.744,32.292-2.901
	c10.182,4.743,17.327,14.699,18.524,25.871C622.82,298.627,622.87,299.269,622.901,299.913
	C623.754,317.758,622.045,282.062,622.901,299.913z"/>
<path fill="#28316D" d="M574.954,174.864c0.327,11.356-2.272,22.718-7.549,32.782c-5.104,9.734-12.63,18.148-21.732,24.309
	c-9.34,6.322-20.252,10.181-31.49,11.149c-11.393,0.982-22.97-0.975-33.377-5.722c-10.006-4.564-18.82-11.628-25.47-20.387
	c-6.778-8.928-11.226-19.537-12.826-30.633c-1.639-11.367-0.328-23.109,3.855-33.81c4.009-10.257,10.594-19.453,18.99-26.576
	c8.503-7.215,18.794-12.229,29.724-14.448c11.285-2.291,23.137-1.626,34.081,1.965c10.485,3.44,20.042,9.527,27.624,17.541
	c7.631,8.066,13.19,18.021,16.012,28.761C574.087,164.714,574.809,169.78,574.954,174.864
	C576.009,211.619,573.897,138.105,574.954,174.864z"/>
<path fill="#28316D" d="M485.646,151.525c0.212,2.808-1.157,5.568-3.517,7.103c-2.392,1.555-5.541,1.658-8.029,0.263
	c-2.47-1.385-4.016-4.068-3.977-6.899c0.038-2.798,1.643-5.419,4.108-6.739C479.104,142.644,485.231,146.024,485.646,151.525
	C485.97,155.805,485.323,147.243,485.646,151.525z"/>
<path fill="#DE75AA" d="M1091.34,176.69c0.015,11.333-3.024,22.579-8.793,32.338c-5.586,9.451-13.627,17.391-23.149,22.854
	c-9.854,5.652-21.164,8.54-32.521,8.37c-11.309-0.17-22.48-3.388-32.128-9.295c-9.363-5.732-17.178-13.896-22.491-23.503
	c-5.508-9.961-8.217-21.342-7.858-32.715c0.354-11.28,3.751-22.375,9.796-31.909c5.878-9.273,14.163-16.963,23.852-22.125
	c10.063-5.361,21.509-7.89,32.893-7.345c11.252,0.538,22.27,4.111,31.69,10.29c9.181,6.023,16.744,14.427,21.753,24.199
	C1088.945,156.747,1091.327,166.691,1091.34,176.69C1091.386,211.753,1091.295,141.627,1091.34,176.69z"/>
<path fill="#5CBCB5" d="M1059.975,149.639c0.136,2.799-1.374,5.494-3.826,6.847c-2.489,1.372-5.631,1.173-7.928-0.496
	c-2.292-1.665-3.448-4.564-2.934-7.35c0.503-2.732,2.572-5.01,5.245-5.774C1055.06,141.573,1059.751,144.937,1059.975,149.639
	C1060.172,153.726,1059.779,145.55,1059.975,149.639z"/>
<g>
	<path fill="#5CBCB5" d="M1055.928,368.388c0.015,11.285-5.4,22.113-14.423,28.888c-9.147,6.866-21.319,8.976-32.249,5.602
		c-10.619-3.278-19.326-11.535-23.174-21.962c-3.963-10.734-2.503-23.031,3.873-32.532c6.259-9.325,16.741-15.314,27.96-15.923
		c11.314-0.614,22.449,4.238,29.697,12.951C1052.957,351.834,1055.917,360.031,1055.928,368.388
		C1055.953,388.288,1055.901,348.489,1055.928,368.388z"/>
	<path fill="#B5DCDA" d="M1033.834,342.591c-0.007,2.865-2.133,5.39-4.96,5.873c-2.838,0.483-5.696-1.179-6.657-3.895
		c-0.964-2.721,0.213-5.826,2.729-7.229c2.524-1.406,5.788-0.752,7.588,1.502C1033.377,339.904,1033.84,341.237,1033.834,342.591
		C1033.826,345.896,1033.848,339.286,1033.834,342.591z"/>
</g>
<path fill="#28316D" d="M1120.055,196.1c-0.421,11.273-6.199,21.894-15.424,28.386c-9.35,6.581-21.553,8.362-32.402,4.751
	c-10.543-3.509-19.084-11.911-22.787-22.386c-3.815-10.792-2.231-23.073,4.208-32.534c6.296-9.254,16.749-15.219,27.929-15.868
	c11.345-0.658,22.537,4.125,29.886,12.793C1117.302,178.129,1120.391,187.077,1120.055,196.1
	C1119.306,216.16,1120.802,176.034,1120.055,196.1z"/>
<path fill="#5CBCB5" d="M1107.232,182.352c-0.109,4.142-2.024,8.101-5.201,10.761c-3.207,2.685-7.493,3.863-11.624,3.206
	c-4.049-0.644-7.7-3.04-9.921-6.483c-2.273-3.523-2.904-7.958-1.722-11.979c1.144-3.888,3.942-7.183,7.585-8.958
	c3.768-1.837,8.265-1.939,12.111-0.278C1103.86,170.951,1107.387,176.477,1107.232,182.352
	C1107.021,190.373,1107.443,174.329,1107.232,182.352z"/>
<path fill="#28316D" d="M1094.738,282.622c0.012,8.898-2.287,17.736-6.674,25.481c-4.243,7.493-10.366,13.882-17.672,18.44
	c-7.511,4.688-16.191,7.37-25.033,7.754c-8.936,0.388-17.91-1.548-25.867-5.639c-7.661-3.938-14.288-9.807-19.138-16.926
	c-4.959-7.279-7.991-15.799-8.743-24.577c-0.768-8.942,0.805-18.037,4.583-26.183c3.628-7.82,9.23-14.679,16.154-19.813
	c7.047-5.223,15.398-8.594,24.1-9.708c8.928-1.145,18.118,0.056,26.434,3.51c7.97,3.31,15.055,8.641,20.465,15.363
	c5.479,6.808,9.18,14.982,10.651,23.599C1094.487,276.796,1094.734,279.709,1094.738,282.622
	C1094.776,311.15,1094.701,254.091,1094.738,282.622z"/>
<path fill="#B5DCDA" d="M1073.946,254.996c0.007,4.827-2.47,9.424-6.499,12.082c-4.084,2.696-9.411,3.121-13.874,1.109
	c-4.353-1.962-7.529-6.07-8.314-10.782c-0.8-4.808,0.922-9.793,4.526-13.074c3.614-3.289,8.773-4.534,13.494-3.26
	c4.599,1.242,8.377,4.795,9.906,9.307C1073.689,251.863,1073.944,253.429,1073.946,254.996
	C1073.956,262.972,1073.936,247.02,1073.946,254.996z"/>
<path fill="#2A9A83" d="M597.399,277.35c0.125,2.324-1.657,4.397-3.978,4.61c-2.384,0.218-4.563-1.577-4.784-3.965
	c-0.225-2.449,1.678-4.662,4.137-4.797C595.166,273.069,597.269,274.958,597.399,277.35
	C597.531,279.773,597.269,274.928,597.399,277.35z"/>
<path fill="#D3E9E9" d="M577.454,253.553c0.016,11.416-2.157,22.809-6.427,33.4c-4.118,10.211-10.153,19.628-17.688,27.655
	c-7.519,8.009-16.513,14.615-26.416,19.372c-10.199,4.9-21.318,7.807-32.607,8.547c-11.484,0.753-23.095-0.701-34.019-4.331
	c-10.484-3.482-20.287-8.945-28.782-16.004c-8.436-7.011-15.565-15.573-20.916-25.148c-5.476-9.8-9.058-20.626-10.509-31.759
	c-1.493-11.462-0.76-23.211,2.189-34.389c2.829-10.727,7.694-20.89,14.254-29.835c6.481-8.839,14.592-16.467,23.816-22.389
	c9.386-6.026,19.897-10.258,30.844-12.4c11.361-2.224,23.158-2.218,34.516,0.021c10.94,2.156,21.443,6.398,30.819,12.432
	c9.217,5.932,17.32,13.567,23.792,22.413c6.552,8.955,11.407,19.127,14.223,29.86C576.473,238.351,577.444,245.95,577.454,253.553
	C577.521,302.732,577.391,204.366,577.454,253.553z"/>
<path fill="#5CBCB5" d="M495.442,187.719c0.303,5.625-2.418,11.113-7.076,14.281c-4.722,3.211-10.975,3.675-16.119,1.197
	c-5.057-2.436-8.565-7.447-9.103-13.037c-0.543-5.625,1.946-11.231,6.486-14.599c4.586-3.402,10.809-4.123,16.052-1.857
	c5.138,2.222,8.85,7.076,9.626,12.622C495.374,186.788,495.417,187.253,495.442,187.719
	C495.925,196.657,494.96,178.78,495.442,187.719z"/>
<path fill="#28316D" d="M943.312,346.48c0.015,11.355-2.823,22.645-8.255,32.62c-5.252,9.646-12.845,17.967-21.965,24.086
	c-9.324,6.255-20.162,10.131-31.341,11.2c-11.414,1.09-23.052-0.699-33.58-5.253c-10.097-4.364-19.075-11.201-25.99-19.755
	c-6.998-8.653-11.821-18.999-13.913-29.934c-2.164-11.313-1.43-23.154,2.156-34.102c3.436-10.49,9.465-20.076,17.398-27.751
	c7.948-7.689,17.751-13.398,28.376-16.475c11.072-3.206,22.949-3.539,34.186-0.979c10.823,2.469,20.968,7.631,29.36,14.893
	c8.326,7.207,14.867,16.418,18.888,26.675C941.721,329.583,943.301,338.022,943.312,346.48
	C943.361,384.105,943.261,308.854,943.312,346.48z"/>
<path fill="#2A9A83" d="M917.202,317.146c0.19,5.865-5.146,10.611-10.95,9.739c-5.833-0.874-9.538-7.053-7.564-12.607
	c1.509-4.249,5.933-6.907,10.39-6.245C913.577,308.698,917.052,312.604,917.202,317.146
	C917.373,322.408,917.027,311.888,917.202,317.146z"/>
<path fill="#B5DCDA" d="M412.676,272.806c0.001,1.606-1.335,2.947-2.94,2.949c-1.605,0.001-2.946-1.336-2.95-2.94
	c0-1.604,1.337-2.945,2.941-2.948C411.33,269.864,412.673,271.202,412.676,272.806C412.677,274.435,412.673,271.182,412.676,272.806
	z"/>
<path fill="#28316D" d="M457.663,204.678c0.015,11.414-2.167,22.802-6.455,33.382c-4.135,10.202-10.194,19.602-17.756,27.599
	c-7.547,7.982-16.571,14.548-26.498,19.252c-10.231,4.849-21.379,7.684-32.681,8.341c-11.477,0.666-23.062-0.882-33.94-4.608
	c-10.444-3.575-20.185-9.132-28.599-16.274c-8.361-7.101-15.392-15.748-20.621-25.391c-5.361-9.882-8.796-20.774-10.082-31.943
	c-1.32-11.47-0.408-23.192,2.722-34.308c3.002-10.663,8.036-20.728,14.742-29.542c6.637-8.723,14.888-16.199,24.226-21.938
	c9.52-5.851,20.139-9.867,31.152-11.768c11.401-1.968,23.191-1.697,34.486,0.813c10.859,2.413,21.23,6.904,30.43,13.155
	c9.063,6.157,16.967,13.997,23.199,23.009c6.323,9.146,10.899,19.473,13.402,30.307
	C456.897,191.289,457.654,197.982,457.663,204.678C457.729,253.615,457.599,155.738,457.663,204.678z"/>
<path fill="#5CBCB5" d="M399.523,180.456c0.005,2.859-2.234,5.328-5.083,5.594c-2.849,0.266-5.52-1.735-6.045-4.553
	c-0.525-2.817,1.231-5.657,3.991-6.436c2.762-0.778,5.749,0.721,6.77,3.402C399.399,179.098,399.522,179.776,399.523,180.456
	C399.53,183.556,399.52,177.356,399.523,180.456z"/>
<path fill="#5CBCB5" d="M434.493,160.704c0.008,5.768-4.75,10.619-10.517,10.72c-5.767,0.101-10.699-4.574-10.892-10.342
	c-0.193-5.764,4.397-10.776,10.163-11.063c5.76-0.286,10.845,4.227,11.223,9.987C434.484,160.239,434.492,160.471,434.493,160.704
	C434.501,166.617,434.484,154.789,434.493,160.704z"/>
<path fill="#5CBCB5" d="M356.989,172.937c0.002,1.409-1.172,2.588-2.581,2.59c-1.407,0-2.587-1.173-2.587-2.582
	c-0.002-1.409,1.171-2.586,2.582-2.589C355.81,170.354,356.989,171.529,356.989,172.937
	C356.991,174.365,356.989,171.51,356.989,172.937z"/>
<path fill="#5CBCB5" d="M328.615,148.379c0.001,2.01-1.678,3.689-3.687,3.693c-2.01,0.002-3.69-1.674-3.694-3.684
	c-0.002-2.01,1.673-3.691,3.684-3.694C326.93,144.689,328.613,146.367,328.615,148.379
	C328.617,150.414,328.613,146.34,328.615,148.379z"/>
<path fill="#5CBCB5" d="M340.527,261.353c0.001,2.011-1.675,3.691-3.686,3.695c-2.01,0.002-3.692-1.674-3.695-3.685
	c-0.002-2.011,1.675-3.692,3.687-3.695C338.844,257.666,340.523,259.342,340.527,261.353
	C340.529,263.39,340.523,259.315,340.527,261.353z"/>
<path fill="#5CBCB5" d="M394.06,200.18c0.005,5.655-3.74,10.816-9.124,12.555c-5.438,1.757-11.541-0.29-14.83-4.957
	c-3.296-4.676-3.142-11.148,0.368-15.664c3.506-4.51,9.707-6.269,15.058-4.25C390.603,189.778,394.05,194.763,394.06,200.18
	C394.066,207.455,394.047,192.901,394.06,200.18z"/>
<path fill="#5CBCB5" d="M390.242,158.421c0.001,1.545-1.288,2.84-2.834,2.84c-1.546,0.001-2.836-1.287-2.84-2.833
	c-0.002-1.546,1.288-2.841,2.834-2.843C388.946,155.584,390.241,156.876,390.242,158.421
	C390.245,159.988,390.241,156.856,390.242,158.421z"/>
<path fill="#5CBCB5" d="M421.056,117.247c0.004,2.816-2.343,5.171-5.16,5.172c-2.817,0.006-5.171-2.342-5.174-5.158
	c-0.002-2.815,2.343-5.171,5.16-5.175C418.698,112.083,421.054,114.429,421.056,117.247
	C421.06,120.1,421.054,114.393,421.056,117.247z"/>
<path fill="#EBA3C7" d="M557.771,332.026c0.927,11.373-0.85,22.904-5.21,33.452c-4.21,10.187-10.768,19.363-19.028,26.662
	c-8.381,7.405-18.465,12.817-29.279,15.679c-11.184,2.959-23.067,3.212-34.36,0.693c-10.825-2.415-21.037-7.362-29.664-14.328
	c-8.605-6.949-15.585-15.86-20.232-25.899c-4.85-10.479-7.109-22.104-6.605-33.637c0.49-11.229,3.645-22.288,9.145-32.091
	c5.389-9.606,12.975-17.946,22.034-24.212c9.321-6.445,20.131-10.62,31.361-12.136c11.379-1.535,23.071-0.362,33.896,3.479
	c10.4,3.69,19.905,9.787,27.616,17.681c7.784,7.967,13.684,17.721,17.094,28.326C556.238,320.99,557.32,326.481,557.771,332.026
	C561.014,371.847,554.53,292.205,557.771,332.026z"/>
<path fill="#5CBCB5" d="M547.026,311.847c0.007,5.911-5.775,10.356-11.489,8.831c-5.677-1.518-8.485-8.214-5.582-13.326
	c2.03-3.574,6.331-5.379,10.305-4.32C544.206,304.086,547.021,307.768,547.026,311.847
	C547.032,316.886,547.021,306.8,547.026,311.847z"/>
<path fill="#5CBCB5" d="M556.165,332.326c0.449,5.896-4.988,10.758-10.802,9.659c-5.772-1.09-9.074-7.558-6.558-12.871
	c1.76-3.717,5.916-5.834,9.956-5.073C552.773,324.796,555.856,328.259,556.165,332.326
	C556.548,337.354,555.784,327.295,556.165,332.326z"/>
<path fill="#5CBCB5" d="M521.713,290.554c-0.217,5.749-4.913,10.539-10.662,10.851c-5.747,0.313-10.96-3.922-11.795-9.625
	c-0.834-5.706,2.916-11.281,8.528-12.63c5.614-1.349,11.503,1.903,13.349,7.373C521.569,287.815,521.765,289.188,521.713,290.554
	C521.478,296.785,521.95,284.323,521.713,290.554z"/>
<path fill="#5CBCB5" d="M388.192,353.14c0,1.448-1.206,2.658-2.656,2.659c-1.449,0.003-2.661-1.205-2.663-2.654
	c-0.001-1.448,1.206-2.658,2.654-2.659C386.979,350.482,388.188,351.688,388.192,353.14
	C388.192,354.607,388.188,351.671,388.192,353.14z"/>
<path fill="#5CBCB5" d="M1013.69,195.357c0.016,11.417-2.158,22.81-6.429,33.401c-4.117,10.212-10.152,19.63-17.688,27.658
	c-7.52,8.009-16.513,14.615-26.416,19.372c-10.198,4.9-21.317,7.808-32.606,8.549c-11.483,0.754-23.095-0.701-34.019-4.331
	c-10.484-3.483-20.285-8.945-28.78-16.004c-8.437-7.011-15.564-15.574-20.915-25.149c-5.477-9.8-9.059-20.627-10.511-31.76
	c-1.492-11.462-0.761-23.211,2.188-34.39c2.829-10.727,7.693-20.89,14.253-29.835c6.48-8.84,14.591-16.467,23.815-22.389
	c9.386-6.026,19.897-10.258,30.845-12.401c11.36-2.223,23.157-2.217,34.516,0.02c10.941,2.155,21.443,6.398,30.819,12.432
	c9.217,5.932,17.32,13.567,23.791,22.414c6.552,8.954,11.406,19.126,14.223,29.859
	C1012.71,180.156,1013.681,187.754,1013.69,195.357C1013.756,244.541,1013.627,146.172,1013.69,195.357z"/>
<path fill="#2A9A83" d="M969.696,157.411c0.274,5.799-4.441,10.802-10.241,10.889c-5.801,0.087-10.645-4.801-10.539-10.595
	c0.1-5.534,4.721-10.111,10.25-10.193C964.698,147.429,969.431,151.889,969.696,157.411
	C969.97,163.144,969.418,151.673,969.696,157.411z"/>
<path fill="#B5DCDA" d="M843.755,147.478c0.017,11.365-7.606,21.707-18.481,25.031c-10.977,3.357-23.158-1.042-29.479-10.612
	c-6.335-9.592-5.525-22.595,1.932-31.337c7.451-8.734,20.124-11.613,30.605-6.896C837.612,127.84,843.741,137.301,843.755,147.478
	C843.776,161.911,843.735,133.042,843.755,147.478z"/>
<path fill="#80C7C1" d="M817.347,131.35c0.005,2.835-1.938,5.401-4.673,6.157c-2.757,0.762-5.762-0.457-7.208-2.92
	c-1.451-2.471-1.034-5.704,0.987-7.73c2.021-2.028,5.252-2.453,7.727-1.007C816.12,126.98,817.345,129.103,817.347,131.35
	C817.353,134.874,817.343,127.828,817.347,131.35z"/>
<g id="Layer_2">
	<path fill="#FFFFFF" d="M473.771,376.583l-93.592-232.295l51.257-0.068l46.003,116.149l44.423-114.042l2.228-0.004l44.728,113.927
		l45.691-116.271l51.26-0.066L573.106,375.5l-8.279,0.012l-41.84-100.876l-41.256,101.938L473.771,376.583z M744.078,135.527
		l4.776-0.004l96.146,235.795l-51.261,0.068l-9.267-24.503l-75.457,0.1l-8.882,24.526l-51.578,0.068L744.078,135.527z
		 M767.544,304.241l-20.775-59.192l-21.251,59.248L767.544,304.241z M990.18,371.128l-45.965-86.863l-21.966,0.031l0.115,86.919
		l-45.531,0.061l-0.3-227.644l89.782-0.118c81.188-0.106,89.303,114.182,22.467,133.691l52.974,93.854L990.18,371.128z
		 M922.19,240.042l40.118-0.053c30.882-0.04,30.813-50.981-0.067-50.941l-40.117,0.053L922.19,240.042z"/>
</g>
<path fill="#D9ECEC" d="M1029.384,380.679c0.541,11.29-2.628,22.592-8.987,31.94c-6.212,9.133-15.293,16.195-25.699,19.914
	c-10.808,3.863-22.83,4.061-33.755,0.534c-10.491-3.388-19.779-10.135-26.274-19.04c-6.706-9.197-10.234-20.483-10.024-31.858
	c0.207-11.223,4.094-22.217,10.973-31.087c6.79-8.757,16.325-15.244,26.983-18.291c11.026-3.149,23.006-2.588,33.673,1.63
	c10.242,4.047,19.083,11.355,24.999,20.642C1026.15,362.722,1028.951,371.609,1029.384,380.679
	C1030.768,409.584,1028.003,351.767,1029.384,380.679z"/>
<path fill="#B5DCDA" d="M980.807,363.51c0.29,5.998-5.669,10.604-11.403,8.802c-5.685-1.785-7.976-8.888-4.394-13.654
	c2.212-2.941,6.142-4.214,9.657-3.108C978.142,356.639,980.636,359.87,980.807,363.51
	C981.041,368.355,980.578,358.665,980.807,363.51z"/>
<path fill="#80C7C1" d="M464.782,163.428c0.287,6.002-1.515,12-5.074,16.844c-3.493,4.753-8.563,8.261-14.254,9.82
	c-5.876,1.61-12.252,1.126-17.807-1.381c-5.343-2.412-9.805-6.618-12.525-11.811c-2.831-5.402-3.691-11.752-2.422-17.716
	c1.227-5.76,4.426-11.019,8.956-14.779c4.643-3.855,10.554-6.006,16.587-6.062c5.985-0.055,11.887,1.972,16.577,5.688
	c4.634,3.671,7.957,8.878,9.301,14.638C464.486,160.231,464.706,161.826,464.782,163.428
	C465.478,177.959,464.09,148.895,464.782,163.428z"/>
<path fill="#5CBCB5" d="M440.363,154.799c0.154,3.192-3.191,5.529-6.136,4.275c-1.364-0.581-2.369-1.842-2.623-3.303
	c-0.259-1.484,0.272-3.028,1.39-4.039c1.262-1.141,3.122-1.455,4.687-0.788C439.225,151.603,440.284,153.123,440.363,154.799
	C440.481,157.233,440.248,152.364,440.363,154.799z"/>
<path fill="#B5DCDA" d="M453.53,289.082c0.008,5.618-1.216,11.215-3.594,16.306c-2.295,4.914-5.637,9.32-9.74,12.864
	c-4.131,3.567-9.016,6.241-14.253,7.783c-5.463,1.606-11.28,1.975-16.904,1.089c-5.447-0.858-10.684-2.906-15.271-5.963
	c-4.503-3.002-8.359-6.953-11.247-11.529c-2.951-4.675-4.868-9.979-5.585-15.462c-0.738-5.639-0.225-11.433,1.52-16.847
	c1.672-5.188,4.463-9.995,8.125-14.031c3.646-4.019,8.139-7.253,13.112-9.425c5.17-2.257,10.821-3.336,16.458-3.181
	c5.593,0.154,11.13,1.535,16.133,4.042c4.844,2.429,9.155,5.888,12.583,10.083c3.46,4.235,6.002,9.201,7.396,14.49
	C453.103,282.49,453.526,285.785,453.53,289.082C453.558,310.323,453.501,267.841,453.53,289.082z"/>
<path fill="#5CBCB5" d="M435.584,270.889c0.004,2.779-1.208,5.47-3.289,7.312c-2.102,1.862-4.956,2.728-7.738,2.364
	c-2.728-0.355-5.221-1.895-6.775-4.161c-1.593-2.325-2.099-5.293-1.375-8.017c0.703-2.644,2.538-4.914,4.969-6.166
	c2.509-1.292,5.533-1.421,8.145-0.354C433.147,263.352,435.58,266.972,435.584,270.889
	C435.592,276.272,435.578,265.501,435.584,270.889z"/>
<path fill="#EBA3C7" d="M625.767,153.64c0.165,5.711-2.274,11.291-6.569,15.057c-4.347,3.811-10.302,5.476-15.999,4.493
	c-5.554-0.958-10.503-4.41-13.349-9.271c-2.929-5.002-3.433-11.227-1.353-16.638c2.016-5.243,6.337-9.44,11.642-11.292
	c5.469-1.91,11.656-1.223,16.567,1.85c4.798,3.001,8.105,8.072,8.884,13.681C625.688,152.223,625.746,152.931,625.767,153.64
	C626.073,164.282,625.461,142.998,625.767,153.64z"/>
<path fill="#80C7C1" d="M616.021,145.689c0.093,1.223-0.852,2.321-2.075,2.414c-1.223,0.092-2.321-0.852-2.413-2.075
	c-0.092-1.223,0.853-2.321,2.075-2.413C614.832,143.522,615.93,144.467,616.021,145.689
	C616.116,146.929,615.929,144.451,616.021,145.689z"/>
<path fill="#A6D1CF" d="M421.934,309.546c0.003,2.793-1.755,5.37-4.359,6.383c-2.634,1.024-5.707,0.282-7.585-1.825
	c-1.88-2.109-2.262-5.259-0.935-7.755c1.32-2.481,4.1-3.925,6.889-3.579C419.32,303.188,421.928,306.147,421.934,309.546
	C421.938,313.323,421.928,305.771,421.934,309.546z"/>
<path fill="#28316D" d="M1008.327,150.291c0.005,3.793-1.337,7.516-3.766,10.43c-2.388,2.865-5.743,4.86-9.407,5.565
	c-3.771,0.727-7.752,0.087-11.096-1.805c-3.224-1.824-5.774-4.748-7.136-8.192c-1.415-3.581-1.503-7.639-0.249-11.279
	c1.208-3.506,3.632-6.54,6.775-8.504c3.253-2.033,7.187-2.845,10.981-2.291c3.703,0.541,7.152,2.389,9.669,5.157
	c2.539,2.793,4.045,6.437,4.212,10.209C1008.321,149.817,1008.327,150.054,1008.327,150.291
	C1008.339,159.276,1008.315,141.307,1008.327,150.291z"/>
<path fill="#5CBCB5" d="M1000.29,143.359c0.045,0.966-0.672,1.837-1.631,1.971c-0.96,0.134-1.893-0.499-2.114-1.444
	c-0.222-0.944,0.326-1.932,1.248-2.239c0.921-0.306,1.954,0.154,2.342,1.044C1000.227,142.902,1000.279,143.13,1000.29,143.359
	C1000.34,144.407,1000.239,142.312,1000.29,143.359z"/>
<path fill="#28316D" d="M607.866,342.409c0.005,4.082-1.241,8.117-3.561,11.477c-2.258,3.271-5.478,5.844-9.171,7.311
	c-3.851,1.531-8.158,1.83-12.186,0.859c-3.887-0.934-7.45-3.047-10.148-5.994c-2.718-2.967-4.509-6.73-5.086-10.713
	c-0.59-4.088,0.088-8.322,1.953-12.01c1.791-3.541,4.633-6.518,8.086-8.475c3.585-2.031,7.764-2.908,11.865-2.518
	c4.023,0.381,7.881,1.994,10.985,4.582c3.063,2.553,5.337,6.004,6.456,9.832C607.593,338.593,607.864,340.501,607.866,342.409
	C607.881,353.554,607.852,331.263,607.866,342.409z"/>
<path fill="#5CBCB5" d="M578.989,329.587c0,0.738-0.615,1.354-1.353,1.354c-0.738,0.002-1.355-0.613-1.356-1.352
	c0-0.738,0.616-1.354,1.353-1.355C578.372,328.233,578.988,328.849,578.989,329.587
	C578.991,330.333,578.988,328.839,578.989,329.587z"/>
<path fill="#5CBCB5" d="M598.451,332.864c0.003,2.039-1.252,3.93-3.133,4.721c-1.905,0.803-4.164,0.352-5.618-1.115
	c-1.454-1.467-1.885-3.73-1.065-5.627c0.81-1.875,2.713-3.113,4.756-3.09C596.155,327.782,598.447,330.101,598.451,332.864
	C598.455,335.688,598.447,330.036,598.451,332.864z"/>
</svg>
