<?xml version="1.0" encoding="utf-8"?>
<!-- Generator: Adobe Illustrator 15.0.0, SVG Export Plug-In . SVG Version: 6.00 Build 0)  -->
<!DOCTYPE svg PUBLIC "-//W3C//DTD SVG 1.1//EN" "http://www.w3.org/Graphics/SVG/1.1/DTD/svg11.dtd">
<svg version="1.1" xmlns="http://www.w3.org/2000/svg" xmlns:xlink="http://www.w3.org/1999/xlink" x="0px" y="0px" width="1400px"
	 height="503.572px" viewBox="0 0 1400 503.572" enable-background="new 0 0 1400 503.572" xml:space="preserve">
<g id="Clouds">
	<g>
		<g>
			<g>
				<path fill="#FFA19C" d="M1392.055,150.286h-71.083c0,0-45.74-3.092-69.347-0.39c-23.607,2.703-53.618-1.696-59.574-1.394
					c-5.956,0.3-15.068,3.174-47.875-0.114c-32.809-3.288-21.873-5.12-45.566,2.078c-23.695,7.198-55.51,1.788-66.943-0.024
					c-11.433-1.812-107.469-14.437-126.888-16.239c-19.419-1.802-20.242-5.411-34.001-0.006
					c-13.758,5.406-12.758,15.207-67.438,8.503c-54.679-6.704,1.823-3.406-87.485-11.362
					c-89.312-7.956-88.904-14.084-147.432-14.625c-58.528-0.54-20.253,11.351-100.449,0
					c-80.197-11.352-117.074,13.874-137.518,13.874c-20.445,0-48.393,4.257-61.759,3.33c-13.366-0.927-48.603-5.078-60.754,0
					c-12.152,5.079-20.656,8.683-49.819,9.885c-29.163,1.2-43.168,4.804-49.532,4.804c-6.363,0-18.515-1.201-35.525-1.201
					c-17.01,0-47.996,1.201-60.755,1.201c-12.758,0-12.758,5.452-12.758,5.452s18.833-2.956,30.985,0
					c12.151,2.957,18.228-2.956,41.314,0c23.085,2.957,166.451,4.159,193.191,5.36c26.74,1.2,78.992,21.597,87.495,18.605
					c8.505-2.99-8.503-10.826,14.582,0.3c23.086,11.125,17.013,21.937,51.034,19.534c34.023-2.403,83.842,7.208,109.359,10.811
					c25.516,3.604,24.3,6.007,48.602,10.812c24.303,4.804,178.622-3.604,194.416,0c15.797,3.603,17.012,9.313,35.238,11.264
					c18.226,1.949,37.59,3.997,28.516,13.184c-9.073,9.187-20.009,11.59-57.679,11.59c-37.669,0-68.043-1.2-77.157,0
					c-9.115,1.201-30.985-2.401-38.276,0c-7.291,2.401-21.873,2.907-43.745,0.253c-21.871-2.656-21.874-2.654-49.819-3.857
					c-27.948-1.202-35.239,7.671-43.745,5.638c-8.503-2.033-29.162,5.175-40.098,8.777c-10.935,3.604-65.006,9.01-74.12,9.01
					s-12.152,1.202-15.797,3.604c-3.645,2.402-4.859,6.006-15.796,10.211c-10.936,4.204-23.087,4.368-30.985,5.488
					c-7.897,1.117-39.977,30.55-67.984,25.143c-28.007-5.405-16.598,7.208-35.972,7.208c-19.375,0-101.394,10.812-125.089,12.613
					c-23.694,1.802-24.164,10.812-35.777,12.613c-11.611,1.802-36.825,9.21-36.825,9.21S5.5,355.972,1.5,355.972
					c-5,0,0,39.49,0,39.49l0.524,68.824H1401.56l-1-315.403L1392.055,150.286z"/>
			</g>
		</g>
	</g>
</g>
<g id="Logo">
	<path fill="#FFFFFF" d="M480.883,394.032l-93.322-232.516h51.28l45.866,116.258l44.592-114.029h2.229l44.593,114.029
		l45.866-116.258h51.279l-93.005,231.562h-8.282l-41.726-100.972l-41.407,101.926C486.193,394.032,483.538,394.032,480.883,394.032
		L480.883,394.032z M751.619,153.235h4.778l95.873,236.02h-51.281l-9.236-24.525h-75.487l-8.919,24.525c-17.2,0-34.398,0-51.599,0
		c9.971-24.536,19.935-49.075,29.901-73.612c9.968-24.538,19.936-49.076,29.901-73.614c9.959-24.519,19.917-49.037,29.877-73.555
		C747.492,163.395,749.559,158.315,751.619,153.235L751.619,153.235z M774.871,322.048l-20.705-59.244
		c-7.111,19.748-14.224,39.497-21.338,59.244C746.843,322.048,760.856,322.048,774.871,322.048L774.871,322.048z M997.51,389.255
		L951.646,302.3h-21.977v86.955h-45.548V161.517h89.821c11.511,0,23.125,2.441,33.31,7.911c9.598,5.154,17.578,12.967,23.279,22.224
		c12.384,20.109,14.054,46.555,4.903,68.254c-7.188,17.045-21.356,30.205-39.196,35.387c12.952,23.015,25.899,46.029,38.851,69.045
		c4.672,8.303,9.222,16.688,14.022,24.919c-8.999,0-17.998,0-26.997,0C1013.912,389.255,1005.711,389.255,997.51,389.255
		L997.51,389.255z M929.669,258.028h40.133c5.311,0,10.624-1.705,14.687-5.182c4.169-3.568,6.753-8.715,7.852-14.036
		c1.799-8.715-0.206-18.733-6.501-25.267c-3.588-3.725-8.302-5.801-13.428-6.286c-3.13-0.298-6.296-0.194-9.437-0.194
		c-3.271,0-6.543,0-9.813,0c-6.632,0-13.266,0-19.897,0c-0.31,0-3.594-0.008-3.594,0.01c0,0.082,0,0.166,0,0.25
		c0,0.455,0,0.912,0,1.367c0,11.172,0,22.344,0,33.516C929.669,247.479,929.669,252.754,929.669,258.028L929.669,258.028z"/>
</g>
<g id="middle_clouds">
	<g>
		<g>
			<g>
				<path fill="#FF807D" d="M148.41,304.683c3.543-0.945,4.645-1.354,6.613-2.254c1.967-0.898,3.937-0.579,4.959-1.449
					c1.025-0.866,1.497-1.336,1.655-2.201c0.157-0.869-0.158-1.971-0.629-2.442c-0.473-0.474-2.441-0.473-3.465-0.628
					c-1.022-0.158-1.731-0.08-6.849,0c-5.117,0.076-5.98-0.498-7.319-0.093s-0.788,0.798-1.971,1.9
					c-1.18,1.104-4.091,3.073-4.879,3.388c-0.787,0.314-7.005,3.7-1.887,3.779c5.113,0.078,12.129,0.709,12.52,0.709
					C147.544,305.392,148.41,304.683,148.41,304.683z"/>
			</g>
			<g>
				<path fill="#FF807D" d="M691.792,239.065c-2.177,0.271-3.809,1.544-4.626,1.181c-0.815-0.363-1.769-0.051-2.448,0.065
					c-0.68,0.114-2.856,0.932-5.17,1.204c-2.312,0.271-4.761-1.497-5.713-1.225c-0.953,0.271-5.441,0.679-6.937,0.679
					c-1.498,0-4.898-1.904-4.898-1.904s-1.497-0.816-0.68-1.361c0.816-0.543,0.68-0.271,2.449-1.358
					c1.769-1.089,4.18-1.089,5.354-0.816c1.176,0.271,1.992,0.271,4.848,0.543c2.857,0.273,6.53,0.137,7.482,0
					c0.953-0.136,3.129-0.846,6.394-0.695c3.266,0.152,6.53,0.288,7.074,0.695c0.544,0.408,1.904,0.408,0,1.361
					C693.016,238.386,691.792,239.065,691.792,239.065z"/>
			</g>
			<g>
				<path fill="#FF807D" d="M453.506,247.5c0,0,0.918-3.571,1.632-3.979c0.715-0.408,1.225,0.816,1.837,0s1.837-1.837,2.55-1.837
					c0.715,0,3.368-0.204,5.714-0.612c2.347-0.408,2.959-0.713,4.49-0.816c1.53-0.102,3.877,0.613,4.285,0.613
					c0.408,0,2.143,1.836,2.143,1.836l2.347,1.169c0,0,0.306-0.046,0,0.566c-0.306,0.612-1.123,1.021-1.632,0.919
					c-0.51-0.104-4.183,0-4.591,0s-8.469,1.121-9.183,1.325c-0.715,0.204-4.898,1.429-4.898,1.429s-1.53,1.735-2.346,1.327
					c-0.816-0.41-1.734,0.327-2.347,0.062c-0.612-0.267-0.919-1.083-0.919-1.083L453.506,247.5z"/>
			</g>
			<g>
				<path fill="#FF807D" d="M501.461,251.072c-0.816,0-4.694,0.406-5.51,0c-0.817-0.408-2.857,0.305-3.877,0
					c-1.021-0.307-3.571-0.362-4.592-0.13c-1.021,0.231-2.041,0.299-2.958-0.144c-0.918-0.441-3.469-1.238-3.469-1.238
					s-0.306-2.162,0-2.673s-0.476-1.521-0.136-1.985c0.34-0.463,1.667-1.892,3.198-1.688c1.53,0.204,4.285-0.021,4.285-0.021
					s3.367-0.49,4.795-0.693c1.428-0.205,6.53,0.408,7.244,0.918s2.857,0.714,3.266,0.816c0.408,0.102,2.04,0.204,2.754,0.102
					c0.714-0.102,7.754,0.315,8.774,0.565c1.021,0.252,4.897,2.331,7.653,1.954c2.754-0.377,5.204-0.683,8.469-1.193
					c3.264-0.509,10.407-0.509,11.631-0.102c1.224,0.408,0,1.837-6.428,2.755c-6.428,0.918-11.735,2.652-14.081,3.572
					c-2.348,0.918-1.327,0.611-2.348,0.918c-1.02,0.306-2.754,0.611-3.876,1.121c-1.123,0.511-1.637,1.53-4.135,1.734
					c-2.497,0.204-5.661,0.408-8.518,0.612c-2.857,0.204-4.183-0.408-6.019-0.816c-1.837-0.408-1.633,0.103-2.653-0.305
					c-1.021-0.409-0.307-1.837,0.102-1.837s4.795-0.204,5.306-0.715C500.849,252.092,501.461,251.072,501.461,251.072z"/>
			</g>
			<g>
				<path fill="#FF807D" d="M719.205,246.071c1.972-0.543,5.031,0.341,5.712,0c0.681-0.339,1.294-0.203,4.626-0.884
					c3.333-0.68,4.898-1.021,5.578-1.155c0.68-0.138,2.518,0.135,4.762,0c2.244-0.138,6.869,0.747,8.366,0.747
					s2.041,0.749,2.38,0.816c0.342,0.067-1.359,1.631-3.061,1.904c-1.699,0.272-1.564,0.544-4.625,0.952
					c-3.061,0.409-4.014,0.409-5.442,0.544c-1.429,0.137,1.2,0.272-2.563,0.816c-3.761,0.545-5.395,0.748-6.006,0.272
					c-0.612-0.476-1.838-0.611-2.992-0.476c-1.158,0.136-3.471,0.476-4.423,0c-0.952-0.477-1.292-0.748-2.312-1.02
					c-1.021-0.273-2.383-1.065-2.383-1.417C716.822,246.819,719.205,246.071,719.205,246.071z"/>
			</g>
			<g>
				<path fill="#FF807D" d="M782.965,252.551c1.973-0.544,5.032,0.34,5.712,0c0.682-0.34,1.295-0.204,4.627-0.884
					c3.333-0.681,4.897-1.021,5.578-1.157c0.68-0.136,2.517,0.136,4.761,0c2.245-0.136,6.87,0.748,8.368,0.748
					c1.496,0,2.04,0.749,2.379,0.817c0.341,0.066-1.359,1.631-3.061,1.903c-1.7,0.272-1.564,0.544-4.625,0.952
					c-3.062,0.409-4.014,0.409-5.442,0.545s1.2,0.271-2.563,0.816c-3.761,0.544-5.395,0.748-6.007,0.271
					c-0.611-0.477-1.837-0.611-2.992-0.477c-1.157,0.137-3.47,0.477-4.422,0c-0.953-0.476-1.293-0.747-2.313-1.02
					c-1.021-0.272-2.382-1.064-2.382-1.417S782.965,252.551,782.965,252.551z"/>
			</g>
			<g>
				<path fill="#FF807D" d="M753.964,284.179c-1.837,0.511-4.388,1.123-4.999,1.328c-0.613,0.203-6.53,1.836-6.53,1.836
					s-0.716,0.714-3.062,0.918c-2.347,0.205-7.551,0.815-11.428,0.612c-3.877-0.204-6.836-0.306-7.855-0.714
					c-1.021-0.408-2.245-0.205-2.857-1.021c-0.612-0.817-1.123-2.144-0.612-2.96c0.511-0.815,2.347-0.714,4.183-1.225
					c1.838-0.509,2.959-1.02,6.53-1.121c3.571-0.103,4.897,0.203,8.469,0.51c3.571,0.306,5.306,0.306,5.714,0.203
					c0.408-0.101,1.43-0.652,2.552-0.732c1.122-0.083,3.366-0.593,3.774-0.491c0.407,0.102-0.102,0.306,3.162,0.511
					c3.266,0.203,3.674-0.103,4.388,0.203c0.715,0.307,1.735,0.715,0.816,1.123C755.29,283.567,753.964,284.179,753.964,284.179z"/>
			</g>
			<g>
				<path fill="#FF807D" d="M983.119,239.876c4.193,0,45.411,0.41,49.596,0.41c4.192,0,30.716,0,30.716,0s22.366-4.924,25.161-6.43
					c2.783-1.505-13.976-5.922-36.328-7.729c-22.329-1.807-54.471-0.253-58.664-0.856c-4.18-0.602-18.158-1.496-25.146-1.113
					c-6.98,0.384-29.346,4.464-30.73,6.078c-1.395,1.616,4.193,6.833,12.572,8.034"/>
			</g>
		</g>
	</g>
</g>
<g id="front_Clouds">
	<g>
		<g>
			<g>
				<path fill="#FC7A64" d="M1.143,261.358c4.53-0.884,28.716-16.574,41.39-17.407c12.672-0.833,15.207,0.837,23.357-0.03
					c8.146-0.858-14.642,13.511-20.999,17.121c-6.354,3.608-16.373,8.064-5.517,8.13c10.857,0.065,17.94,1.003,27.961,0.148
					c10.02-0.851,19.042,1.827,27.191,0.56c8.15-1.267,14.524-8.531,27.188-8.455c12.666,0.078,9.04,0.965,25.304,4.711
					c16.263,3.746,35.249,5.686,37.931,11.168c2.68,5.49,12.593,11.931,17.117,11.959c4.523,0.029,37.98,2.966,42.522,0.258
					c4.538-2.711,16.296-1.729,29.892-6.204c13.6-4.479,29.906-8.025,32.616-7.097c2.708,0.925-9.937-2.798,4.48,7.32
					c14.415,10.118,24.35,12.913,17.084,17.43c-7.265,4.517-24.484,8.971-19.997,15.381c4.483,6.411,25.291,6.536,8.054,14.639
					c-17.239,8.104-5.516,14.56-5.516,14.56s-5.5,11.821-8.215,11.805c-2.713-0.017-2.785,11.84-38.12,19.832
					c-35.333,7.992-66.214,27.868-77.088,30.541c-10.872,2.669,6.03,1.858-22.818,8.98c-28.849,7.119-56.973,19.72-56.973,19.72
					s6.136,3.684,25.648,8.358c19.512,4.681,13.163,7.375,26.743,5.635c13.582-1.743,12.71-7.216,28.074-4.389
					c15.365,2.825,46.137,1.189,59.754-6.937c13.623-8.124,61.479-21.459,62.516-28.775c1.036-7.318,10.907-11.817,21.825-12.663
					c10.915-0.848,13.59,5.552,22.698-4.424c9.108-9.976,23.635-18.096,33.605-21.682c9.975-3.591,24.435-0.765,39.814-0.672
					c15.38,0.093,36.149,6.599,49.722,6.681c13.569,0.082,33.48-0.708,28,7.467c-5.477,8.173-33.572,16.213-27.321,29.928
					c6.25,13.714,41.419,18.487,52.363,18.554c10.944,0.066,37.983,2.964,46.124,3.014c8.143,0.049,40.74-4.313,40.74-4.313
					s30.791-4.372,6.387-9.082c-24.398-4.705-38.923,3.413-47.043-0.283c-8.121-3.696-8.093-8.255-17.124-11.046
					c-9.033-2.79-2.616-16.433,0.098-16.415c2.714,0.018,12.682-2.655,37.09,1.138c24.403,3.795,50.655,1.217,71.46,2.254
					c20.801,1.037,32.54,11.141,40.209,12.1c7.666,0.956,42.092-7.044,44.817-8.853c2.728-1.807,47.102-8.832,49.816-8.814
					c2.714,0.015,8.123,2.781,22.587,4.693c14.468,1.91,23.5,3.789,23.5,3.789s17.136,10.137,36.463,5.39
					c19.326-4.746,24.144-2.896,36.211-3.431c12.064-0.538,30.783-3.464,36.831-6.467c6.052-3.001,36.299-18.323,63.449-19.07
					c27.147-0.749,35.306-3.433,43.453-4.296c8.147-0.865-5.446,2.7,27.141,0.163c32.589-2.539,28.073-4.392,39.836-4.321
					c11.765,0.072,14.421,9.207,25.267,11.096c10.844,1.891,51.509,10.34,51.509,10.34s23.51,1.967,31.686-2.543
					c8.165-4.512,37.155-10.719,47.111-11.569c9.957-0.851,52.489-2.42,52.489-2.42s1.859-8.196,7.306-10.898
					c5.444-2.704-1.755-8.822-6.28-9.005c-4.522-0.179-29.813-6.716-38.824-13.153c-9.01-6.438-11.701-10.103-25.21-20.216
					c-13.51-10.11-11.662-16.485-28.82-22.058c-17.156-5.576-29.294-17.503-29.294-17.503s6.809-4.52,15.866-6.288
					c9.059-1.771,30.762,0.186,37.129-5.249c6.366-5.432,12.697-5.396,29.915-9.848c17.214-4.46,28.098-8.565,34.436-9.177
					c6.338-0.61,37.096,5.047,47.047,5.105c9.95,0.063,20.861,1.952,20.835,6.51c-0.027,4.56-3.527,246.935-3.527,246.935
					L-2.106,501.247L1.143,261.358z"/>
			</g>
			<g>
				<path fill="#FC8683" d="M556.813,158.196c-4.533-0.882-12.188,0.926-14.065,0.008c-1.873-0.916-5.092-4.141-7.673-3.977
					c-2.582,0.164-2.962-0.489-2.962-0.489s-4.289-3.909-1.175-7.762c3.115-3.854,7.254-7.097,11.41-6.866
					c4.155,0.23,14.368,3.971,15.6,3.787c1.233-0.185,7.87,10.055,3.368,12.678C556.813,158.196,556.813,158.196,556.813,158.196z"
					/>
			</g>
			<g>
				<path fill="#FC8683" d="M598.82,208.645c-1.787,0-10.281,0.894-12.069,0c-1.791-0.894-6.261,0.671-8.496,0
					c-2.233-0.671-7.823-0.79-10.057-0.283c-2.236,0.506-4.472,0.655-6.482-0.313c-2.014-0.967-7.601-2.713-7.601-2.713
					s-0.668-4.738,0-5.855c0.669-1.118-1.042-3.332-0.297-4.348c0.746-1.016,3.651-4.145,7.004-3.699
					c3.352,0.449,9.386-0.043,9.386-0.043s7.376-1.074,10.507-1.521c3.128-0.448,14.304,0.894,15.868,2.013
					c1.565,1.117,6.26,1.563,7.153,1.788c0.896,0.224,4.471,0.446,6.036,0.224c1.565-0.224,16.989,0.689,19.223,1.238
					c2.234,0.551,10.73,5.104,16.765,4.277c6.034-0.822,11.4-1.494,18.553-2.611c7.151-1.115,22.798-1.115,25.48-0.222
					c2.681,0.893,0,4.021-14.083,6.032c-14.082,2.013-25.705,5.813-30.844,7.824c-5.141,2.012-2.907,1.342-5.141,2.012
					c-2.234,0.672-6.037,1.342-8.496,2.459s-3.584,3.352-9.055,3.799c-5.472,0.447-12.402,0.894-18.661,1.342
					c-6.259,0.447-9.164-0.895-13.186-1.789c-4.027-0.895-3.577,0.225-5.813-0.668c-2.235-0.895-0.67-4.025,0.224-4.025
					c0.894,0,10.506-0.445,11.625-1.564C597.479,210.88,598.82,208.645,598.82,208.645z"/>
			</g>
			<g>
				<path fill="#FC8683" d="M493.065,172.519c-11.276-1.646-31.467,1.313-39.899,0.073s-25.036,3.67-25.036,3.67l-16.174-3.403
					l-53.996-2.535c0,0-13.594,2.928-21.423,0.17c-7.831-2.757-14.495-5.08-18.073-5.104c-3.58-0.026-9.161-0.583-9.161-0.583
					s-36.165,5.55-36.023-3.498c0.151-9.686,37.08-2.432,38.615-3.207c1.536-0.777-0.972-2.883-2.088-2.994
					c-1.117-0.111-6.33-0.447-2.52-2.381c3.812-1.933,7.199-1.332,8.158-2.297c0.959-0.964,42.15,4.273,43.116,5.23
					c0.966,0.959,1.005,1.228,4.124,1.87c3.12,0.644,15.202,0.522,18.432,0.049c3.23-0.473,6.113,0.432,9.196,0.83
					c3.083,0.396,27.495-4.33,30.393-4.455c2.897-0.127-2.448-2.829,5.278-0.774c7.726,2.053,34.662,2.642,36.056,2.437
					c1.395-0.205-3.568-0.301,9.876-1.447c13.442-1.146,15.665-1.471,18.308-1.034c2.641,0.438,16.215,2.985,10.7,10.394
					C495.411,170.937,493.065,172.519,493.065,172.519z"/>
			</g>
			<g>
				<path fill="#FC8683" d="M935.546,162.459c5.981,0,64.767,0.827,70.733,0.827c5.981,0,43.809,0,43.809,0
					s31.899-9.083,35.886-11.837c3.972-2.753-19.933-10.872-51.813-14.177c-31.848-3.304-77.688-0.481-83.668-1.583
					c-5.961-1.101-25.899-2.745-35.866-2.045c-9.955,0.702-41.854,8.16-43.828,11.113c-1.991,2.957,5.981,12.536,17.931,14.733"/>
			</g>
			<path fill="#FC7A64" d="M-39.5,679.286c0-2.667,0-5.333,0-8"/>
		</g>
	</g>
</g>
<g id="Birds">
	<polygon fill="#FFE4E3" points="785.935,151.151 777.983,159.103 770.032,151.151 777.983,155.935 785.935,151.151 	"/>
	<polygon fill="#FFE4E3" points="777.983,154.508 770.032,162.46 762.081,154.507 770.032,159.292 777.983,154.508 	"/>
	<polygon fill="#FFE4E3" points="776.201,158.75 768.25,166.702 760.299,158.749 768.25,163.533 776.201,158.75 	"/>
	<polygon fill="#FFE4E3" points="775.934,162.768 770.032,168.67 764.131,162.768 770.032,166.318 775.934,162.768 	"/>
	<polygon fill="#FFE4E3" points="772.103,164.04 766.2,169.942 760.299,164.04 766.2,167.59 772.103,164.04 	"/>
	<polygon fill="#FFE4E3" points="768.377,169.518 762.476,175.421 756.573,169.518 762.476,173.069 768.377,169.518 	"/>
</g>
<g id="Swatches">
</g>
</svg>
