<?xml version="1.0" encoding="utf-8"?>
<!-- Generator: Adobe Illustrator 15.0.0, SVG Export Plug-In . SVG Version: 6.00 Build 0)  -->
<!DOCTYPE svg PUBLIC "-//W3C//DTD SVG 1.1//EN" "http://www.w3.org/Graphics/SVG/1.1/DTD/svg11.dtd">
<svg version="1.1" id="WAAAR_x21__x21__x21_" xmlns="http://www.w3.org/2000/svg" xmlns:xlink="http://www.w3.org/1999/xlink"
	 x="0px" y="0px" width="1400px" height="503.572px" viewBox="0 0 1400 503.572" enable-background="new 0 0 1400 503.572"
	 xml:space="preserve">
<g>
	<path stroke="#000000" d="M256.257,363.841l-86.568-213.355l47.127-0.179l42.553,106.68l40.587-104.942l2.048-0.007l41.37,104.636
		l41.749-107l47.123-0.176l-84.665,213.12l-7.614,0.026l-38.692-92.643l-37.697,93.808L256.257,363.841z"/>
	<path stroke="#000000" d="M504.224,141.616l4.394-0.016l88.918,216.562l-47.127,0.181l-8.575-22.506l-69.368,0.261l-8.111,22.566
		l-47.419,0.18L504.224,141.616z M526.177,296.666l-19.23-54.365l-19.407,54.512L526.177,296.666z"/>
	<path stroke="#000000" d="M695.359,140.897l4.394-0.016l88.918,216.564l-47.125,0.177l-8.573-22.506l-69.369,0.264l-8.109,22.566
		l-47.421,0.179L695.359,140.897z M717.312,295.949l-19.23-54.369l-19.407,54.516L717.312,295.949z"/>
	<path stroke="#000000" d="M886.499,140.178l4.391-0.016l88.921,216.566l-47.128,0.176l-8.573-22.505l-69.37,0.26l-8.111,22.568
		l-47.42,0.177L886.499,140.178z M908.45,295.232l-19.232-54.372l-19.407,54.514L908.45,295.232z"/>
	<path stroke="#000000" d="M1113.283,356.224l-42.453-79.751l-20.197,0.075l0.302,79.913l-41.857,0.153l-0.786-209.282l82.544-0.313
		c74.642-0.28,82.352,104.775,20.953,122.863l48.913,86.162L1113.283,356.224z M1050.483,235.866l36.882-0.137
		c28.389-0.107,28.212-46.943-0.179-46.836l-36.882,0.138L1050.483,235.866z"/>
	<path stroke="#000000" d="M1182.277,334.599c-0.118-31.028,47.885-31.209,48.002-0.18
		C1230.399,365.446,1182.395,365.626,1182.277,334.599z M1183.035,146.673l45.075-0.169l0.293,77.569
		c-1.672,22.835-3.331,48.309-5.593,69.101c-10.83,0.039-22.247,0.085-33.077,0.123c-2.423-20.773-4.272-46.233-6.405-69.055
		L1183.035,146.673z"/>
</g>
</svg>
