<?xml version="1.0" encoding="utf-8"?>
<!-- Generator: Adobe Illustrator 15.0.0, SVG Export Plug-In . SVG Version: 6.00 Build 0)  -->
<!DOCTYPE svg PUBLIC "-//W3C//DTD SVG 1.1//EN" "http://www.w3.org/Graphics/SVG/1.1/DTD/svg11.dtd">
<svg version="1.1" xmlns="http://www.w3.org/2000/svg" xmlns:xlink="http://www.w3.org/1999/xlink" x="0px" y="0px" width="1400px"
	 height="503.572px" viewBox="0 0 1400 503.572" enable-background="new 0 0 1400 503.572" xml:space="preserve">
<g id="sea">
	<path fill="#118171" d="M0.976,161.65c0,0,50.575,8.773,72.574,10.207c21.999,1.434,46.832,1.261,55.143,0.347
		c8.31-0.915,19.444,1.289,22.499,0.665s10.638,0.634,11.738-0.367c1.1-1.002,55.855,3.171,62.088,2.548
		c6.233-0.622,19.923,9.885,31.656,7.44c11.733-2.444,59.397,4.398,72.841,1.955c13.444-2.444,65.508,0.488,74.308-2.201
		c8.8-2.689,29.333,5.717,39.11,2.736c9.777-2.98,22.243-3.226,31.776-3.471c9.533-0.244,74.796,10.266,78.218,10.511
		c3.422,0.245,79.685,5.866,84.207,4.155c4.522-1.71,48.917-1.278,57.029-2.228c8.113-0.95,22.535-3.195,27.177-4.639
		c4.645-1.444,53.287,5.889,60.375,5.4c7.088-0.489,50.338-2.445,54.012-2.689s19.813,3.667,29.709,2.689s74.672-1.467,79.561-1.467
		s89.705,2.688,99.729,0.244c10.021-2.444,38.619-2.2,44.486-3.911s24.688-5.622,32.143-8.188c7.455-2.567,21.021-5.5,24.32-3.544
		c3.301,1.956,50.598,5.867,54.998,4.889s45.709,1.467,52.797,0.733s34.221,4.155,38.865,6.11s41.797,6.355,48.152,5.866
		c6.355-0.489,32.754-7.333,38.865-9.289c6.111-1.955,14.818-0.733,24.596,7.089c9.777,7.822,6.813,3.257,6.813,3.257v342.859
		L1.732,538.992L0.976,161.65z"/>
	<path fill="#105A66" d="M0.265,184.81c0,0,26.766-6.966,36.482-3.483c9.716,3.483,20.166,9.533,27.132,11.549
		s48.031,18.149,56.647,19.433s141.893,13.016,150.875,12.099c8.983-0.917,38.865,1.1,45.098,0.917
		c6.233-0.183,160.222-4.95,172.414-9.716c12.193-4.767,118.521-0.377,148.22-4.222c29.698-3.845,138.593,1.655,153.992-1.645
		c15.4-3.3,101.563-16.499,114.762-11.732c13.199,4.766,31.898,7.333,43.998,7.7c12.098,0.366,23.832,4.399,32.998,7.516
		s50.598,3.117,60.496,3.483c9.9,0.367,94.412,1.284,107.061-0.183c12.65-1.467,258.947-2.933,258.947-2.933l1.557,325.4H1.732
		L0.265,184.81z"/>
	<path fill="#145A66" d="M0.265,231.79c0,0,26.766-5.897,36.482-2.948c9.716,2.948,20.166,8.071,27.132,9.778
		s48.031,15.365,56.647,16.452s141.893,11.02,150.875,10.243c8.983-0.775,38.865,0.932,45.098,0.776
		c6.233-0.155,160.222-4.19,172.414-8.226c12.193-4.036,118.521-0.318,148.22-3.574c29.698-3.256,138.593,1.401,153.992-1.393
		c15.4-2.794,101.563-13.97,114.762-9.934c13.199,4.035,31.898,6.209,43.998,6.519c12.098,0.312,23.832,3.725,32.998,6.364
		c9.166,2.639,50.598,2.639,60.496,2.948c9.9,0.311,94.412,1.087,107.061-0.155c12.65-1.241,258.947-2.482,258.947-2.482
		l1.557,275.5H1.732L0.265,231.79z"/>
	<path fill="#0A4C5C" d="M1.067,293.338c0,0,29.63-1.833,43.563,0s77.363-2.934,94.962-4.033
		c17.599-1.101,44.731-7.333,53.897-6.233c9.167,1.1,33.365,5.052,40.698,5.275c7.333,0.225,24.932,5.357,43.264,3.158
		c18.333-2.2,77.729-2.2,89.462-2.2c11.732,0,56.097-0.081,64.163-0.958c8.066-0.875,18.699,0.958,23.833-1.975
		c5.133-2.934,36.298-8.066,48.397-9.533c12.099-1.467,56.464-12.833,81.396-12.467c24.932,0.367,71.863,20.899,105.594,12.1
		c33.732-8.799,109.262-9.899,122.461-4.033c13.199,5.867,72.596,19.433,86.529,19.066c13.932-0.367,69.695-1.101,87.096-3.301
		c17.398-2.199,83.029-4.399,94.578-3.299c11.549,1.1,69.113,6.6,81.945,1.832c12.832-4.766,60.498-0.365,78.83-1.466
		s63.797-1.101,85.428-2.933c21.633-1.834,29.699,1.466,38.498-0.367c8.801-1.834,43.633,1.467,43.633,1.467l1.648,255.187
		L1.732,538.992L1.067,293.338z"/>
	<rect x="1548.002" y="432.988" fill="#000847" width="79.25" height="29.488"/>
	<rect x="1548.002" y="403.5" fill="#073654" width="79.25" height="29.488"/>
	<rect x="1548.002" y="374.012" fill="#154364" width="79.25" height="29.488"/>
	<rect x="1548.002" y="345.012" fill="#0C4A55" width="79.25" height="29.488"/>
	<rect x="1548.002" y="344.523" fill="#0A4C5C" width="79.25" height="29.488"/>
	<rect x="1548.002" y="315.523" fill="#0F7869" width="79.25" height="29.488"/>
	<rect x="1548.002" y="257.5" fill="#44CA98" width="79.25" height="29.488"/>
	<rect x="1548.002" y="286.988" fill="#118171" width="79.25" height="29.488"/>
</g>
<g id="logo">
	<path fill="#FFFFFF" d="M462.547,376.224l-93.322-232.516h51.28l45.866,116.258l44.592-114.029h2.229l44.593,114.029
		l45.866-116.258h51.279L561.926,375.27h-8.282l-41.726-100.972l-41.407,101.926C467.857,376.224,465.202,376.224,462.547,376.224
		L462.547,376.224z M733.283,135.427h4.778l95.873,236.02h-51.281l-9.236-24.525H697.93l-8.919,24.525c-17.2,0-34.398,0-51.599,0
		c9.971-24.536,19.935-49.075,29.901-73.612c9.968-24.538,19.936-49.076,29.901-73.614c9.959-24.519,19.917-49.037,29.877-73.555
		C729.156,145.586,731.223,140.507,733.283,135.427L733.283,135.427z M756.535,304.239l-20.705-59.244
		c-7.111,19.748-14.224,39.497-21.338,59.244C728.507,304.239,742.521,304.239,756.535,304.239L756.535,304.239z M979.174,371.446
		l-45.864-86.955h-21.977v86.955h-45.548V143.708h89.821c11.511,0,23.125,2.441,33.31,7.911
		c9.598,5.153,17.578,12.967,23.279,22.224c12.384,20.109,14.054,46.555,4.903,68.254c-7.188,17.045-21.356,30.205-39.196,35.387
		c12.952,23.015,25.899,46.029,38.851,69.045c4.672,8.303,9.222,16.688,14.022,24.919c-8.999,0-17.998,0-26.997,0
		C995.576,371.446,987.375,371.446,979.174,371.446L979.174,371.446z M911.333,240.22h40.133c5.311,0,10.624-1.705,14.687-5.182
		c4.169-3.568,6.753-8.715,7.852-14.036c1.799-8.715-0.206-18.733-6.501-25.267c-3.588-3.725-8.302-5.801-13.428-6.286
		c-3.13-0.298-6.296-0.194-9.437-0.194c-3.271,0-6.543,0-9.813,0c-6.632,0-13.266,0-19.897,0c-0.31,0-3.594-0.008-3.594,0.01
		c0,0.082,0,0.166,0,0.25c0,0.455,0,0.912,0,1.367c0,11.172,0,22.344,0,33.516C911.333,229.671,911.333,234.945,911.333,240.22
		L911.333,240.22z"/>
</g>
<g id="Boat">
	<g>
		<g>
			<g>
				<path fill="#44B788" d="M562.176,245.575c-0.053,2.015-1.779,3.656-3.794,3.604s-3.656-1.779-3.603-3.794
					c0.052-2.016,1.779-3.655,3.794-3.603C560.587,241.833,562.228,243.561,562.176,245.575
					C562.123,247.618,562.229,243.534,562.176,245.575z"/>
			</g>
			<g>
				<path fill="#44B788" d="M561.999,247.587c-0.052,2.01-3.169,1.929-3.118-0.081C558.934,245.496,562.05,245.577,561.999,247.587
					C561.976,248.448,562.021,246.727,561.999,247.587z"/>
			</g>
			<g>
				<path fill="#44B788" d="M560.496,248.124c-0.069,2.69-4.242,2.583-4.172-0.108C556.393,245.326,560.565,245.434,560.496,248.124
					C560.466,249.276,560.526,246.972,560.496,248.124z"/>
			</g>
			<g>
				<path fill="#44B788" d="M558.056,246.909c-0.055,2.103-3.315,2.019-3.261-0.084C554.849,244.721,558.11,244.806,558.056,246.909
					C558.032,247.809,558.079,246.009,558.056,246.909z"/>
			</g>
			<g>
				<path fill="#44B788" d="M557.245,244.873c-0.054,2.103-3.316,2.019-3.261-0.084C554.037,242.685,557.299,242.77,557.245,244.873
					C557.222,245.772,557.268,243.972,557.245,244.873z"/>
			</g>
			<g>
				<path fill="#44B788" d="M558.744,242.607c-0.054,2.103-3.315,2.019-3.262-0.084
					C555.537,240.419,558.798,240.504,558.744,242.607C558.721,243.507,558.767,241.706,558.744,242.607z"/>
			</g>
			<g>
				<path fill="#44B788" d="M561.777,242.109c-0.069,2.656-4.188,2.55-4.12-0.106C557.727,239.346,561.846,239.453,561.777,242.109
					C561.748,243.248,561.807,240.972,561.777,242.109z"/>
			</g>
			<g>
				<path fill="#44B788" d="M563.599,244.172c-0.055,2.104-3.317,2.019-3.262-0.084S563.652,242.069,563.599,244.172
					C563.575,245.074,563.622,243.271,563.599,244.172z"/>
			</g>
			<g>
				<path fill="#44B788" d="M563.833,245.331c-0.064,2.443-3.853,2.346-3.79-0.098C560.107,242.789,563.896,242.887,563.833,245.331
					C563.806,246.377,563.86,244.284,563.833,245.331z"/>
			</g>
			<g>
				<path fill="#44B788" d="M560.116,245.234c-0.055,2.103-3.316,2.019-3.262-0.084C556.908,243.047,560.17,243.131,560.116,245.234
					C560.092,246.135,560.139,244.334,560.116,245.234z"/>
			</g>
		</g>
	</g>
	<g>
		<g>
			<g>
				<path fill="#44CA98" d="M565.125,257.171c-0.052,2.016-1.778,3.655-3.794,3.604c-2.016-0.052-3.656-1.779-3.604-3.795
					s1.779-3.654,3.794-3.603S565.177,255.155,565.125,257.171C565.072,259.214,565.178,255.129,565.125,257.171z"/>
			</g>
			<g>
				<path fill="#44CA98" d="M564.947,259.183c-0.051,2.008-3.168,1.928-3.117-0.08C561.882,257.092,565,257.171,564.947,259.183
					C564.925,260.043,564.97,258.322,564.947,259.183z"/>
			</g>
			<g>
				<path fill="#44CA98" d="M563.445,259.72c-0.07,2.691-4.242,2.583-4.172-0.108C559.343,256.921,563.515,257.029,563.445,259.72
					C563.416,260.871,563.475,258.567,563.445,259.72z"/>
			</g>
			<g>
				<path fill="#44CA98" d="M561.005,258.505c-0.055,2.104-3.316,2.02-3.261-0.085C557.798,256.315,561.059,256.401,561.005,258.505
					C560.982,259.405,561.028,257.604,561.005,258.505z"/>
			</g>
			<g>
				<path fill="#44CA98" d="M560.194,256.468c-0.055,2.102-3.316,2.019-3.261-0.084C556.987,254.28,560.248,254.364,560.194,256.468
					C560.17,257.368,560.217,255.567,560.194,256.468z"/>
			</g>
			<g>
				<path fill="#44CA98" d="M561.693,254.202c-0.055,2.104-3.316,2.021-3.261-0.084C558.486,252.015,561.747,252.1,561.693,254.202
					C561.669,255.103,561.716,253.302,561.693,254.202z"/>
			</g>
			<g>
				<path fill="#44CA98" d="M564.727,253.704c-0.068,2.657-4.188,2.553-4.12-0.105C560.675,250.941,564.795,251.048,564.727,253.704
					C564.697,254.843,564.756,252.567,564.727,253.704z"/>
			</g>
			<g>
				<path fill="#44CA98" d="M566.547,255.768c-0.055,2.104-3.315,2.019-3.262-0.085C563.34,253.58,566.602,253.665,566.547,255.768
					C566.524,256.669,566.571,254.866,566.547,255.768z"/>
			</g>
			<g>
				<path fill="#44CA98" d="M566.782,256.926c-0.063,2.443-3.854,2.346-3.79-0.099C563.055,254.384,566.845,254.482,566.782,256.926
					C566.755,257.972,566.809,255.88,566.782,256.926z"/>
			</g>
			<g>
				<path fill="#44CA98" d="M563.065,256.829c-0.055,2.103-3.316,2.02-3.262-0.084C559.857,254.643,563.119,254.728,563.065,256.829
					C563.042,257.729,563.088,255.93,563.065,256.829z"/>
			</g>
		</g>
	</g>
	<g>
		<g>
			<g>
				<path fill="#44CA98" d="M557.835,233.046c-0.079,3.055-2.697,5.539-5.751,5.46c-3.054-0.079-5.539-2.696-5.46-5.75
					c0.079-3.054,2.695-5.541,5.75-5.461C555.43,227.374,557.915,229.99,557.835,233.046
					C557.755,236.141,557.916,229.949,557.835,233.046z"/>
			</g>
			<g>
				<path fill="#44CA98" d="M560.207,237.675c-0.05,1.925-1.699,3.489-3.623,3.439c-1.923-0.05-3.489-1.698-3.439-3.622
					c0.05-1.924,1.698-3.49,3.622-3.44C558.692,234.102,560.257,235.749,560.207,237.675
					C560.157,239.624,560.258,235.724,560.207,237.675z"/>
			</g>
			<g>
				<path fill="#44CA98" d="M556.805,238.891c-0.067,2.577-2.274,4.671-4.85,4.604c-2.575-0.066-4.67-2.274-4.604-4.849
					s2.272-4.672,4.848-4.605C554.776,234.108,556.872,236.314,556.805,238.891C556.737,241.501,556.873,236.28,556.805,238.891z"/>
			</g>
			<g>
				<path fill="#44CA98" d="M557.615,241.078c-0.066,2.577-2.274,4.671-4.85,4.604c-2.576-0.066-4.67-2.274-4.604-4.849
					c0.066-2.576,2.272-4.671,4.848-4.605C555.586,236.294,557.682,238.501,557.615,241.078
					C557.547,243.688,557.683,238.466,557.615,241.078z"/>
			</g>
			<g>
				<path fill="#44CA98" d="M565.038,238.671c-0.066,2.576-2.273,4.672-4.85,4.605c-2.576-0.066-4.671-2.274-4.605-4.85
					c0.067-2.576,2.273-4.672,4.849-4.605C563.009,233.887,565.104,236.095,565.038,238.671
					C564.971,241.281,565.105,236.061,565.038,238.671z"/>
			</g>
			<g>
				<path fill="#44CA98" d="M551.276,236.139c-0.052,2.013-1.777,3.651-3.79,3.599s-3.651-1.777-3.599-3.79
					c0.052-2.014,1.776-3.652,3.791-3.6C549.69,232.4,551.328,234.125,551.276,236.139
					C551.223,238.179,551.329,234.097,551.276,236.139z"/>
			</g>
			<g>
				<path fill="#44CA98" d="M552.788,228.122c-0.052,2.013-1.777,3.652-3.79,3.6c-2.014-0.052-3.651-1.777-3.599-3.791
					c0.052-2.014,1.776-3.651,3.79-3.599S552.84,226.108,552.788,228.122C552.735,230.162,552.841,226.081,552.788,228.122z"/>
			</g>
			<g>
				<path fill="#44CA98" d="M562.989,231.648c-0.071,2.757-2.432,4.999-5.188,4.927c-2.756-0.071-5-2.433-4.928-5.189
					s2.433-4.999,5.189-4.928C560.818,226.529,563.06,228.891,562.989,231.648C562.917,234.442,563.061,228.854,562.989,231.648z"/>
			</g>
			<g>
				<path fill="#44CA98" d="M555.941,232.344c-0.052,2.014-1.777,3.652-3.792,3.6c-2.013-0.052-3.65-1.779-3.598-3.791
					c0.052-2.013,1.776-3.652,3.789-3.6C554.355,228.605,555.994,230.33,555.941,232.344
					C555.889,234.384,555.994,230.303,555.941,232.344z"/>
			</g>
		</g>
	</g>
	<polygon fill="#000847" points="518.434,326.619 587.411,328.402 588.083,302.411 519.106,300.628 518.434,326.619 
		518.434,326.619 	"/>
	<path fill="#000847" d="M723.701,318.921c-9.063-0.234-18.125-0.469-27.188-0.702c-7.932-0.205-15.864-0.41-23.795-0.615
		c-0.017,0.666-0.034,1.333-0.051,1.999c-4.96-0.128-9.919-0.256-14.879-0.385c-0.927-0.023-1.854-0.048-2.781-0.071
		c-0.725-0.019-0.371,1.404-0.385,1.972c-0.027,1.047,0.131,1.022-0.843,0.997c-1.224-0.031-2.448-0.063-3.673-0.095
		c-3.502-0.091-7.003-0.181-10.505-0.271c0.043-1.666,0.086-3.333,0.129-4.999c-5.665-0.146-11.33-0.292-16.994-0.438
		c0.961-0.927,0.013-1-0.781-1.021c-1.421-0.037-2.841-0.074-4.262-0.11c-0.974-0.025-1.948-0.051-2.922-0.076
		c-0.013,0-0.077,2.71-0.084,2.999c-1.333-0.034-2.666-0.069-3.999-0.104c-0.007,0.278,0.064,2.003-0.135,1.998
		c-0.351-0.009-0.701-0.019-1.051-0.027c-1.716-0.044-3.432-0.089-5.147-0.133c-5.905-0.153-11.809-0.306-17.713-0.458
		c-8.996-0.233-17.992-0.466-26.988-0.698c-0.064,2.479-0.128,4.96-0.192,7.439c-0.015,0.572-0.42,1.548,0.287,1.566
		c1.644,0.042,3.288,0.085,4.932,0.127c8.042,0.208,16.084,0.416,24.126,0.624c12.031,0.311,24.063,0.622,36.094,0.933
		c13.201,0.342,26.402,0.683,39.604,1.024c11.552,0.299,23.104,0.597,34.656,0.896c7.083,0.184,14.167,0.366,21.25,0.55
		c0.985,0.025,1.971,0.051,2.956,0.076C723.478,327.585,723.589,323.253,723.701,318.921L723.701,318.921z"/>
	<path fill="#43072D" d="M740.492,319.745c0.03,7.397-2.613,15.473-7.653,20.932c-4.842,5.245-11.744,7.524-18.757,7.677
		c-3.318,0.072-6.657-0.098-9.976-0.167c-9.85-0.205-19.7-0.42-29.551-0.635c-13.297-0.29-26.595-0.585-39.893-0.88
		c-14.422-0.32-28.844-0.642-43.266-0.965c-13.224-0.296-26.448-0.593-39.672-0.89c-9.704-0.218-19.407-0.437-29.11-0.655
		c-3.859-0.087-7.719-0.175-11.579-0.262c-0.239-0.005-1.085-1.894-1.198-2.095c-1.071-1.909-2.116-3.833-3.124-5.776
		c-1.149-2.216-2.263-4.456-3.235-6.755c-0.648-1.532-1.547-3.373-1.503-5.081c1.195,0.031,2.391,0.062,3.586,0.093
		c0.446,0.012,0.979,0.65,1.404,0.852c4.2,1.995,9.75,0.944,13.995-0.324c3.959-1.184,7.825-3.071,11.047-5.689
		c0.241-0.195,0.301-0.148,0.657-0.14c1.151,0.03,2.301,0.06,3.452,0.09c4.068,0.104,8.145,0.116,12.204,0.412
		c5.759,0.42,11.519,0.839,17.278,1.259c1.274,0.093,2.532,0.157,3.809,0.189c0.581,0.016,7.036-0.062,7.085,0.188
		c0.188,0.968,1.118,1.803,1.865,2.348c2.83,2.063,6.703,2.591,10.092,2.847c9.3,0.701,18.713-0.561,27.985-1.162
		c10.725-0.695,21.404-0.451,32.136-0.174c9.32,0.241,18.64,0.482,27.96,0.724c3.735,0.096,7.488,0.309,11.225,0.278
		c5.636-0.046,11.292-0.399,16.885-1.099c3.766-0.472,7.543-1.098,11.185-2.188c1.542-0.461,3.071-1.01,4.505-1.748
		c0.728-0.375,1.27-0.93,2.089-0.941C728.444,319.92,734.469,319.833,740.492,319.745L740.492,319.745z"/>
	<polygon fill="#44CA98" points="585.084,302.334 581.085,302.23 581.628,281.237 585.626,281.341 585.084,302.334 	"/>
	<polygon fill="#44CA98" points="619.891,310.235 616.892,310.158 617.047,304.16 620.046,304.237 619.891,310.235 	"/>
	<polygon fill="#44CA98" points="541.099,301.196 539.099,301.146 539.254,295.147 541.253,295.198 541.099,301.196 	"/>
	<polygon fill="#43072D" points="540.994,294.892 539.264,294.848 539.538,284.256 541.268,284.301 540.994,294.892 	"/>
	<polygon fill="#43072D" points="540.862,284.29 539.998,284.269 540.232,275.188 541.097,275.21 540.862,284.29 	"/>
	<polygon fill="#43072D" points="584.429,280.873 583.564,280.851 583.799,271.772 584.664,271.795 584.429,280.873 	"/>
	<polygon fill="#44CA98" points="528.103,300.86 527.103,300.835 527.517,284.84 528.516,284.866 528.103,300.86 	"/>
	<polygon fill="#44CA98" points="568.089,301.895 552.095,301.48 553.206,258.495 569.201,258.909 568.089,301.895 	"/>
	<polygon fill="#118171" points="560.092,301.688 552.095,301.48 553.206,258.495 561.203,258.702 560.092,301.688 	"/>
	<polygon fill="#44CA98" points="569.201,258.909 553.206,258.495 553.283,255.496 569.278,255.909 569.201,258.909 	"/>
	<polygon fill="#43072D" points="568.904,283.122 553.26,282.718 553.899,257.974 569.544,258.378 568.904,283.122 	"/>
	<polygon fill="#44CA98" points="621.761,315.286 613.764,315.079 613.893,310.081 621.891,310.287 621.761,315.286 	"/>
	<polygon fill="#44CA98" points="658.671,319.24 654.673,319.138 655.371,292.146 659.369,292.25 658.671,319.24 	"/>
	<polygon fill="#43072D" stroke="#000000" stroke-width="3" stroke-miterlimit="10" points="670.956,292.248 670.922,293.546 
		644.01,292.851 644.043,291.553 670.956,292.248 	"/>
	<polygon fill="#44CA98" points="723.65,320.92 718.651,320.791 719.35,293.8 724.348,293.93 723.65,320.92 	"/>
	<path fill="#43072D" stroke="#000000" stroke-width="3" stroke-miterlimit="10" d="M645.329,292.032
		c-0.039,1.517-2.39,1.455-2.352-0.061C643.018,290.455,645.368,290.517,645.329,292.032
		C645.313,292.682,645.346,291.383,645.329,292.032z"/>
	<path fill="#43072D" stroke="#000000" stroke-width="3" stroke-miterlimit="10" d="M619.988,302.733
		c-0.058,2.249-3.545,2.159-3.487-0.09C616.559,300.396,620.046,300.485,619.988,302.733
		C619.963,303.696,620.013,301.771,619.988,302.733z"/>
	<polygon fill="#44CA98" points="697.865,312.251 694.866,312.174 695.021,306.176 698.02,306.253 697.865,312.251 	"/>
	<polygon fill="#44CA98" points="700.709,318.326 692.712,318.12 692.867,312.122 700.864,312.328 700.709,318.326 	"/>
	<path fill="#43072D" stroke="#000000" stroke-width="3" stroke-miterlimit="10" d="M698.456,304.762
		c-0.058,2.248-3.545,2.159-3.487-0.09C695.027,302.424,698.514,302.514,698.456,304.762
		C698.431,305.725,698.481,303.8,698.456,304.762z"/>
	<polygon fill="#44CA98" points="734.854,313.207 732.854,313.155 733.008,307.157 735.008,307.209 734.854,313.207 	"/>
	<polygon fill="#44CA98" points="737.697,319.282 729.699,319.076 729.854,313.078 737.852,313.284 737.697,319.282 	"/>
	<path fill="#43072D" stroke="#000000" stroke-width="3" stroke-miterlimit="10" d="M736.069,305.734
		c-0.057,2.248-3.547,2.157-3.487-0.091C732.639,303.396,736.126,303.485,736.069,305.734
		C736.045,306.696,736.094,304.771,736.069,305.734z"/>
	<path fill="#43072D" stroke="#000000" stroke-width="3" stroke-miterlimit="10" d="M671.917,292.72
		c-0.04,1.516-2.39,1.455-2.351-0.061C669.606,291.143,671.956,291.203,671.917,292.72C671.9,293.369,671.934,292.07,671.917,292.72
		z"/>
	<polygon fill="#43072D" stroke="#000000" stroke-width="3" stroke-miterlimit="10" points="734.875,292.279 734.842,293.576 
		707.929,292.881 707.962,291.583 734.875,292.279 	"/>
	<path fill="#43072D" stroke="#000000" stroke-width="3" stroke-miterlimit="10" d="M709.248,292.063
		c-0.041,1.515-2.391,1.455-2.352-0.061C706.938,290.485,709.284,290.546,709.248,292.063
		C709.23,292.711,709.264,291.413,709.248,292.063z"/>
	<path fill="#43072D" stroke="#000000" stroke-width="3" stroke-miterlimit="10" d="M735.836,292.75
		c-0.039,1.516-2.388,1.454-2.352-0.061C733.525,291.172,735.877,291.232,735.836,292.75
		C735.819,293.398,735.854,292.1,735.836,292.75z"/>
	
		<line fill="#FFFFFF" stroke="#000000" stroke-width="3" stroke-miterlimit="10" x1="619.778" y1="301.795" x2="643.185" y2="292.667"/>
	
		<line fill="#FFFFFF" stroke="#000000" stroke-width="3" stroke-miterlimit="10" x1="696.712" y1="304.717" x2="671.917" y2="292.72"/>
	
		<line fill="#FFFFFF" stroke="#000000" stroke-width="3" stroke-miterlimit="10" x1="706.588" y1="292.684" x2="694.275" y2="304.196"/>
	
		<line fill="#FFFFFF" stroke="#000000" stroke-width="3" stroke-miterlimit="10" x1="734.564" y1="292.838" x2="734.326" y2="305.689"/>
	<path fill="#FFFFFF" stroke="#000000" stroke-width="3" stroke-miterlimit="10" d="M731.178,342.299
		c-3.881-0.623,0.687-1.057-0.177-2.118c-0.418-0.514-1.525-0.589-2.134-0.604c-0.905-0.023-1.059,1.328-2.109,1.302
		c-0.587-0.016-1.127-0.277-1.708-0.294c-0.563-0.017-1.127,0.142-1.639,0.367c-0.425,0.188-0.769,0.451-1.147,0.711
		c-0.464,0.319-1.002,0.125-1.523,0.13c-0.623,0.007-1.215,0.214-1.827,0.294c-0.441,0.058-0.899-0.004-1.345-0.003
		c-0.617,0.002-2.534-0.161-1.848-1.095c0.589-0.8-1.527-0.81-1.931-0.655c-0.444,0.17-0.761,0.595-1.103,0.904
		c-0.408,0.37-0.991,0.53-1.515,0.675c-0.613,0.171-1.29,0.088-1.919,0.178c-1.188,0.169-2.124,0.047-3.283-0.145
		c-1.224-0.204-2.42,0.212-3.621,0.025c-0.502-0.078-0.935-0.428-1.42-0.476c-0.597-0.059-1.207,0.145-1.798,0.198
		c-0.901,0.083-1.272-0.413-2.045-0.633c-1.121-0.318-2.085,0.107-3.18,0.045c-0.932-0.055-1.973-0.106-2.883,0.129
		c-0.527,0.136-1.353-0.029-1.793,0.339c-0.293,0.245-0.969,0.131-1.31,0.118c-2.239-0.088-4.436,0.184-6.672,0.032
		c-1.25-0.085-2.502-0.132-3.752-0.225c-1.049-0.078-2.151-0.377-3.201-0.199c-0.436,0.074-0.841,0.246-1.29,0.254
		c-0.623,0.012-1.061-0.403-1.645-0.469c-0.439-0.049-0.838,0.251-1.269,0.298c-0.604,0.065-1.104-0.326-1.686-0.4
		c-0.863-0.11-1.657,0.374-2.543,0.329c-0.286-0.015-0.45-0.032-0.584-0.289c-0.251-0.48-0.771-0.759-0.994-1.248
		c-0.592-1.297-3.359,1.292-4.041,1.582c-1.453,0.617-3.275,0.028-4.794,0.029c-1.555,0-3.802,0.43-5.158-0.514
		c-0.237-0.166-0.516-0.55-0.839-0.524c-0.439,0.033-0.653,0.379-1.104,0.081c-0.657-0.434-1.164-1.565-2.118-1.157
		c-0.612,0.262-1.486,0.771-2.158,0.794c-1.092,0.037-2.242-0.385-3.314-0.543c-1.004-0.147-1.824,0.373-2.846,0.156
		c-1.032-0.218-1.597-0.264-2.627-0.005c-0.911,0.229-2.2,0.179-3.091-0.11c-0.903-0.294-1.814-0.433-2.739-0.65
		c-1.146-0.271-1.746,0.405-2.769,0.52c-0.915,0.102-1.31,0.265-2.108-0.101c-0.306-0.141-0.96-0.501-1.311-0.349
		c-0.217,0.094-0.307,0.383-0.547,0.493c-0.481,0.224-0.99,0.189-1.476,0.01c-0.574-0.213-1.08-0.219-1.668-0.337
		c-0.995-0.201-1.559,0.601-2.612,0.493c-0.671-0.068-2.387-0.211-2.726,0.634c-0.145,0.363,0.044,0.493-0.47,0.604
		c-0.343,0.074-0.278-0.08-0.206-0.321c0.182-0.605-0.902-0.523-1.242-0.849c-0.293-0.281-1.421-1.536-1.786-0.69
		c-0.251,0.582-1.488,1.25-1.894,0.457c-0.133-0.261-0.177-0.679-0.524-0.751c-0.349-0.073-0.695,0.232-1.066,0.19
		c-1.539-0.177,0.32-1.077,0.77-1.226c1.325-0.439-0.739-0.861-1.16-0.895c-0.688-0.055-2.151,0.608-1.888,1.479
		c0.177,0.588,0.593,2.05-0.396,1.193c-0.336-0.292-0.759-0.712-1.229-0.748c-0.295-0.022-0.76,0.404-1.067,0.495
		c-0.544,0.161-1.848-0.155-2.043,0.532c-0.105,0.37,0.364,0.896-0.086,1.16c-0.48,0.283-1.245-0.184-1.765-0.189
		c-0.267-0.003-1.15,0.023-1.183-0.397c-0.018-0.22,0.316-0.378,0.365-0.593c0.062-0.27-0.331-0.811-0.628-0.744
		c-0.495,0.109-0.461,0.376-1.095,0.226c-0.543-0.13-0.873-0.038-1.398,0.108c-0.359,0.1-0.71-0.209-1.031-0.328
		c-0.499-0.186-0.923-0.074-1.426-0.122c-0.63-0.061-0.751,0.097-1.313,0.318c-0.423,0.166-0.555,0.186-0.704,0.635
		c-0.145,0.437-0.496,0.578-0.942,0.548c-0.492-0.033-0.9-0.291-1.356-0.442c-0.355-0.117-0.623,0.185-0.954,0.027
		c-0.743-0.353-1.424-0.916-2.223-1.15c-0.98-0.288-2.022,0.007-3.017-0.128c-0.695-0.095-1.162-0.67-1.717,0.1
		c-0.22,0.304-0.285,0.659-0.467,0.975c-0.146,0.251-0.333,0.815-0.533,0.97c-0.568,0.439-1.571,0.054-2.226,0.146
		c-0.592,0.083-0.986-0.162-1.448-0.503c-0.393-0.29-1.25-0.679-1.54-0.04c-0.147,0.325-0.521,0.852-0.926,0.862
		c-0.276,0.008-0.537-0.604-0.848-0.734c-1.114-0.469,0.602-1.519-0.52-2.028c-0.487-0.222-1.234-0.315-1.753-0.222
		c-0.714,0.129-1.417-1-2.188-0.788c-0.291,0.08-0.324,0.458-0.574,0.593c-0.334,0.18-0.936,0.078-1.327,0.2
		c-0.649,0.203-1.037-0.007-1.68-0.06c-0.77-0.063-1.135-0.536-1.92-0.213c-0.39,0.16-0.553,0.619-0.935,0.724
		c-0.519,0.14-0.816,0.45-1.264,0.665c-0.983,0.474-2.609-0.469-3.663-0.498c-0.462-0.014-0.896,0.088-1.359,0.017
		c-0.544-0.085-1.147-0.435-1.698-0.351c-0.516,0.078-0.984,0.398-1.388,0.71c-0.178,0.137-1.342,0.964-1.184,0.109
		c0.037-0.197,0.501-0.447,0.467-0.604c-0.045-0.209-0.875-0.105-1.045-0.136c-0.521-0.09-0.793-0.651-1.338-0.692
		c-0.507-0.038-1.18,0.207-1.656,0.051c-0.91-0.297-1.839,0.026-2.206-1.084c-0.456-1.381-1.473,0.013-2.183,0.033
		c-0.281,0.008-0.151-0.298-0.43-0.354c-0.449-0.09-0.454,0.619-0.711,0.834c-0.229,0.189-0.957,0.465-0.692,0.874
		c0.413,0.638-0.567,0.268-0.773,0.102c-1.02-0.823-2.253-0.652-3.218,0.19c-0.31,0.271-0.275,0.748-0.659,0.965
		c-0.637,0.36-0.891-0.423-1.285-0.7c-0.44-0.311,0.104-0.519-0.072-0.826c-0.261-0.459-0.88,0.014-1.119,0.217
		c-0.249,0.211-1.047,0.276-1.229-0.05c-0.302-0.54-0.45-0.805-0.199-1.395c0.305-0.718,0.551-1.5,0.812-2.237
		c0.108-0.308,0.625-2.217-0.367-1.522c-0.772,0.541-0.807,2.027-1.71,2.326c-0.308,0.101-0.798,0.574-0.834,0.911
		c-0.059,0.532-0.701,0.691-0.863,1.173c-0.241,0.716-1.051,0.586-1.662,0.582c-0.855-0.006-1.722-0.058-2.575,0.021
		c-0.375,0.034-0.742,0.208-0.161,0.3c0.78,0.122,1.59,0.102,2.377,0.113c0.601,0.009,1.234-0.034,1.831,0.056
		c0.992,0.149-0.267,1.394-0.768,1.519c-0.776,0.194-1.63,0.245-2.426,0.186c-0.299-0.023-0.543-0.12-0.828,0.032
		c-0.425,0.228-0.774,0.499-1.26,0.216c-0.537-0.313-0.338-0.468-0.123-0.882c0.272-0.523-0.82-0.438-1.063-0.454
		c-1.624-0.107-0.194-0.995-0.102-0.956c-0.512-0.217-1.045,0.166-1.387-0.466c-0.408-0.753-0.818-0.202-1.341,0.163
		c-0.147,0.104-0.388,0.035-0.562,0.132c-0.397,0.222-0.054,0.352-0.134,0.632c-0.167,0.584-0.928,1.104-1.378,1.453
		c-1.306,1.012-2.499,0.241-3.786-0.512c-1.732-1.013-3.253-2.309-5.109-0.767c1.507,2.804,2.686,4.839,2.686,4.839
		c3.719,0.091,7.438,0.182,11.157,0.271c9.609,0.233,19.217,0.467,28.826,0.699c13.176,0.319,26.352,0.638,39.527,0.954
		c14.42,0.348,28.84,0.692,43.261,1.036c13.342,0.317,26.684,0.633,40.026,0.942c9.942,0.231,19.883,0.462,29.825,0.679
		c2.603,0.057,5.206,0.112,7.809,0.164C718.578,348.477,725.704,347.136,731.178,342.299
		C730.746,342.229,727.041,345.954,731.178,342.299z"/>
	<path fill="#44CA98" stroke="#229968" stroke-width="3" stroke-miterlimit="10" d="M539.678,313.676
		c-0.091,3.556-5.605,3.412-5.513-0.143C534.257,309.978,539.771,310.118,539.678,313.676
		C539.639,315.2,539.718,312.152,539.678,313.676z"/>
	<path fill="#44CA98" stroke="#229968" stroke-width="3" stroke-miterlimit="10" d="M551.088,313.971
		c-0.092,3.556-5.604,3.412-5.513-0.143C545.667,310.271,551.18,310.414,551.088,313.971
		C551.049,315.495,551.127,312.447,551.088,313.971z"/>
	<path fill="#44CA98" stroke="#229968" stroke-width="3" stroke-miterlimit="10" d="M562.499,314.266
		c-0.092,3.556-5.605,3.412-5.513-0.143C557.077,310.566,562.59,310.709,562.499,314.266
		C562.459,315.79,562.538,312.742,562.499,314.266z"/>
	<path fill="#44CA98" stroke="#229968" stroke-width="3" stroke-miterlimit="10" d="M573.909,314.561
		c-0.092,3.556-5.605,3.412-5.513-0.143C568.487,310.861,574.001,311.004,573.909,314.561
		C573.869,316.085,573.948,313.037,573.909,314.561z"/>
	<path fill="#000847" d="M740.492,319.745c0.03,7.397-2.613,15.473-7.653,20.932c-4.842,5.245-11.744,7.524-18.757,7.677
		c-3.318,0.072-6.657-0.098-9.976-0.167c-9.85-0.205-19.7-0.42-29.551-0.635c-13.297-0.29-26.595-0.585-39.893-0.88
		c-14.422-0.32-28.844-0.642-43.266-0.965c-13.224-0.296-26.448-0.593-39.672-0.89c-9.704-0.218-19.407-0.437-29.11-0.655
		c-3.859-0.087-7.719-0.175-11.579-0.262c-0.239-0.005-1.085-1.894-1.198-2.095c-1.071-1.909-2.116-3.833-3.124-5.776
		c-1.149-2.216-2.263-4.456-3.235-6.755c-0.648-1.532-1.547-3.373-1.503-5.081c1.195,0.031,2.391,0.062,3.586,0.093
		c0.446,0.012,0.979,0.65,1.404,0.852c4.184,1.987,9.75,0.96,13.993-0.264c2.376-0.686,4.733-1.582,6.872-2.836
		c1.376-0.807,2.68-1.905,4.166-2.512c0.509-0.208,1.474,0.026,2.017,0.048c10.785,0.422,21.571,0.845,32.356,1.267
		c1.068,0.042,2.136,0.071,3.204,0.099c0.573,0.015,6.864-0.079,6.92,0.189c0.209,1.006,1.174,1.854,1.962,2.412
		c2.917,2.063,6.866,2.564,10.327,2.8c9.3,0.633,18.686-0.612,27.957-1.205c10.721-0.686,21.401-0.424,32.129-0.146
		c9.296,0.24,18.592,0.48,27.888,0.721c3.678,0.096,7.373,0.306,11.052,0.273c5.697-0.051,11.414-0.41,17.065-1.129
		c3.756-0.478,7.525-1.111,11.152-2.218c1.529-0.466,3.043-1.021,4.459-1.769c0.736-0.389,1.188-0.85,2.009-0.861
		C728.494,319.92,734.493,319.832,740.492,319.745L740.492,319.745z"/>
	<path fill="#000847" d="M718.65,347.958c22.184-3.477,21.842-28.213,21.842-28.213l-17.729-0.002
		C723.336,324.914,723.91,337.064,718.65,347.958C740.834,344.481,723.91,337.064,718.65,347.958z"/>
	<path fill="#000847" d="M503.063,329.224c2.418,6.064,7.959,15.069,7.959,15.069c3.719,0.099,7.438,0.196,11.156,0.294
		c9.608,0.253,19.216,0.505,28.825,0.757c13.175,0.345,26.35,0.688,39.525,1.03c14.419,0.374,28.839,0.746,43.259,1.115
		c13.341,0.341,26.683,0.68,40.025,1.012c9.941,0.247,19.882,0.493,29.824,0.72c3.158,0.071,6.32,0.189,9.479,0.196
		c8.721,0.016,17.047-3.254,22.096-10.589c0.778-1.129,1.466-2.319,2.067-3.551L503.063,329.224
		C505.481,335.288,503.063,329.224,503.063,329.224z"/>
	<g>
		<g>
			<path fill="#44CA98" stroke="#44CA98" stroke-width="3" stroke-miterlimit="10" d="M596.563,334.317
				c-0.02,0.731-1.154,0.703-1.135-0.029C595.446,333.556,596.581,333.586,596.563,334.317
				C596.555,334.632,596.571,334.004,596.563,334.317z"/>
			<path fill="#44CA98" stroke="#44CA98" stroke-width="3" stroke-miterlimit="10" d="M599.481,334.394
				c-0.02,0.731-1.154,0.701-1.135-0.03C598.364,333.632,599.499,333.662,599.481,334.394
				C599.473,334.707,599.489,334.08,599.481,334.394z"/>
			<path fill="#44CA98" stroke="#44CA98" stroke-width="3" stroke-miterlimit="10" d="M603.048,334.485
				c-0.018,0.732-1.153,0.702-1.135-0.029C601.933,333.725,603.067,333.753,603.048,334.485
				C603.04,334.8,603.056,334.172,603.048,334.485z"/>
			<path fill="#44CA98" stroke="#44CA98" stroke-width="3" stroke-miterlimit="10" d="M605.966,334.561
				c-0.018,0.732-1.153,0.703-1.135-0.029C604.851,333.8,605.985,333.829,605.966,334.561
				C605.958,334.875,605.974,334.247,605.966,334.561z"/>
		</g>
		<g>
			<path fill="#44CA98" stroke="#44CA98" stroke-width="3" stroke-miterlimit="10" d="M570.345,333.64
				c-0.02,0.731-1.154,0.703-1.135-0.029C569.228,332.879,570.363,332.909,570.345,333.64
				C570.336,333.954,570.353,333.326,570.345,333.64z"/>
			<path fill="#44CA98" stroke="#44CA98" stroke-width="3" stroke-miterlimit="10" d="M573.263,333.716
				c-0.02,0.731-1.154,0.702-1.135-0.029C572.146,332.954,573.281,332.984,573.263,333.716
				C573.255,334.029,573.271,333.402,573.263,333.716z"/>
			<path fill="#44CA98" stroke="#44CA98" stroke-width="3" stroke-miterlimit="10" d="M576.83,333.808
				c-0.018,0.732-1.153,0.702-1.135-0.029C575.714,333.047,576.849,333.075,576.83,333.808
				C576.822,334.122,576.838,333.494,576.83,333.808z"/>
			<path fill="#44CA98" stroke="#44CA98" stroke-width="3" stroke-miterlimit="10" d="M579.748,333.883
				c-0.018,0.732-1.153,0.703-1.135-0.029C578.632,333.122,579.767,333.151,579.748,333.883
				C579.74,334.197,579.756,333.569,579.748,333.883z"/>
		</g>
		<g>
			<path fill="#44CA98" stroke="#44CA98" stroke-width="3" stroke-miterlimit="10" d="M544.127,332.962
				c-0.02,0.732-1.154,0.703-1.135-0.029C543.011,332.201,544.146,332.231,544.127,332.962
				C544.119,333.276,544.135,332.649,544.127,332.962z"/>
			<path fill="#44CA98" stroke="#44CA98" stroke-width="3" stroke-miterlimit="10" d="M547.045,333.038
				c-0.02,0.731-1.154,0.702-1.135-0.029C545.929,332.277,547.063,332.306,547.045,333.038
				C547.037,333.353,547.053,332.725,547.045,333.038z"/>
			<path fill="#44CA98" stroke="#44CA98" stroke-width="3" stroke-miterlimit="10" d="M550.612,333.13
				c-0.018,0.732-1.154,0.703-1.135-0.029C549.497,332.369,550.632,332.398,550.612,333.13
				C550.604,333.444,550.621,332.816,550.612,333.13z"/>
			<path fill="#44CA98" stroke="#44CA98" stroke-width="3" stroke-miterlimit="10" d="M553.53,333.205
				c-0.018,0.732-1.154,0.703-1.135-0.029C552.415,332.444,553.55,332.474,553.53,333.205
				C553.522,333.52,553.539,332.892,553.53,333.205z"/>
		</g>
		<g>
			<path fill="#44CA98" stroke="#44CA98" stroke-width="3" stroke-miterlimit="10" d="M517.909,332.284
				c-0.02,0.732-1.154,0.703-1.134-0.029C516.793,331.523,517.927,331.554,517.909,332.284
				C517.901,332.599,517.917,331.972,517.909,332.284z"/>
			<path fill="#44CA98" stroke="#44CA98" stroke-width="3" stroke-miterlimit="10" d="M520.828,332.36
				c-0.02,0.732-1.154,0.703-1.135-0.029C519.711,331.599,520.846,331.628,520.828,332.36
				C520.819,332.675,520.835,332.047,520.828,332.36z"/>
			<path fill="#44CA98" stroke="#44CA98" stroke-width="3" stroke-miterlimit="10" d="M524.394,332.452
				c-0.018,0.732-1.154,0.703-1.135-0.029C523.279,331.691,524.414,331.721,524.394,332.452
				C524.386,332.767,524.402,332.139,524.394,332.452z"/>
			<path fill="#44CA98" stroke="#44CA98" stroke-width="3" stroke-miterlimit="10" d="M527.313,332.527
				c-0.018,0.732-1.154,0.703-1.135-0.029C526.197,331.767,527.332,331.796,527.313,332.527
				C527.305,332.842,527.321,332.214,527.313,332.527z"/>
		</g>
		<g>
			<path fill="#44CA98" stroke="#44CA98" stroke-width="3" stroke-miterlimit="10" d="M622.781,334.995
				c-0.019,0.731-1.154,0.703-1.135-0.029C621.664,334.233,622.8,334.264,622.781,334.995
				C622.772,335.31,622.789,334.682,622.781,334.995z"/>
			<path fill="#44CA98" stroke="#44CA98" stroke-width="3" stroke-miterlimit="10" d="M625.699,335.07
				c-0.02,0.732-1.154,0.703-1.135-0.029C624.582,334.31,625.718,334.34,625.699,335.07
				C625.69,335.385,625.707,334.758,625.699,335.07z"/>
			<path fill="#44CA98" stroke="#44CA98" stroke-width="3" stroke-miterlimit="10" d="M629.266,335.163
				c-0.02,0.732-1.153,0.702-1.135-0.029C628.15,334.402,629.284,334.431,629.266,335.163
				C629.257,335.478,629.273,334.85,629.266,335.163z"/>
			<path fill="#44CA98" stroke="#44CA98" stroke-width="3" stroke-miterlimit="10" d="M632.184,335.238
				c-0.02,0.731-1.153,0.703-1.135-0.029C631.068,334.477,632.202,334.507,632.184,335.238
				C632.176,335.553,632.192,334.925,632.184,335.238z"/>
		</g>
		<g>
			<path fill="#44CA98" stroke="#44CA98" stroke-width="3" stroke-miterlimit="10" d="M648.999,335.673
				c-0.02,0.731-1.155,0.703-1.135-0.029C647.881,334.911,649.018,334.941,648.999,335.673
				C648.99,335.987,649.007,335.359,648.999,335.673z"/>
			<path fill="#44CA98" stroke="#44CA98" stroke-width="3" stroke-miterlimit="10" d="M651.917,335.748
				c-0.02,0.731-1.154,0.703-1.135-0.029C650.8,334.987,651.936,335.017,651.917,335.748
				C651.908,336.063,651.925,335.435,651.917,335.748z"/>
			<path fill="#44CA98" stroke="#44CA98" stroke-width="3" stroke-miterlimit="10" d="M655.484,335.841
				c-0.02,0.732-1.154,0.702-1.136-0.029C654.368,335.08,655.502,335.108,655.484,335.841
				C655.476,336.155,655.492,335.527,655.484,335.841z"/>
			<path fill="#44CA98" stroke="#44CA98" stroke-width="3" stroke-miterlimit="10" d="M658.402,335.916
				c-0.02,0.732-1.154,0.703-1.136-0.029C657.286,335.155,658.42,335.184,658.402,335.916
				C658.394,336.23,658.41,335.603,658.402,335.916z"/>
		</g>
		<g>
			<path fill="#44CA98" stroke="#44CA98" stroke-width="3" stroke-miterlimit="10" d="M675.216,336.351
				c-0.02,0.731-1.154,0.703-1.135-0.029C674.099,335.59,675.235,335.619,675.216,336.351
				C675.208,336.665,675.224,336.037,675.216,336.351z"/>
			<path fill="#44CA98" stroke="#44CA98" stroke-width="3" stroke-miterlimit="10" d="M678.134,336.426
				c-0.019,0.731-1.154,0.703-1.135-0.029C677.018,335.664,678.154,335.694,678.134,336.426
				C678.126,336.74,678.143,336.112,678.134,336.426z"/>
			<path fill="#44CA98" stroke="#44CA98" stroke-width="3" stroke-miterlimit="10" d="M681.701,336.519
				c-0.02,0.731-1.153,0.702-1.135-0.029C680.585,335.758,681.719,335.786,681.701,336.519
				C681.693,336.833,681.709,336.205,681.701,336.519z"/>
			<path fill="#44CA98" stroke="#44CA98" stroke-width="3" stroke-miterlimit="10" d="M684.619,336.594
				c-0.02,0.732-1.153,0.702-1.135-0.029C683.503,335.833,684.637,335.861,684.619,336.594
				C684.611,336.908,684.627,336.28,684.619,336.594z"/>
		</g>
		<g>
			<path fill="#44CA98" stroke="#44CA98" stroke-width="3" stroke-miterlimit="10" d="M701.434,337.028
				c-0.019,0.732-1.154,0.702-1.135-0.029C700.317,336.268,701.452,336.296,701.434,337.028
				C701.426,337.343,701.441,336.715,701.434,337.028z"/>
			<path fill="#44CA98" stroke="#44CA98" stroke-width="3" stroke-miterlimit="10" d="M704.352,337.104
				c-0.019,0.732-1.153,0.703-1.135-0.029C703.235,336.343,704.372,336.371,704.352,337.104
				C704.344,337.418,704.36,336.79,704.352,337.104z"/>
			<path fill="#44CA98" stroke="#44CA98" stroke-width="3" stroke-miterlimit="10" d="M707.919,337.196
				c-0.021,0.731-1.154,0.701-1.136-0.029C706.804,336.436,707.938,336.464,707.919,337.196
				C707.91,337.511,707.927,336.883,707.919,337.196z"/>
			<path fill="#44CA98" stroke="#44CA98" stroke-width="3" stroke-miterlimit="10" d="M710.837,337.271
				c-0.021,0.732-1.154,0.702-1.136-0.029C709.722,336.511,710.855,336.539,710.837,337.271
				C710.828,337.586,710.845,336.958,710.837,337.271z"/>
		</g>
	</g>
	<path fill="#43072D" stroke="#000000" stroke-width="3" stroke-miterlimit="10" d="M584.976,271.207
		c-0.03,1.116-1.757,1.07-1.729-0.045C583.275,270.048,585.004,270.092,584.976,271.207
		C584.963,271.685,584.988,270.729,584.976,271.207z"/>
	<path fill="#000847" d="M737.041,335.271l-14.424-0.373c-0.564,3.986-1.756,9.299-3.988,13.925
		C728.686,347.248,734.142,340.197,737.041,335.271C737.041,335.271,734.142,340.197,737.041,335.271z"/>
	<path fill="#44CA98" d="M731.162,342.89c-3.88-0.625,0.686-1.056-0.177-2.119c-0.417-0.514-1.525-0.588-2.134-0.604
		c-0.904-0.024-1.059,1.328-2.109,1.302c-0.587-0.016-1.127-0.277-1.708-0.294c-0.563-0.017-1.127,0.142-1.638,0.367
		c-0.425,0.188-0.769,0.451-1.147,0.711c-0.465,0.318-1.003,0.124-1.524,0.129c-0.622,0.007-1.214,0.215-1.827,0.295
		c-0.441,0.058-0.899-0.005-1.344-0.004c-0.618,0.002-2.535-0.16-1.849-1.094c0.588-0.8-1.526-0.809-1.93-0.655
		c-0.444,0.17-0.761,0.594-1.103,0.903c-0.409,0.369-0.992,0.53-1.516,0.676c-0.614,0.169-1.289,0.087-1.919,0.177
		c-1.188,0.168-2.123,0.048-3.282-0.144c-1.224-0.204-2.42,0.213-3.621,0.024c-0.502-0.078-0.935-0.428-1.421-0.476
		c-0.597-0.058-1.207,0.145-1.798,0.199c-0.9,0.082-1.272-0.414-2.045-0.633c-1.121-0.318-2.085,0.108-3.18,0.044
		c-0.932-0.054-1.973-0.105-2.883,0.13c-0.527,0.136-1.353-0.029-1.793,0.338c-0.293,0.245-0.969,0.132-1.31,0.118
		c-2.239-0.087-4.436,0.185-6.672,0.033c-1.25-0.085-2.502-0.132-3.752-0.225c-1.049-0.078-2.151-0.377-3.201-0.199
		c-0.436,0.074-0.842,0.246-1.291,0.254c-0.623,0.012-1.061-0.405-1.645-0.47c-0.439-0.049-0.837,0.251-1.268,0.298
		c-0.604,0.065-1.104-0.326-1.686-0.399c-0.857-0.109-1.645,0.37-2.524,0.329c-0.631-0.029-1.188-0.896-1.515-1.389
		c-0.091-0.138-0.1-0.429-0.286-0.461c-0.253-0.044-0.799-0.143-0.994,0.081c-0.244,0.28-0.585,0.344-0.895,0.533
		c-0.584,0.358-1.09,0.832-1.695,1.157c-1.442,0.776-3.362,0.173-4.911,0.152c-1.545-0.02-3.664,0.41-5.071-0.374
		c-0.308-0.172-0.587-0.563-0.929-0.653c-0.382-0.102-0.651,0.329-1.063,0.163c-0.72-0.29-1.13-1.51-2.05-1.327
		c-0.751,0.148-1.418,0.685-2.171,0.844c-0.505,0.106-1.031-0.101-1.527-0.173c-0.57-0.083-1.121-0.098-1.676-0.267
		c-1.027-0.312-1.929,0.318-2.953,0.127c-0.992-0.187-1.622-0.377-2.613-0.116c-0.984,0.259-2.092,0.234-3.091,0.021
		c-0.89-0.189-1.793-0.412-2.678-0.642c-0.611-0.159-1.237-0.229-1.849-0.026c-0.368,0.122-0.58,0.378-0.976,0.438
		c-0.76,0.114-1.497,0.378-2.182,0.019c-0.388-0.203-0.938-0.48-1.387-0.457c-0.226,0.011-0.314,0.301-0.481,0.419
		c-0.877,0.623-2.125-0.1-3.066-0.194c-0.364-0.036-0.771-0.261-1.119-0.051c-0.525,0.317-0.853,0.557-1.502,0.525
		c-0.857-0.041-2.199-0.286-2.865,0.463c-0.196,0.222-0.014,0.558-0.316,0.684c-0.214,0.089-0.622,0.217-0.494-0.142
		c0.284-0.79-0.726-0.496-1.088-0.842c-0.225-0.215-1.421-1.589-1.835-0.942c-0.306,0.479-1.222,1.506-1.881,0.723
		c-0.203-0.241-0.183-0.625-0.458-0.813c-0.299-0.204-0.674,0.094-0.983,0.126c-0.302,0.031-1.07-0.136-0.76-0.584
		c0.254-0.367,0.696-0.463,1.095-0.579c1.337-0.39,0.071-0.925-0.698-0.944c-0.679-0.018-2.288,0.314-2.183,1.294
		c0.033,0.306,0.695,2.245-0.195,1.504c-0.372-0.309-0.716-0.66-1.178-0.833c-0.425-0.159-0.689,0.238-1.068,0.372
		c-0.385,0.137-0.861,0.28-1.275,0.221c-0.346-0.05-0.65-0.142-0.899,0.208c-0.288,0.404,0.231,0.843-0.046,1.223
		c-0.349,0.479-1.176-0.035-1.605-0.068c-0.429-0.033-1.125,0.089-1.429-0.316c-0.146-0.194,0.196-0.418,0.28-0.563
		c0.182-0.319-0.168-0.757-0.469-0.856c-0.278-0.093-0.513,0.374-0.885,0.292c-0.541-0.12-0.961-0.238-1.5-0.039
		c-0.423,0.157-0.567,0.045-0.954-0.134c-0.808-0.372-2.073-0.461-2.838-0.022c-0.354,0.203-0.708,0.145-0.854,0.584
		c-0.127,0.382-0.272,0.645-0.716,0.691c-0.518,0.054-0.979-0.174-1.442-0.367c-0.421-0.175-0.658,0.094-1.022,0.002
		c-0.765-0.193-1.443-0.861-2.193-1.146c-0.956-0.362-2.048-0.097-3.042-0.166c-0.631-0.044-1.165-0.669-1.716-0.069
		c-0.516,0.56-0.65,1.39-1.039,2.006c-0.345,0.545-1.646,0.209-2.169,0.229c-0.532,0.021-0.866,0.02-1.321-0.296
		c-0.409-0.283-1.184-0.899-1.684-0.421c-0.336,0.322-0.413,0.804-0.892,1.008c-0.426,0.182-0.515-0.441-0.828-0.61
		c-0.498-0.269-0.716-0.243-0.503-0.834c0.142-0.393,0.457-0.967-0.028-1.198c-0.515-0.244-1.315-0.437-1.872-0.313
		c-0.688,0.152-1.402-0.807-2.135-0.792c-0.302,0.007-0.386,0.308-0.552,0.5c-0.257,0.296-0.844,0.124-1.196,0.228
		c-0.652,0.191-0.972,0.179-1.625,0.059c-0.295-0.055-0.607-0.026-0.893-0.132c-0.435-0.161-0.598-0.396-1.092-0.219
		c-0.516,0.186-0.589,0.405-0.98,0.721c-0.397,0.319-1.015,0.23-1.354,0.682c-0.51,0.675-2.816-0.346-3.513-0.398
		c-0.453-0.035-0.896,0.071-1.343,0.036c-0.594-0.046-1.148-0.358-1.729-0.396c-0.525-0.034-1.04,0.29-1.448,0.582
		c-0.275,0.197-1.147,1.073-1.362,0.4c-0.103-0.321,0.285-0.479,0.435-0.688c0.15-0.207-0.745-0.183-0.845-0.185
		c-0.553-0.015-0.811-0.513-1.303-0.668c-0.514-0.163-1.148,0.02-1.671,0.033c-0.237,0.007-0.304-0.156-0.508-0.21
		c-0.22-0.059-0.475-0.005-0.697,0.004c-0.536,0.021-1.001-0.159-1.146-0.711c-0.111-0.421-0.456-0.865-0.952-0.816
		c-0.4,0.04-0.607,0.547-1.033,0.627c-0.53,0.101-0.262-0.075-0.537-0.267c-0.444-0.309-0.574,0.369-0.719,0.614
		c-0.185,0.311-0.883,0.454-0.887,0.856c-0.004,0.354,0.258,0.871-0.445,0.471c-1.258-0.718-1.966-1.022-3.289-0.146
		c-0.405,0.269-0.388,0.656-0.694,0.984c-0.49,0.523-0.899-0.011-1.207-0.359c-0.423-0.479-0.388-0.351-0.293-0.917
		c0.091-0.545-0.825-0.159-0.985-0.031c-0.791,0.633-2.087-0.03-1.681-1.077c0.29-0.746,0.554-1.507,0.833-2.26
		c0.089-0.24,0.792-2.203-0.127-1.829c-0.978,0.397-0.912,1.775-1.722,2.339c-0.364,0.253-0.714,0.422-0.933,0.844
		c-0.107,0.207-0.12,0.383-0.278,0.575c-0.177,0.214-0.482,0.322-0.583,0.588c-0.499,1.313-2.985,0.672-4.137,0.745
		c-0.187,0.013-1.031,0.167-0.422,0.293c0.736,0.151,1.53,0.117,2.278,0.13c0.668,0.011,1.375-0.042,2.039,0.059
		c0.992,0.15-0.268,1.393-0.768,1.518c-0.776,0.194-1.63,0.245-2.427,0.186c-0.299-0.023-0.543-0.12-0.828,0.032
		c-0.425,0.228-0.774,0.5-1.26,0.217c-0.537-0.314-0.338-0.469-0.122-0.883c0.272-0.522-0.821-0.438-1.063-0.454
		c-1.616-0.107-0.201-0.998-0.102-0.956c-0.514-0.214-1.045,0.166-1.388-0.466c-0.407-0.753-0.819-0.2-1.341,0.164
		c-0.147,0.104-0.387,0.035-0.561,0.132c-0.397,0.221-0.054,0.352-0.134,0.632c-0.167,0.583-0.928,1.104-1.378,1.453
		c-1.306,1.012-2.499,0.241-3.787-0.512c-1.732-1.013-3.251-2.309-5.108-0.768c1.507,2.804,2.686,4.839,2.686,4.839
		c3.719,0.091,7.438,0.182,11.157,0.271c9.609,0.234,19.217,0.467,28.826,0.7c13.176,0.318,26.352,0.637,39.527,0.954
		c14.42,0.347,28.84,0.692,43.261,1.035c13.342,0.317,26.684,0.633,40.026,0.943c9.942,0.231,19.883,0.462,29.825,0.679
		c2.603,0.057,5.206,0.112,7.809,0.164C718.563,349.068,725.688,347.726,731.162,342.89
		C730.731,342.82,727.025,346.544,731.162,342.89z"/>
	<polygon fill="#118171" points="720.65,320.843 718.651,320.791 719.323,294.8 721.322,294.852 720.65,320.843 	"/>
	<path fill="#44CA98" d="M731.178,342.299c-0.204-0.033-1.813-0.169-1.59-0.609c0.21-0.414,0.861-0.633,1.209-0.914
		c1.021-0.827-1.571-1.362-2.137-1.166c-0.601,0.209-0.737,1.004-1.327,1.198c-0.844,0.279-1.657-0.295-2.5-0.189
		c-1.465,0.185-2.349,1.668-3.784,1.668c-0.6,2-1.364,3.878-2.326,5.896C724.086,347.327,728.131,344.989,731.178,342.299
		C730.746,342.229,728.131,344.989,731.178,342.299z"/>
	<polygon fill="#118171" points="696.71,318.224 692.712,318.12 692.867,312.122 696.866,312.226 696.71,318.224 	"/>
	<polygon fill="#118171" points="656.672,319.189 654.673,319.138 655.345,293.146 657.344,293.197 656.672,319.189 	"/>
	<polygon fill="#118171" points="617.763,315.183 613.764,315.079 613.893,310.081 617.892,310.184 617.763,315.183 	"/>
	<polygon fill="#118171" points="584.084,302.308 581.085,302.23 581.628,281.237 584.627,281.314 584.084,302.308 	"/>
	<polygon fill="#350324" points="560.36,282.901 552.669,282.702 553.309,257.958 561,258.157 560.36,282.901 	"/>
	<polygon fill="#118171" points="561.203,258.702 553.206,258.495 553.283,255.496 561.281,255.703 561.203,258.702 	"/>
	<polygon fill="#43072D" points="528.302,294.564 526.572,294.52 526.846,283.928 528.576,283.973 528.302,294.564 	"/>
	<polygon fill="#43072D" points="528.17,283.962 527.305,283.94 527.54,274.86 528.405,274.883 528.17,283.962 	"/>
</g>
<g id="front_x5F_waves">
	<path fill="#073654" d="M1.067,314.97c0,0,123.125,11,135.591,9.533c12.466-1.467,107.557-0.138,127.475,6.897
		c19.917,7.035,92.514,4.102,105.713,1.169c13.199-2.934,46.931,5.866,61.597,1.466c14.666-4.399,61.597-9.283,90.929-8.675
		c29.332,0.609,78.463,7.942,106.328,6.476s98.261,2.199,136.394-9.533c38.131-11.732,85.063-22.731,107.795-16.866
		c22.73,5.867,69.662,7.065,78.461,9.766c8.801,2.701,50.002,26.899,82.199,24.7c32.195-2.2,68.861-24.199,101.125-15.399
		c32.266,8.8,119.527,44.681,156.193,47.272c36.664,2.592,118.52,4.791,118.52,4.791l1.557,162.059L1.732,538.992L1.067,314.97z"/>
	<path fill="#000847" d="M-5.877,372.598c0,0,50.186-8.648,76.218,4.184c26.032,12.834,84.918,31.181,96.162,32.403
		c11.244,1.221,55.719,11.922,65.496,10.211s31.771,2.542,40.081,0.158c8.311-2.384,44.24-1.176,57.194-2.643
		c12.955-1.466,25.175-5.629,43.019-3.429s56.708-0.004,65.996,0.485c9.288,0.489,49.62,2.934,58.663,4.155
		c9.044,1.222,38.131-4.401,46.931-8.068c8.799-3.666,40.331-9.045,47.175-10.756c6.844-1.711,45.709-7.089,62.575-3.666
		c16.866,3.422,20.777,1.711,31.532,1.466c10.755-0.244,27.132-2.688,36.175-5.377c9.045-2.688,23.711-2.933,34.465-2.688
		c10.756,0.244,37.643,4.398,43.998,6.844c6.355,2.444,36.91,6.844,43.021,7.333c6.109,0.489,43.996,10.021,54.996,9.532
		s54.752,7.172,61.352,3.831c6.6-3.342,50.109-0.896,58.91-2.853c8.799-1.956,55.24,3.505,74.795,2.853s76.264-2.77,92.885,0
		c16.621,2.769,84.572,14.013,107.549,13.035s35.688-4.399,62.576,3.422c26.887,7.822,38.205,8.233,45.631,6.072
		s6.982-2.161,6.982-2.161v100.345H1.732L-5.877,372.598z"/>
</g>
</svg>
