<?xml version="1.0" encoding="utf-8"?>
<!-- Generator: Adobe Illustrator 15.0.0, SVG Export Plug-In . SVG Version: 6.00 Build 0)  -->
<!DOCTYPE svg PUBLIC "-//W3C//DTD SVG 1.1//EN" "http://www.w3.org/Graphics/SVG/1.1/DTD/svg11.dtd">
<svg version="1.1" id="Layer_2_1_" xmlns="http://www.w3.org/2000/svg" xmlns:xlink="http://www.w3.org/1999/xlink" x="0px" y="0px"
	 width="1400px" height="503.572px" viewBox="0 0 1400 503.572" enable-background="new 0 0 1400 503.572" xml:space="preserve">
<path fill="#FFFFFF" stroke="#1D1D1B" stroke-width="3" stroke-miterlimit="10" d="M1011.161,64.391"/>
<path fill="#F7C7DE" d="M696.416,408.86c-2.259,2.26-5.852,3.491-8.766,4.591c-4.886,1.845-9.969,3.213-15.107,4.14
	c-5.362,0.968-10.903,1.495-16.34,0.919c-4.471-0.474-9.223-1.771-12.463-5.074c-3.595-3.665-4.168-8.962-3.475-13.836
	c0.588-4.135,1.868-8.302,3.687-12.058c1.495-3.09,3.537-5.993,6.378-7.98c5.175-3.621,11.797-3.267,17.748-2.354
	c7.488,1.147,14.82,3.163,22.381,3.857c4.049,0.371,8.142,0.38,12.17-0.215c5.184-0.766,10.086-2.733,14.998-4.476
	c10.158-3.602,20.215-7.513,30.454-10.881c6.478-2.131,13.546-4.55,20.466-4.236c1.895,0.086,3.774,0.502,5.64,0.823
	c2.51,0.431,5.021,0.857,7.533,1.27c15.668,2.569,31.45,4.709,47.31,5.611c8.151,0.464,16.368,0.631,24.508-0.104
	c3.396-0.307,6.79-0.776,10.104-1.587c3.58-0.876,7.094-1.993,10.685-2.84c18.056-4.258,36.563-6.6,54.941-8.977
	c7.45-0.964,14.911-1.862,22.344-2.954c9.335-1.372,18.616-3.32,27.717-5.813c4.988-1.365,9.944-2.909,14.742-4.848
	c2.038-0.822,4.05-1.72,5.992-2.749c1.37-0.726,2.641-1.607,3.995-2.354c5.534-3.049,12.1-4.521,18.221-5.839
	c8.052-1.734,16.276-2.898,24.51-3.22c3.657-0.144,7.339-0.119,10.979,0.291c2.778,0.314,5.65,0.822,8.188,2.05
	c3.937,1.904,7.052,5.551,9.344,9.185c2.588,4.104,4.453,8.911,4.52,13.81c0.068,4.981-2.071,9.537-6.101,12.511
	c-6.628,4.891-15.374,5.062-23.245,5.326c-10.146,0.343-20.321,1.004-30.359,2.569c-6.039,0.941-12.09,2.199-17.839,4.313
	c-1.891,0.694-3.746,1.489-5.532,2.42c-1.612,0.841-3.089,1.873-4.656,2.786c-3.541,2.063-7.458,3.514-11.334,4.808
	c-3.764,1.257-7.605,2.365-11.504,3.124c-1.169,0.229-2.375,0.464-3.571,0.47c-0.912,0.006-1.63,0.134-2.482,0.508
	c-3.105,1.362-5.911,3.58-8.474,5.763c-2.993,2.551-5.898,5.406-8.03,8.732c-1.22,1.903-1.716,4.007-2.607,6.049
	c-2.224,5.089-5.411,9.826-8.916,14.112c-4.646,5.681-10.226,10.767-16.766,14.173c-7.192,3.745-15.358,5.042-23.308,3.265
	c-9.129-2.04-18.021-5.996-25.125-12.158c-5.096-4.42-9.768-10.402-10.668-17.285c-0.361-2.753-0.02-5.587,1.198-8.098
	c0.62-1.279,1.449-2.451,2.427-3.481c2.013-2.121,4.2-4.092,6.473-5.929c3.18-2.569,6.613-4.722,10.011-6.977
	c1.091-0.724,3.687-2.144,2.866-3.83c-3.538-7.266-11.976-7.12-18.793-5.502c-5.833,1.384-11.21,4.211-17.224,4.753
	c-3.874,0.35-7.784,0.375-11.669,0.245c-3.365-0.112-6.819-0.269-10.119-0.992c-1.791-0.393-3.263-1.43-4.957-2.099
	c-3.268-1.289-6.675-2.251-10.09-3.057c-8.329-1.964-17.793-3.407-26.085-0.566c-9.226,3.161-16.074,10.525-24.906,14.433
	c-4.128,1.826-8.514,2.405-12.938,3.061c-4.577,0.677-9.161,1.306-13.742,1.956c-6.654,0.945-13.365,1.811-19.93,3.277
	C706.277,402.929,701.092,405.68,696.416,408.86C689.672,415.608,696.416,408.86,696.416,408.86z"/>
<path fill="#DAEDED" d="M903.95,35.257c11.585-0.399,23.157-2.363,34.771-1.34c2.044,0.181,9.328,0.659,8.083,4.354
	c-0.951,2.822-4.329,4.713-6.981,5.538c-3.589,1.115-7.408,1.031-11.124,1.168c-2.909,0.107-6.516,0.18-8.756,2.33
	c-1.399,1.342-2.852,4.72-1.239,6.423c1.475,1.558,4.532,1.009,6.381,0.738c3.567-0.524,7.069-1.458,10.586-2.241
	c7.104-1.581,14.816-3.19,21.578,0.402c5.813,3.089,10.979,9.553,9.903,16.486c-1.128,7.266-8.599,11.666-15.223,13.111
	c-6.684,1.458-13.698,1.285-20.496,1.092c-7.193-0.205-14.402-0.702-21.602-0.428c-4.851,0.186-11.062,0.451-14.91,3.853
	c-1.558,1.377-2.396,3.279-2.509,5.343c-0.104,1.914,0.189,3.837,0.125,5.758c-0.066,1.948-0.303,3.904-0.859,5.776
	c-0.868,2.918-2.586,5.456-5.14,7.146c-2.624,1.737-5.765,2.536-8.834,3.038c-3.798,0.621-7.655,0.815-11.491,1.049
	c-2.481,0.152-5.165,0.055-7.155-1.634c-1.59-1.349-2.385-3.375-3.036-5.298c-0.803-2.372-1.463-4.791-2.539-7.061
	c-1.292-2.724-3.157-5.107-5.571-6.925c-3.494-2.632-7.601-3.785-11.77-4.861c-8.1-2.09-16.309-5.082-23.301-9.754
	c-3.876-2.59-9.869-7.425-7.563-12.815c1.244-2.907,4.27-4.781,6.979-6.132c4.982-2.486,10.468-3.635,15.721-5.388
	c6.044-2.017,12.941-4.446,17.391-9.267c1.854-2.009,2.854-4.853,5.098-6.483c1.477-1.074,3.299-1.597,5.063-1.967
	c4.67-0.98,9.439-1.406,14.2-1.616C881.127,35.152,892.547,35.65,903.95,35.257C912.721,34.955,884.31,35.934,903.95,35.257z"/>
<path fill="#B5DDDB" d="M1048.773,65.139c-0.014,1.761,1.42,3.102,2.834,3.92c2.179,1.261,4.792,1.741,7.284,1.76
	c2.413,0.019,4.931-0.395,7.085-1.524c1.511-0.792,3.108-2.145,3.122-3.998c0.014-1.76-1.42-3.101-2.834-3.918
	c-2.179-1.26-4.792-1.739-7.284-1.758c-2.412-0.02-4.93,0.393-7.084,1.521C1050.386,61.934,1048.789,63.287,1048.773,65.139
	C1048.749,68.232,1048.799,62.046,1048.773,65.139z"/>
<path fill="#B5DDDB" d="M1074.915,97.708c2.214,2.168,3.28,5.565,1.913,8.463c-0.61,1.294-1.616,2.371-2.52,3.464
	c-0.955,1.158-1.93,2.302-2.961,3.393c-1.619,1.712-3.416,3.356-5.566,4.371c-1.365,0.645-2.592,0.94-4.061,0.569
	c-1.466-0.37-2.85-1.076-4.123-1.876c-2.744-1.722-5.581-4.242-6.635-7.404c-0.648-1.943-0.293-3.941,1.09-5.474
	c2.476-2.744,5.536-5.19,8.815-6.9c2.062-1.075,4.587-2.1,6.962-1.709C1070.294,95.01,1072.831,96.36,1074.915,97.708
	L1074.915,97.708z"/>
<path fill="#B5DDDB" d="M985.059,103.34c-0.02,2.223,1.821,4.096,4.045,4.11c2.223,0.019,4.095-1.822,4.109-4.045
	c0.02-2.223-1.822-4.093-4.045-4.11S985.074,101.116,985.059,103.34C985.039,105.596,985.074,101.087,985.059,103.34z"/>
<path fill="#B5DDDB" d="M1074.421,160.672c0.764,1.67-0.048,3.476-1.437,4.522c-2.019,1.522-4.766,1.948-7.181,2.429
	c-2.451,0.489-4.931,0.794-7.431,0.869c-9.189,0.274-18.234-1.31-26.659-5.063c-3.627-1.616-6.806-3.802-7.897-7.888
	c-0.23-0.863-0.343-1.808-0.117-2.685c0.258-0.999,0.999-1.501,1.82-2.047c1.974-1.312,4.124-2.256,6.249-3.281
	c1.728-0.833,3.399-0.686,5.235-0.241c1.715,0.416,3.02-0.291,4.295-1.425c1.474-1.31,2.694-2.879,4.038-4.315
	c1.167-1.247,2.485-2.582,4.205-2.983c1.497-0.35,3.542-0.408,4.563,0.976c1.25,1.694,0.11,4.131-0.755,5.711
	c-1.307,2.389-2.929,4.635-4.029,7.132c-0.91,2.065-0.957,3.807,0.306,5.708c1.296,1.95,3.023,4.088,5.228,5.042
	c1.738,0.753,3.327-0.247,4.955-0.852c2.111-0.785,4.243-1.531,6.413-2.137c2.025-0.566,4.177-1.09,6.256-0.479
	C1073.173,159.871,1073.875,160.188,1074.421,160.672L1074.421,160.672z"/>
<path fill="#B5DDDB" d="M1005.261,198.294c2.202,2.015,2.675,5.556,1.854,8.3c-1.242,4.149-5.175,6.9-9.113,8.218
	c-3.801,1.271-8.006,1.625-11.976,1.106c-2.511-0.328-6.449-1.109-7.515-3.814c-0.593-1.503,0.104-3.492,0.54-4.946
	c0.499-1.66,1.285-3.185,2.4-4.514c0.861-1.027,1.877-2.244,3.006-2.981c1.01-0.659,2.224-1.02,3.377-1.327
	c3.265-0.87,6.701-1.25,10.073-1.309c1.518-0.026,3.051,0.014,4.553,0.253C1003.395,197.429,1004.535,197.631,1005.261,198.294
	C1008.006,200.806,1002.514,195.782,1005.261,198.294z"/>
<path fill="#DF75AB" d="M989.789,137.649c-0.022,2.534,3.667,2.563,3.688,0.031C993.494,135.148,989.808,135.114,989.789,137.649
	C989.779,138.746,989.797,136.555,989.789,137.649z"/>
<path fill="#B5DDDB" d="M919.338,116.491c1.118-4.171,5.846-5.411,9.666-5.164c2.703,0.175,8.385,0.766,8.053,4.601
	c-0.15,1.743-1.278,3.539-2.021,5.1c-0.841,1.767-1.734,3.519-2.816,5.152c-1.593,2.404-4.426,5.554-7.383,3.138
	c-1.295-1.058-2.307-2.571-3.333-3.881c-0.809-1.033-1.634-2.099-2.197-3.291C918.424,120.28,918.824,118.404,919.338,116.491
	C920.571,111.892,918.102,121.091,919.338,116.491z"/>
<path fill="#B5DDDB" d="M907.105,106.901c-0.034,4.438,3.973,7.546,7.843,8.789c4.647,1.493,10.247,1.011,14.305-1.825
	c3.348-2.339,5.144-6.505,3.075-10.311c-2.231-4.105-7.33-5.929-11.759-6.042C915.068,97.373,907.157,100.312,907.105,106.901
	C907.065,112.144,907.146,101.656,907.105,106.901z"/>
<path fill="#DF75AB" d="M726.419,30.208c-0.019,2.469,4.223,2.505,4.239,0.034C730.682,27.77,726.438,27.736,726.419,30.208
	C726.411,31.25,726.427,29.165,726.419,30.208z"/>
<path fill="#DF75AB" d="M699.584,42.811c-0.017,2.39,4.593,2.429,4.609,0.036C704.215,40.458,699.607,40.421,699.584,42.811
	C699.577,43.804,699.594,41.82,699.584,42.811z"/>
<path fill="#DF75AB" d="M683.743,217.42c0.519-2.423,2.405-4.122,4.226-5.646c2.693-2.255,5.373-4.465,7.629-7.18
	c3.492-4.203,5.58-9.095,7.886-13.991c2.081-4.417,4.281-8.876,7.231-12.789c2.164-2.868,4.887-5.522,8.389-6.624
	c3.697-1.163,7.889-0.414,11.362,1.133c3.845,1.712,6.935,4.69,9.218,8.188c1.25,1.915,2.272,3.973,3.125,6.094
	c0.978,2.434,1.592,4.977,2.485,7.438c0.749,2.062,1.698,4.041,2.859,5.902c0.812,1.3,1.738,2.528,2.51,3.853
	c0.738,1.266,1.241,2.626,1.432,4.083c0.255,1.951,0.1,3.768,0.843,5.646c1.304,3.294,4.329,5.897,5.176,9.358
	c0.665,2.718-1.392,5.694-4.3,5.408c-3.141-0.308-6.093-2.393-8.947-3.589c-3.712-1.555-7.753-2.392-11.665-1.035
	c-2.719,0.943-5.231,2.104-8.11,2.542c-2.41,0.367-4.861,0.324-7.259-0.108c-2.267-0.41-4.457-1.146-6.589-2.003
	c-2.082-0.836-4.096-1.933-6.223-2.644c-4.489-1.501-9.479-0.905-14.121-0.805C688.706,220.696,682.947,221.137,683.743,217.42
	C685.082,211.162,682.402,223.679,683.743,217.42z"/>
<path fill="#80C8C2" d="M870.738,177.232c-3.896-0.034-7.8,0.314-11.502,1.617c-2.77,0.974-5.414,2.516-7.242,4.859
	c-2.462,3.156-2.716,7.033-2.563,10.894c0.147,3.733,0.716,8.017,3.204,10.989c1.783,2.129,4.421,2.954,7.134,2.621
	c3.674-0.451,7.197-2.38,10.227-4.412c1.145-0.768,2.308-1.389,3.65-1.734c1.977-0.508,3.764-0.881,5.559-1.93
	c2.539-1.484,5.003-3.668,6.223-6.398c1.298-2.903-0.017-5.7-1.525-8.266c-1.604-2.727-3.945-4.839-6.913-5.979
	C874.922,178.7,872.849,177.9,870.738,177.232C870.185,177.228,870.738,177.232,870.738,177.232z"/>
<path fill="#80C8C2" d="M701.638,74.771c2.808,1.139,5.06,3.896,6.705,6.329c2.394,3.542,3.994,7.708,4.209,11.999
	c0.249,4.996-1.554,9.917-4.805,13.703c-2.163,2.52-5.109,4.227-8.236,5.266c-6.731,2.238-14.387,1.816-21.135-0.132
	c-3.003-0.867-5.979-2.083-8.541-3.898c-1.879-1.332-3.73-3.136-4.284-5.453c-0.396-1.657,0.02-3.482,0.335-5.114
	c0.398-2.06,1.028-4.095,2.078-5.921c1.71-2.974,4.473-4.966,7.063-7.114c3.018-2.503,6.133-4.548,9.699-6.215
	c3.821-1.785,7.953-3.341,12.168-3.819C698.449,74.227,700.16,74.17,701.638,74.771C707.197,77.026,696.078,72.512,701.638,74.771z"
	/>
<path fill="#80C8C2" d="M658.422,69.125c-0.046,6.343,10.805,6.428,10.854,0.084C669.329,62.859,658.473,62.777,658.422,69.125
	C658.403,71.802,658.444,66.442,658.422,69.125z"/>
<path fill="#80C8C2" d="M562.175,95.799c-0.425,2.38-0.724,4.79-0.911,7.2c-0.271,3.478-0.393,6.941,1.089,10.154
	c1.873,4.062,2.213,9.089,1.952,13.498c-0.096,1.617-0.496,3.207,0.134,4.771c0.556,1.382,1.768,2.296,3.242,2.489
	c4.313,0.564,7.316-3.65,11.603-3.374c3.321,0.213,6.295,2.057,9.616,2.358c4.746,0.431,8.822-2.386,12.908-4.378
	c3.998-1.949,8.337-3.828,11.673-6.841c1.215-1.097,2.32-2.44,2.724-4.06c0.429-1.72-0.084-3.381-0.913-4.893
	c-1.573-2.868-3.167-5.793-5.463-8.159c-2.672-2.754-6.05-4.792-9.28-6.813c-2.524-1.58-5.055-3.114-7.393-4.968
	c-1.813-1.438-3.5-3.018-5.239-4.542c-1.86-1.629-3.929-3.282-6.517-3.337c-3.57-0.077-7.012,2.257-9.954,3.992
	C568.257,90.776,564.578,92.889,562.175,95.799L562.175,95.799z"/>
<path fill="#FCC745" d="M646.404,123.474c0.68,0.966,0.858,2.471,1.167,3.583c0.513,1.846,1.047,3.704,1.838,5.454
	c0.571,1.264,1.321,2.682,2.579,3.382c0.844,0.47,1.805,0.743,2.738,0.969c2.648,0.642,5.477,0.866,8.184,0.523
	c2.399-0.304,5.154-1.173,6.326-3.488c0.631-1.249,0.663-2.694,0.415-4.046c-0.424-2.317-1.281-4.658-2.156-6.841
	c-1.184-2.957-2.808-5.676-5.546-7.419c-3.177-2.022-7.097-3.509-10.87-3.577c-2.007-0.037-4.207,0.25-5.942,1.333
	c-1.625,1.015-2.026,2.439-1.656,4.253C643.914,119.719,644.905,121.886,646.404,123.474
	C647.315,124.769,646.404,123.474,646.404,123.474z"/>
<path fill="#80C8C2" d="M631.673,144.377c0.567,0.146,1.199,1.184,1.535,1.601c0.894,1.11,1.71,2.29,2.412,3.53
	c0.992,1.75,2.797,5.369,0.34,6.765c-1.595,0.906-4.129,0.78-5.863,0.435c-1.453-0.289-2.749-1.044-3.396-2.419
	c-0.656-1.395-0.589-2.956-0.611-4.458c-0.021-1.425-0.632-3.774,0.464-4.954C627.838,143.497,630.084,143.719,631.673,144.377
	C632.41,144.567,631.673,144.377,631.673,144.377z"/>
<path fill="#B5DDDB" d="M1089.66,235.78c1.533,0.033,3.065,0.066,4.593-0.112c1.417-0.166,3.542-0.487,4.245-1.941
	c1.191-2.466,0.189-6.547-2.401-7.698c-0.822-0.365-1.739-0.44-2.626-0.345c-1.411,0.151-2.795,0.308-4.219,0.257
	c-2.687-0.097-5.311-0.765-7.757-1.868c-2.389-1.077-4.449-2.753-6.845-3.798c-0.963-0.42-2.246-0.716-2.302,0.711
	c-0.065,1.679,0.935,3.243,0.854,4.906c-0.058,1.194-1.821,0.362-2.432,0.171c-1.859-0.582-3.809-1.17-5.778-0.974
	c-1.619,0.161-2.892,0.215-4.462-0.379c-4.884-1.847-8.489-5.667-12.896-8.312c-2.313-1.388-4.779-2.475-7.425-3.032
	c-2.056-0.432-4.138-0.655-6.111-1.417c-2.653-1.024-4.923-2.788-7.32-4.277c-1.788-1.111-3.746-2.125-5.916-1.83
	c-2.412,0.328-4.743,1.905-6.578,3.429c-1.007,0.836-1.769,1.943-2.806,2.736c-1.717,1.314-3.877,1.578-5.964,1.748
	c-1.046,0.085-2.146,0.182-3.082,0.698c-0.752,0.415-1.219,1.091-1.733,1.75c-0.138,0.176-1.035,1.108-0.642,1.346
	c0.708,0.428,2.402-0.164,3.115-0.297c2.461-0.46,5.034-0.807,7.361-1.763c1.682-0.69,3.152-1.71,4.547-2.862
	c0.974-0.804,1.971-1.741,3.22-2.083c1.572-0.43,3.1,0.279,4.475,0.98c4.197,2.143,8.939,2.853,13.49,3.872
	c1.449,0.324,3.152,0.608,4.4,1.471c1.075,0.744,2.029,1.462,3.225,2.051c0.978,0.481,6.986,2.727,5.521,4.53
	c-0.467,0.575-1.276,0.849-1.919,1.162c-1.075,0.523-2.151,1.044-3.214,1.593c-1.414,0.73-3.469,1.565-4.385,2.951
	c-0.988,1.494,2.516,1.612,3.168,1.62c2.746,0.031,5.391-0.876,8.026-1.526c2.814-0.694,5.413-0.797,8.275-0.361
	c2.771,0.422,5.506,1.076,8.287,1.445c1.094,0.145,2.206,0.25,3.31,0.181c1.189-0.075,2.291-0.377,3.483-0.096
	c1.02,0.24,1.918,0.786,2.838,1.264c0.975,0.506,1.975,0.822,3.027,1.117C1083.459,233.677,1086.565,234.727,1089.66,235.78
	C1091.317,235.816,1089.66,235.78,1089.66,235.78z"/>
<path fill="#F7C7DE" d="M718.64,203.146c6.498-3.375,14.101-6.559,21.574-5.221c3.825,0.685,7.229,2.661,9.919,5.443
	c3.626,3.752,5.638,8.558,7.967,13.145c3.135,6.172,6.657,13.676,13.114,17.023c2.838,1.471,6.046,1.952,9.213,1.972
	c3.427,0.022,6.759-0.643,10.104,0.428c11.546,3.697,12.861,20.136,5.913,28.49c-1.97,2.369-4.583,4.125-7.499,5.107
	c-2.098,0.707-4.299,0.953-6.488,1.199c-2.958,0.332-5.931,0.532-8.906,0.618c-5.102,0.148-10.197-0.07-15.295-0.245
	c-4.262-0.146-8.563-0.262-12.801,0.304c-4.271,0.57-8.041,2.2-12.012,3.778c-4.8,1.906-9.71,3.636-14.796,4.602
	c-4.995,0.949-10.272,1.154-15.165-0.425c-4.668-1.506-8.804-4.688-11.714-8.611c-2.444-3.297-3.966-7.122-5.127-11.03
	c-0.96-3.232-1.619-6.631-3.054-9.7c-1.917-4.097-5.297-7.725-8.388-10.967c-3.056-3.205-6.364-6.155-9.424-9.354
	c-2.312-2.417-4.715-5.145-5.627-8.441c-0.879-3.179,0.085-6.409,1.894-9.079c4.329-6.388,13.112-6.66,20.062-6.673
	c3.666-0.007,7.328,0.142,10.978,0.488c2.937,0.279,5.862,0.693,8.805,0.891C707.878,207.288,713.323,205.907,718.64,203.146
	C731.186,196.629,706.135,209.641,718.64,203.146z"/>
<path fill="#B5DDDB" d="M942.492,49.809c6.639,5.326,9.314,13.736,7.756,22.005c-1.334,7.08-5.592,14.358-12.205,17.665
	c-1.68,0.84-3.31,1.561-4.78,2.763c-1.433,1.171-2.662,2.577-3.685,4.116c-2.036,3.062-3.283,6.625-3.886,10.239
	c-0.52,3.117-0.626,6.421,0.099,9.515c0.263,1.12,0.644,2.252,1.296,3.21c0.822,1.208,1.419,2.255,1.157,3.78
	c-0.533,3.11-3.703,5.57-6.767,5.782c-1.832,0.127-3.568-0.59-4.889-1.844c-1.966-1.867-3.379-4.452-4.989-6.624
	c-2.312-3.116-5.2-7.017-9.499-6.996c-1.567,0.008-3.138,0.401-4.71,0.475c-1.715,0.08-3.438,0.03-5.144-0.173
	c-3.034-0.362-6.653-1.204-8.641-3.74c-2.472-3.153-0.578-7.81,0.438-11.175c0.967-3.197,1.967-6.301-0.619-9.005
	c-1.48-1.548-2.91-2.78-3.8-4.795c-0.84-1.903-1.19-4.021-1.024-6.095c0.166-2.075,0.862-4.114,2.101-5.796
	c1.431-1.945,3.609-3.266,5.534-4.67c2.173-1.587,4.361-3.167,6.399-4.928c1.661-1.435,3.366-3.038,4.377-5.017
	c1.246-2.439,0.997-5.667,0.584-8.28c-0.561-3.555-1.913-7.052-4.21-9.851c-1.277-1.555-2.839-2.865-4.602-3.837
	c-1.867-1.03-4.016-1.466-5.658-2.889c-2.526-2.187-2.424-5.523-0.989-8.305c1.18-2.286,3.379-4.916,6-5.551
	c1.073-0.26,2.305-0.054,3.375,0.12c1.644,0.266,3.26,0.703,4.835,1.238c4.039,1.371,7.893,3.424,11.185,6.146
	c1.81,1.496,3.447,3.208,4.807,5.124c1.072,1.51,2.152,2.948,3.598,4.128c2.487,2.03,5.552,3.011,8.566,3.966
	c4.026,1.275,7.94,2.733,11.6,4.872C938.343,46.689,940.469,48.187,942.492,49.809C957.521,61.866,927.463,37.755,942.492,49.809z"
	/>
<path fill="#DAEDED" d="M661.412,357.145c2.699,3.401,5.479,6.772,7.82,10.438c1.878,2.941,3.526,6.19,3.89,9.71
	c0.972,9.39-7.835,16.345-14.499,21.331c-7.447,5.573-15.547,10.185-23.016,15.716c-6.899,5.11-12.387,11.413-16.252,19.104
	c-2.235,4.446-4.502,8.665-7.925,12.338c-3.003,3.223-6.58,5.882-10.52,7.851c-7.81,3.902-16.739,5.024-25.375,4.385
	c-3.521-0.261-7.06-0.717-10.402-1.898c-2.881-1.019-5.586-2.494-8.065-4.276c-5.951-4.281-10.592-10.19-14.407-16.389
	c-5.116-8.309-8.921-17.395-12.114-26.593c-3.667-10.563-7.166-21.577-7.575-32.833c-0.285-7.825,0.965-16.007,5.194-22.734
	c3.27-5.203,8.261-9.145,14.159-10.926c2.844-0.858,5.83-1.216,8.796-1.107c3.709,0.136,7.393,1.02,11.04,1.65
	c9.679,1.674,19.371,3.288,29.1,4.647c8.63,1.206,17.359,2.372,26.084,2.5c8.424,0.124,16.629-2.341,25.041-2.222
	c3.354,0.047,6.71,0.588,9.799,1.934C655.859,351.369,658.937,354.024,661.412,357.145
	C672.701,371.37,650.125,342.918,661.412,357.145z"/>
<path fill="#80C8C2" d="M1063.425,293.061c-2.062,1.697-4.629,2.485-7.149,3.223c-3.146,0.921-6.238,1.928-9.098,3.565
	c-4.357,2.497-7.971,6.098-11.063,10.018c-3.307,4.192-6.894,8.061-11.208,11.24c-5.72,4.217-14.188,8.631-21.473,6.05
	c-3.17-1.122-5.051-3.72-6.647-6.547c-1.979-3.502-3.448-7.261-5.162-10.892c-1.627-3.443-3.471-6.968-6.283-9.603
	c-1.304-1.221-2.821-2.208-4.506-2.813c-1.977-0.71-4.055-0.985-6.014-1.788c-3.864-1.584-7.631-4.195-9.771-7.86
	c-2.127-3.646-1.854-7.81,0.568-11.244c5.416-7.683,14.758-8.504,23.361-7.771c8.682,0.739,17.555,3.048,26.292,1.854
	c1.927-0.264,3.833-0.731,5.623-1.5c2.095-0.901,4.038-2.015,6.238-2.679c3.883-1.174,7.898-1.17,11.864-0.443
	c4.251,0.777,8.375,2.138,12.572,3.151c2.498,0.604,5.021,1.109,7.568,1.459c2.702,0.371,5.445,0.408,8.132,0.88
	c2.547,0.447,6.179,1.362,7.091,4.178c0.639,1.974-0.377,4.087-1.468,5.694c-1.025,1.513-2.313,2.934-3.769,4.046
	c-0.763,0.583-1.328,1.153-1.513,2.116c-0.218,1.133-0.628,2.051-1.368,2.954C1065.417,291.357,1064.429,292.233,1063.425,293.061
	C1057.16,298.217,1069.687,287.9,1063.425,293.061z"/>
<path fill="#80C8C2" d="M920.043,237.726c1.449,1.938,2.844,4.194,2.976,6.678c0.109,2.044-0.747,3.932-1.822,5.619
	c-1.414,2.221-3.361,4.12-4.502,6.507c-1.05,2.196-1.428,4.682-1.041,7.088c0.352,2.186,1.315,4.279,2.799,5.927
	c1.317,1.464,2.989,2.398,4.018,4.141c2.193,3.715,0.844,7.922-2.172,10.713c-1.509,1.396-3.324,2.623-5.407,2.879
	c-1.601,0.197-3.187-0.184-4.699-0.678c-3.634-1.187-7.061-2.553-10.955-1.721c-2.751,0.589-5.298,1.917-8.051,2.562
	c-2.492,0.583-5.086,0.91-7.646,0.713c-1.874-0.144-3.866-0.569-5.401-1.715c-1.324-0.988-1.822-2.32-2.052-3.903
	c-0.579-3.992-0.596-8.047-1.156-12.043c-0.283-2.014-0.662-4.045-1.384-5.952c-0.655-1.733-1.712-2.924-2.849-4.343
	c-2.236-2.791-4.732-6.839-4.045-10.591c0.744-4.061,5.578-4.767,8.975-5.109c7.7-0.774,16.101,0.222,22.785-4.416
	C904.199,236.065,914.479,230.28,920.043,237.726C925.245,244.68,914.845,230.771,920.043,237.726z"/>
<path fill="#B5DDDB" d="M878.89,19.743c1.331,3.302,2.501,6.773,3.08,10.292c0.654,3.967,0.73,7.971,3.4,11.25
	c1.578,1.939,3.664,2.996,5.8,4.193c2.066,1.159,4.063,2.486,5.84,4.057c2.838,2.508,5.771,6.564,2.655,10.05
	c-2.362,2.642-6.133,3.447-9.535,3.444c-3.889-0.003-7.818-1.005-11.271-2.785c-3.302-1.703-6.359-4.269-7.885-7.73
	c-1.104-2.506-1.088-5.184-0.665-7.842c0.359-2.261,1.018-4.598,0.65-6.9c-0.451-2.833-2.657-4.75-5.048-6.084
	c-4.548-2.537-9.793-3.433-14.6-5.349c-2.49-0.992-5.94-2.312-7.234-4.887c-0.94-1.87,0.06-3.85,1.162-5.399
	c1.816-2.551,4.155-4.732,6.317-6.982c2.14-2.226,4.773-3.217,7.855-2.757c3.145,0.468,6.068,2.063,8.674,3.815
	C872.066,12.805,875.733,16.13,878.89,19.743L878.89,19.743z"/>
<path fill="#80C8C2" d="M652.738,184.946c0,8.491-5.625,18.634-15.238,18.24c-9.612-0.394-14.668-10.948-14.213-19.464
	c0.435-8.136,6.093-17.393,15.206-17.02C647.615,167.076,652.738,176.764,652.738,184.946
	C652.738,195.026,652.738,174.866,652.738,184.946z"/>
<path fill="#5DBDB5" d="M579.734,99.295c0,9.053-7.252,17.672-16.775,16.784c-9.514-0.887-15.296-10.705-13.886-19.657
	c1.256-7.978,8.184-14.694,16.551-13.914C574.014,83.291,579.734,91.209,579.734,99.295
	C579.734,108.597,579.734,89.99,579.734,99.295z"/>
<path fill="#5DBDB5" d="M471.669,124.772c0,9.472-2.884,19.176-9.004,26.519c-5.292,6.351-13.085,10.546-21.494,9.918
	c-8.45-0.63-15.663-5.978-20.262-12.871c-5.417-8.118-7.5-18.237-6.602-27.889c0.853-9.173,4.522-18.377,11.252-24.823
	c5.955-5.704,14.227-8.632,22.398-6.791C463.737,92.392,471.669,109.923,471.669,124.772
	C471.669,144.932,471.669,104.614,471.669,124.772z"/>
<path fill="#5DBDB5" d="M696.328,188.823c-7.562-7.562-13.893-16.174-18.853-25.644c-3.143-6.001-5.475-12.606-9.307-18.22
	c-0.943-1.382-2.085-2.601-2.884-4.081c-1.03-1.911-1.642-4.019-2.045-6.143c-0.862-4.542-0.834-9.189-1.407-13.767
	c-0.44-3.515-1.212-7.98-3.868-10.583c-1.313-1.287-3.2-1.926-4.93-2.412c-5.444-1.527-11.216-1.881-16.803-2.602
	c-6.117-0.79-12.427-1.677-18.146-4.103c-4.827-2.047-9.073-5.545-9.995-10.96c-1.113-6.538,1.971-13.211,5.796-18.325
	c4.495-6.01,10.606-10.896,17.319-14.216c6.022-2.979,13.151-4.992,19.875-3.562c3.021,0.643,5.844,2.049,8.09,4.181
	c1.352,1.283,2.358,2.777,3.368,4.331c1.434,2.204,2.962,4.357,4.688,6.343c2.193,2.524,4.815,4.917,8.066,5.944
	c2.537,0.801,5.196,0.614,7.778,0.158c3.09-0.547,6.127-1.349,9.239-1.783c4.332-0.604,8.769-0.565,13.127-0.302
	c10.396,0.627,20.807,3.013,30.21,7.551c2.433,1.174,4.794,2.495,7.057,3.971c2.463,1.606,4.749,3.458,7.158,5.142
	c4.678,3.27,9.655,6.259,15.008,8.289c3.951,1.499,8.454,2.64,12.674,1.675c1.756-0.401,3.401-1.208,4.745-2.414
	c0.854-0.766,1.538-1.695,2.387-2.47c3.979-3.637,9.126-6.152,14.104-8.095c6.41-2.503,13.343-4.097,20.255-3.886
	c7.001,0.213,13.861,2.544,18.876,7.572c3.089,3.097,5.056,6.896,6.939,10.795c2.09,4.327,3.999,8.752,5.534,13.308
	c2.32,6.886,4.198,14.742,2.342,21.964c-1.692,6.584-6.827,10.871-13.137,12.911c-4.58,1.48-9.417,1.63-14.074,2.769
	c-2.744,0.671-6.197,1.607-7.991,3.994c-2.556,3.4,0.839,7.953,2.452,10.983c0.957,1.797,1.873,3.693,2.021,5.753
	c0.119,1.668,0.074,3.351-0.025,5.02c-0.311,5.219-1.264,10.434-2.879,15.407c-1.896,5.838-4.801,11.478-9.147,15.875
	c-4.927,4.983-11.455,7.775-18.412,8.313c-4.629,0.357-9.374-0.05-13.995-0.369c-5.069-0.349-10.126-0.87-15.158-1.569
	c-10.185-1.416-20.3-3.546-30.096-6.691C719.24,204.688,706.13,198.625,696.328,188.823
	C676.205,168.7,716.45,208.945,696.328,188.823z"/>
<path fill="#DAEDED" d="M594.886,70.344c-1.53,0.069-3.071-0.597-4.442-1.199c-1.925-0.845-3.787-1.825-5.697-2.703
	c-4.178-1.919-8.846-3.558-13.491-2.566c-3.486,0.745-6.221,3.118-8.408,5.831c-2.57,3.189-4.487,6.921-5.819,10.784
	c-2.325,6.739-3.53,16.048,2.224,21.47c2.649,2.497,6.194,3.849,9.652,4.791c3.926,1.07,7.968,1.646,11.985,2.258
	c3.619,0.551,7.315,1.05,10.798,2.22c2.337,0.786,4.369,2.195,6.634,3.155c5.765,2.444,12.083,3.903,18.318,4.385
	c6.097,0.472,13.196,0.076,18.176-3.912c2.404-1.925,3.977-4.623,4.672-7.608c1.246-5.354,1.746-11.02,1.414-16.507
	c-0.254-4.217-1.032-8.514-2.847-12.358c-1.273-2.698-3.167-5.337-5.904-6.689c-1.511-0.746-3.074-1.204-4.491-2.161
	c-1.276-0.862-2.402-1.911-3.583-2.893c-2.954-2.458-6.237-3.378-10.075-3.171C607.432,63.827,600.034,66.056,594.886,70.344
	C589.739,70.576,594.886,70.344,594.886,70.344z"/>
<path fill="#5DBDB5" d="M674.749,366.354c0,8.602-5.121,18.67-14.528,19.741c-9.369,1.066-15.972-7.707-17.227-16.112
	c-1.305-8.736,2.403-19.592,11.409-22.719c8.872-3.08,16.813,3.926,19.307,12.05C674.408,361.592,674.749,363.974,674.749,366.354
	C674.749,377.303,674.749,355.404,674.749,366.354z"/>
<path fill="#5DBDB5" d="M595.451,277.908c0,9.014-6.561,17.793-15.969,18.278c-9.392,0.483-16.726-7.56-17.504-16.533
	c-0.781-9.008,4.989-18.412,14.314-19.86c9.281-1.441,17.313,5.802,18.861,14.671C595.353,275.601,595.451,276.755,595.451,277.908
	C595.451,288.015,595.451,267.804,595.451,277.908z"/>
<path fill="#5DBDB5" d="M406.36,149.814c0,17.014-9.918,37.676-28.818,39.529c-8.295,0.813-16.237-2.729-21.995-8.591
	c-6.506-6.623-10.218-15.671-11.336-24.806c-1.191-9.733,0.428-19.945,5.128-28.598c3.999-7.36,10.425-13.703,18.592-16.133
	c7.919-2.357,16.369-0.521,22.946,4.366c7.216,5.361,11.884,13.646,14.034,22.267C405.886,141.756,406.36,145.787,406.36,149.814
	C406.36,171.711,406.36,127.919,406.36,149.814z"/>
<path fill="#5DBDB5" d="M750.233,218.817c-5.119,0.212-10.309,0.669-15.326,1.723c-2.265,0.476-5.366,1.008-6.868,2.966
	c-0.803,1.046-2.155,1.488-3.385,1.791c-1.763,0.434-3.572,0.655-5.353,1.002c-4.918,0.958-9.476,2.882-13.103,6.428
	c-3.316,3.242-5.699,7.352-7.52,11.585c-1.829,4.25-3.127,8.725-4.048,13.254c-0.596,2.931-1.156,5.966-1.249,8.962
	c-0.106,3.448,0.378,6.945,0.986,10.329c0.926,5.153,2.358,10.229,4.317,15.085c4.671,11.576,12.697,22.03,24.386,27.102
	c7.359,3.192,15.365,3.92,23.299,3.331c9.993-0.742,19.854-3.065,29.127-6.865c14.93-6.117,29.125-16.169,38.271-29.641
	c3.101-4.568,5.835-9.81,6.488-15.368c0.439-3.737,0.084-7.537,1.08-11.213c0.496-1.833,1.443-3.626,3.532-3.774
	c2.083-0.148,4.229,0.676,6.252,1.06c2.479,0.471,4.625,0.436,7.042-0.322c6.736-2.112,12.972-6.569,18.002-11.425
	c5.346-5.16,10.348-12.052,10.461-19.781c0.03-2.072-0.401-4.029-0.938-6.02c-0.652-2.426-1.398-4.832-2.329-7.167
	c-1.319-3.312-3.04-6.513-5.52-9.106c-2.054-2.148-4.555-3.757-7.16-5.155c-1.443-0.774-2.914-1.496-4.38-2.228
	c-1.241-0.619-2.535-1.078-3.942-0.869c-2.796,0.416-4.67,3.059-5.934,5.353c-1.818,3.299-2.972,6.958-3.991,10.569
	c-1.003,3.553-1.816,7.155-2.721,10.733c-1.01,3.997-2.837,7.841-6.153,10.433c-7.718,6.033-17.263,0.826-23.417-4.877
	c-2.918-2.703-5.503-5.745-8.467-8.399c-3.064-2.744-6.563-4.887-10.567-5.936c-8.775-2.297-18.756-0.43-26.674,3.785
	C752.978,216.935,751.527,217.789,750.233,218.817L750.233,218.817z"/>
<path fill="#5DBDB5" d="M481.082,102.542c-1.509,0.068-3.025-0.537-4.389-1.114c-1.893-0.801-3.719-1.752-5.575-2.633
	c-4.142-1.966-8.621-3.804-13.295-3.586c-7.969,0.372-13.128,7.643-16.208,14.261c-3.178,6.83-5.438,15.869-2.272,23.109
	c3.049,6.973,11.268,9.22,18.081,10.56c3.979,0.782,8.004,1.295,12.004,1.958c3.377,0.56,6.866,1.163,10.014,2.562
	c2.141,0.952,4.093,2.221,6.285,3.095c2.768,1.104,5.629,1.979,8.523,2.684c6.501,1.584,13.438,2.46,20.1,1.462
	c5.964-0.893,11.789-3.695,14.28-9.505c0.837-1.953,1.196-4.058,1.547-6.141c0.48-2.851,0.803-5.73,0.928-8.619
	c0.207-4.782-0.103-9.644-1.321-14.286c-0.896-3.41-2.303-6.834-4.652-9.511c-0.923-1.052-2.003-1.981-3.236-2.651
	c-1.441-0.783-3.035-1.185-4.454-2.037c-2.546-1.528-4.491-3.855-7.048-5.357c-3.647-2.142-8.035-1.953-12.075-1.334
	C492.32,96.377,485.818,98.588,481.082,102.542C475.491,102.794,481.082,102.542,481.082,102.542z"/>
<path fill="#5DBDB5" d="M1113.735,121.626c-0.606-0.738-1.314-1.635-1.41-2.625c-0.06-0.615,0.221-1.135,0.437-1.688
	c0.521-1.34-0.124-2.941-0.328-4.303c-0.29-1.934-0.514-3.904-0.481-5.863c0.012-0.7,0.042-1.432,0.248-2.107
	c0.183-0.6,0.666-0.954,1.073-1.407c1.288-1.436,2.658-3.045,4.607-3.547c1.568-0.404,3.388,0.12,4.892,0.589
	c3.438,1.071,7.335,3.253,8.175,7.059c0.974,4.416,0.341,10.194-3.816,12.771c-1.222,0.757-2.623,1.2-3.954,1.721
	c-1.205,0.472-2.42,0.955-3.683,1.255C1117.202,124.026,1115.251,123.472,1113.735,121.626
	C1110.762,118.005,1116.708,125.247,1113.735,121.626z"/>
<path fill="#5DBDB5" d="M932.084,268.592c0,4.148-5.059,6.334-8.408,7.166c-4.989,1.238-10.822,0.972-15.466-1.367
	c-3.079-1.551-6.062-4.837-3.872-8.352c2.386-3.831,7.957-5.051,12.115-5.27c3.714-0.195,7.64,0.332,10.989,2.021
	C929.664,263.909,932.084,265.869,932.084,268.592C932.084,272.928,932.084,264.252,932.084,268.592z"/>
<path fill="#5DBDB5" d="M895.051,313.99c-1.788,1.717-3.13,4.125-3.521,6.573c-0.367,2.287,0.196,4.57,1.424,6.519
	c1.6,2.539,3.763,4.876,5.745,7.124c3.104,3.521,6.716,7.124,11.366,8.429c2.461,0.691,5.264-0.587,7.401-1.706
	c3.054-1.598,5.89-3.772,8.133-6.396c1.956-2.286,3.704-5.252,3.389-8.376c-0.155-1.531-0.841-2.939-1.842-4.097
	c-1.882-2.178-4.117-4.139-6.377-5.914c-3.523-2.768-7.615-5.354-12.067-6.264c-2.623-0.536-4.845-0.012-7.32,0.945
	C899.188,311.676,897.036,312.727,895.051,313.99L895.051,313.99z"/>
<path fill="#5DBDB5" d="M895.051,402.317c-0.563,1.195-0.555,2.662-0.051,3.871c1.615,3.873,6.902,4.82,10.477,5.632
	c4.92,1.117,9.879,1.698,14.925,1.7c4.629,0.001,9.302-0.084,13.877-0.836c4.493-0.737,8.929-1.876,13.261-3.27
	c3.874-1.247,7.773-2.677,11.322-4.693c3.469-1.971,6.172-5.158,7.241-9.061c0.445-1.629,0.647-3.719-0.469-5.14
	c-0.638-0.813-1.679-1.384-2.536-1.933c-1.219-0.781-2.482-1.49-3.768-2.156c-1.662-0.861-3.372-1.724-5.1-2.452
	c-1.615-0.682-3.322-0.626-5.025-0.333c-1.899,0.327-3.36,0.891-5.172-0.036c-1.565-0.802-2.852-2.104-4.037-3.377
	c-2.524-2.708-4.797-6.206-8.116-8.015c-2.463-1.342-7.191-1.701-8.52,1.419c-0.766,1.797-0.142,3.925,0.597,5.619
	c1.16,2.66,2.807,5.122,4.26,7.627c1.174,2.024,2.415,4.146,2.934,6.452c0.478,2.126-0.063,3.811-1.25,5.578
	c-1.406,2.094-3.079,4.089-5.077,5.644c-1.452,1.131-3.487,2.349-5.396,1.71c-3.879-1.298-7.613-2.982-11.531-4.194
	C903.977,400.862,898.556,399.219,895.051,402.317L895.051,402.317z"/>
<path fill="#EDA4C8" d="M476.706,54.301c-5.44-0.231-10.862-0.934-16.3-1.24c-3.261-0.184-6.536-0.305-9.802-0.187
	c-2.314,0.084-4.866,0.173-7.034,1.079c-1.372,0.573-2.169,1.652-1.366,3.077c1.753,3.11,5.535,4.3,8.853,4.678
	c3.402,0.387,7.075-0.086,10.371,0.979c1.331,0.43,2.496,1.234,3.134,2.508c0.49,0.978,0.885,2.421,0.408,3.481
	c-0.908,2.018-4.448,1.25-6.073,0.97c-3.683-0.637-7.282-1.693-10.944-2.432c-3.522-0.711-7.35-1.364-10.91-0.536
	c-3.449,0.802-6.619,2.848-8.862,5.576c-2.113,2.57-3.457,5.927-2.89,9.285c0.696,4.119,4.063,7.091,7.609,8.925
	c5.582,2.885,12.672,2.712,18.78,2.656c7.144-0.065,14.326-0.664,21.464-0.159c4.175,0.296,10.732,0.948,12.253,5.728
	c0.403,1.267,0.29,2.524,0.213,3.828c-0.125,2.118-0.079,4.274,0.377,6.354c0.667,3.039,2.34,5.633,5.068,7.193
	c2.859,1.634,6.263,2.146,9.489,2.495c1.963,0.212,3.935,0.346,5.905,0.482c1.444,0.099,2.904,0.175,4.305-0.264
	c2.067-0.648,3.221-2.363,3.981-4.292c0.902-2.289,1.465-4.693,2.571-6.904c1.424-2.845,3.645-5.1,6.439-6.62
	c3.957-2.153,8.562-2.725,12.811-4.1c4.028-1.304,7.994-2.909,11.676-5.009c2.758-1.573,5.648-3.494,7.442-6.18
	c4.437-6.644-4.782-10.788-9.775-12.469c-4.969-1.674-10.023-2.967-14.771-5.246c-2.421-1.162-4.831-2.549-6.712-4.496
	c-1.973-2.042-2.842-4.999-5.534-6.279c-1.833-0.872-3.935-1.186-5.916-1.501c-3.563-0.567-7.17-0.811-10.773-0.939
	C493.699,54.439,485.198,54.661,476.706,54.301C469.599,53.999,492.624,54.976,476.706,54.301z"/>
<path fill="#50ADA7" d="M484.156,180.608c-13.275,10.476-21.569,25.76-22.979,42.619c-1.294,15.475,2.814,31.327,10.791,44.59
	c3.755,6.244,8.425,11.989,14,16.699c2.617,2.211,5.436,4.19,8.44,5.841c3.183,1.75,6.575,3.017,9.662,4.956
	c12.728,7.992,20.419,21.925,24.038,36.186c1.72,6.776,2.602,13.792,2.528,20.785c-0.06,5.692-0.691,11.55-2.652,16.928
	c-0.735,2.015-1.678,3.993-3,5.692c-1.798,2.312-2.985,4.752-2.985,7.742c-0.001,6.211,4.407,11.823,9.435,15.041
	c5.768,3.692,13.095,4.528,19.19,1.103c4.257-2.394,6.971-6.34,9.804-10.188c3.366-4.571,6.661-9.199,10.152-13.678
	c4.934-6.329,10.74-13.453,18.771-15.786c3.585-1.042,7.083-0.778,10.714-0.19c2.962,0.48,5.958,0.755,8.955,0.89
	c6.924,0.311,13.971-0.08,20.741-1.624c5.992-1.366,12.35-3.75,16.45-8.55c1.89-2.212,3.136-4.893,3.591-7.768
	c0.654-4.133-0.339-8.36-1.211-12.386c-0.964-4.454-2.235-8.825-3.518-13.196c-0.958-3.264-1.971-6.57-2.338-9.964
	c-0.307-2.832-0.024-5.679,1.208-8.273c1.593-3.354,4.339-5.643,7.017-8.097c6.176-5.66,9.673-13.869,10.231-22.163
	c0.564-8.378-1.907-16.999-7.553-23.318c-3.254-3.642-7.508-6.412-11.403-9.312c-4.388-3.266-8.801-6.5-13.101-9.884
	c-4.021-3.164-7.974-6.452-11.558-10.11c-2.922-2.984-5.727-6.285-7.477-10.113c-2.183-4.772-2.19-10.533-1.875-15.671
	c0.864-14.092,6.221-28.562,16.765-38.269c3.027-2.787,6.446-5.135,10.128-6.971c3.938-1.964,8.256-3.017,11.992-5.396
	c5.486-3.494,8.756-9.121,8.192-15.692c-0.521-6.075-3.682-11.802-7.587-16.366c-3.157-3.69-7.571-7.764-12.565-8.57
	c-2.132-0.344-4.427-0.096-6.555,0.153c-3.014,0.353-5.998,0.955-8.938,1.697c-7.611,1.921-14.999,4.797-21.958,8.421
	c-8.058,4.195-15.605,9.473-22.026,15.919c-3.335,3.348-6.16,7.019-8.905,10.851c-2.09,2.918-4.463,5.639-7.167,8.006
	c-10.14,8.877-23.967,11.172-36.306,15.537C509.054,163.766,496.003,171.258,484.156,180.608
	C442.099,213.799,526.213,147.417,484.156,180.608z"/>
<path fill="#DAEDED" d="M737.609,41.532c0.451,1.943,0.681,3.985-0.594,5.67c-0.666,0.881-1.551,1.627-2.449,2.259
	c-0.664,0.467-1.903,0.878-2.348,1.59c-0.581,0.929,2.544,2.656,3.094,3.082c1.418,1.096,2.815,2.619,2.182,4.545
	c-0.7,2.13-2.356,3.588-4.123,4.86c-2.15,1.548-4.334,3.012-6.387,4.695c-2.104,1.726-4.154,3.522-6.344,5.141
	c-1.988,1.47-4.161,2.532-6.328,3.704c-1.928,1.042-3.581,2.363-5.353,3.636c-2.104,1.513-4.487,2.514-6.857,3.525
	c-2.042,0.871-3.425,1.623-4.454,3.639c-1.022,2.004-2.104,3.733-3.979,5.063c-1.882,1.336-4.025,1.951-6.259,2.405
	c-1.504,0.306-3.397,0.524-4.464,1.763c-1.273,1.478-0.688,3.75-1.143,5.52c-0.575,2.239-1.828,4.294-3.396,5.977
	c-1.564,1.679-3.53,3.074-5.744,3.738c-2.176,0.653-4.491,0.306-6.713,0.106c-2.487-0.223-4.972-0.497-7.466-0.627
	c-2.01-0.104-4.148-0.202-6.113,0.318c-1.433,0.379-2.498,1.083-4.05,1.034c-1.648-0.052-3.285-0.606-4.651-1.524
	c-3.244-2.18-3.91-5.831-3.611-9.485c0.732-8.971,5.983-17.222,12.84-22.826c4.033-3.295,8.138-6.544,12.242-9.753
	c1.846-1.443,4.281-3.63,6.801-3.555c0.575,0.018,1.098,0.221,1.649,0.363c1.146,0.297,2.327,0.458,3.509,0.51
	c2.585,0.111,5.219-0.31,7.596-1.352c1.167-0.512,2.201-1.295,3.412-1.709c1.057-0.361,2.166-0.435,3.273-0.342
	c2.315,0.194,4.515,0.729,6.845,0.278c4.431-0.857,7.986-3.462,11.916-5.454c1.873-0.949,3.852-2.074,5.374-3.537
	c0.657-0.632,1.077-1.235,1.987-1.551c0.904-0.314,2.046-0.446,2.958-0.085c1.008,0.395,2.112,0.153,3.152,0.077
	c0.656-0.048,1.293-0.052,1.947-0.171c0.12-0.021,1.576-0.312,1.176-0.594c-0.813-0.574-1.396-1.316-2.459-1.433
	c-1.863-0.204-3.97-0.985-4.702-2.866c-0.349-0.896-0.655-1.839-0.695-2.807c-0.05-1.182,0.54-1.67,1.069-2.605
	c0.848-1.496,0.892-3.204,2.354-4.339c0.969-0.751,2.236-1.143,3.33-1.681c1.24-0.61,2.488-1.255,3.826-1.624
	c2.461-0.677,4.08,0.476,5.896,2.002C736.744,38.277,737.211,39.813,737.609,41.532C738.457,45.181,736.764,37.885,737.609,41.532z"
	/>
<path fill="#1E9589" d="M239.947,141.875c1.986-1.3,3.982-2.586,5.979-3.87c2.264-1.455,4.532-2.903,6.805-4.345
	c2.242-1.423,4.403-2.799,6.988-3.513c4.563-1.26,9.507-0.765,13.91,0.873c2.131,0.792,4.167,1.863,6,3.21
	c1.676,1.231,2.918,2.783,4.398,4.212c2.858,2.759,6.484,4.583,9.843,6.64c2.726,1.67,6.127,3.723,7.132,6.973
	c0.817,2.643-1.365,5.961,1.279,7.976c2.261,1.722,5.785,1.072,8.209,0.104c1.488-0.594,2.898-1.447,4.038-2.582
	c1.234-1.229,1.821-2.875,2.978-4.163c2.653-2.955,6.849-4.375,10.76-4.179c1.906,0.095,3.82,0.589,5.453,1.597
	c1.294,0.799,2.15,1.76,3.715,2.027c3.446,0.586,7.202-0.643,10.525-1.418c4.056-0.945,8.269-1.944,12.463-1.565
	c2.044,0.184,3.894,0.785,5.691,1.761c2.324,1.263,4.652,2.519,7.023,3.689c5.027,2.481,10.313,4.648,15.878,5.534
	c2.757,0.438,5.574,0.544,8.345,0.18c2.624-0.344,5.126-1.219,7.766-1.504c10.573-1.144,21.167,2.313,31.242,5.04
	c3.306,0.895,6.403,1.576,9.835,1.617c3.689,0.044,7.38-0.219,11.061-0.449c7.992-0.501,16.281-1.231,24.2,0.34
	c3.211,0.637,6.479,1.733,9.012,3.88c1.559,1.321,2.804,2.997,4.289,4.404c1.645,1.56,3.416,2.986,5.307,4.235
	c7.85,5.184,17.247,6.681,26.498,6.657c7.588-0.02,15.171-0.417,22.764-0.396c8.573,0.024,17.184,0.257,25.705,1.254
	c3.62,0.423,7.245,0.98,10.77,1.92c2.56,0.683,5.234,1.55,7.387,3.144c1.194,0.884,2.302,1.731,3.67,2.347
	c1.599,0.719,3.295,1.204,5.005,1.572c3.908,0.842,7.923,1.112,11.904,1.349c3.898,0.232,7.817,0.363,11.689,0.899
	c2.771,0.384,5.976,0.919,8.186,2.783c1.57,1.324,2.473,3.476,3.321,5.294c1.211,2.597,2.299,5.249,3.469,7.864
	c2.903,6.489,6.264,12.88,11.046,18.201c5.523,6.145,12.675,10.111,20.821,11.51c9.229,1.585,18.778,0.68,27.996-0.514
	c9.393-1.217,18.718-3.017,28.155-3.89c3.915-0.362,7.881-0.571,11.805-0.215c4.144,0.376,7.86,1.941,11.857,2.974
	c10.785,2.788,22.217,3.138,33.239,1.743c4.784-0.605,9.354-1.807,14.039-2.876c4.571-1.044,9.285-1.473,13.968-1.511
	c4.706-0.04,9.442,0.318,14.062,1.238c3.694,0.736,7.533,1.804,10.713,3.896c2.265,1.491,4.159,3.654,6.1,5.53
	c2.78,2.689,5.575,5.364,8.432,7.973c6.781,6.192,13.908,12.19,21.833,16.879c3.565,2.109,7.344,3.98,11.355,5.071
	c1.966,0.535,3.996,0.788,6.021,0.969c12.038,1.071,24.2,0.304,36.267,0.887c6.009,0.291,12.083,0.767,17.951,2.15
	c4.137,0.976,8.828,2.455,11.663,5.831c2.784,3.315,2.33,7.658,0.748,11.419c-2.617,6.215-7.182,13.751-4.479,20.739
	c1.789,4.628,6.779,6.388,11.309,7.048c2.577,0.375,5.189,0.458,7.791,0.438c2.381-0.017,4.826,0.006,7.196-0.23
	c3.269-0.326,6.415-1.693,9.353-3.087c3.521-1.67,6.912-3.599,10.329-5.468c3.082-1.686,6.193-3.408,9.494-4.634
	c2.036-0.757,4.758-1.653,6.85-0.588c1.228,0.626,1.678,1.862,2.364,2.978c0.833,1.354,1.91,2.824,3.49,3.337
	c1.194,0.387,2.471,0.142,3.676-0.053c1.647-0.266,3.29-0.426,4.954-0.201c3.789,0.511,9.029,2.846,9.381,7.246
	c0.369,4.608-4.676,7.783-8.757,7.774c-4.559-0.01-9.09-2.175-13.65-1.025c-3.94,0.992-8.865,4.33-9.129,8.777
	c-0.215,3.629,2.854,6.314,4.409,9.333c1.35,2.622,2.301,5.678,1.676,8.638c-0.803,3.807-4.098,6.255-7.478,7.738
	c-4.747,2.082-9.942,2.562-15.073,2.535c-9.558-0.048-20.527-2.116-28.903,3.754c-2.456,1.722-4.701,3.721-7.192,5.406
	c-2.384,1.611-4.873,3.081-7.486,4.29c-4.421,2.044-9.39,3.421-14.284,2.67c-3.909-0.601-7.024-2.897-10.498-4.591
	c-3.644-1.775-7.421-3.282-11.253-4.596c-7.919-2.713-16.672-5.102-25.121-4.468c-1.676,0.126-3.354,0.398-4.948,0.942
	c-1.916,0.655-3.615,1.671-5.658,1.956c-3.403,0.475-6.739-0.97-8.346-4.079c-1.526-2.955-1.19-6.616,0.672-9.34
	c1.93-2.822,5.341-3.913,8.544-4.558c3.623-0.73,7.323-0.909,10.978-1.426c2.077-0.293,5.685-0.629,6.68-2.877
	c1.166-2.632-0.845-6.08-2.452-8.047c-2.43-2.973-6.018-5.088-9.903-5.252c-4.588-0.192-8.477,2.631-12.434,4.557
	c-3.751,1.826-7.66,3.377-11.812,3.982c-10.263,1.496-20.397-2.748-29.084-7.817c-4.419-2.578-8.681-5.415-13.078-8.028
	c-3.891-2.312-7.953-4.563-12.344-5.765c-3.724-1.02-7.696-1.096-11.213,0.668c-3.213,1.611-6.438,2.954-9.924,3.87
	c-6.611,1.738-14.39,2.729-21.005,0.476c-2.476-0.844-4.87-2.328-6.046-4.752c-1.155-2.38-1.058-5.54,0.068-7.916
	c2.305-4.862,8.927-5.39,13.606-5.533c6.82-0.21,13.621,0.635,20.438,0.636c4.549,0.001,11.428,0.021,14.236-4.344
	c2.442-3.795-1.507-7.629-4.356-9.731c-5.493-4.051-12.23-6.509-18.752-8.318c-7.759-2.152-15.894-3.372-23.956-3.108
	c-3.727,0.122-7.467,0.575-11.061,1.592c-3.757,1.062-7.302,2.855-10.793,4.572c-17.298,8.507-34.135,18.714-53.616,21.228
	c-5.255,0.678-10.583,0.778-15.856,0.238c-5.714-0.586-11.293-2.038-16.857-3.41c-11.385-2.807-22.688-5.944-34.104-8.626
	c-10.041-2.358-20.285-4.525-30.623-4.911c-4.184-0.156-8.418-0.001-12.529,0.845c-4.313,0.888-8.125,3.06-12.355,4.205
	c-8.576,2.322-18.539,1.537-25.641-4.222c-3.05-2.474-5.354-5.804-6.444-9.587c-1.095-3.8-0.502-7.773-1.516-11.598
	c-2.077-7.833-8.045-14.071-15.004-17.926c-4.067-2.254-8.531-3.76-13.106-4.567c-5.212-0.919-10.3-0.687-15.542-0.271
	c-10.819,0.858-21.79-0.287-32.394-2.469c-9.191-1.891-18.396-4.541-26.9-8.558c-3.692-1.744-7.085-3.894-10.293-6.42
	c-3.841-3.024-7.421-6.363-11.284-9.361c-3.448-2.676-7.249-5.225-11.563-6.213c-4.578-1.049-8.857,0.527-13.31,1.449
	c-9.917,2.053-20.839,3.178-30.508-0.56c-4.132-1.598-7.624-4.331-11.317-6.714c-3.827-2.469-7.72-4.834-11.676-7.09
	c-7.601-4.334-15.576-8.675-24.029-11.101c-1.528-0.438-3.088-0.804-4.671-0.973c-2.06-0.22-4.071-0.175-6.099-0.708
	c-3.804-1-8.141-3.431-9.364-7.444c-0.546-1.79-0.242-3.668,0.706-5.266c1.181-1.989,3.154-3.015,4.668-4.67
	c2.09-2.284,2.179-5.306,0.332-7.766c-2.249-2.994-6.117-4.546-9.693-5.18c-2.365-0.419-4.792-0.457-7.175-0.167
	c-2.861,0.348-5.487,1.281-8.189,2.231c-5.495,1.931-11.194,3.43-16.998,4.037c-4.336,0.454-8.892,0.461-13.097-0.83
	c-1.632-0.501-3.214-1.217-4.591-2.236c-0.879-0.651-1.699-1.302-2.66-1.839c-2.479-1.385-5.136-2.456-7.749-3.558
	c-3.057-1.29-6.125-2.562-9.103-4.029c-2.525-1.245-5.128-2.617-7.195-4.561c-1.407-1.323-2.63-3.147-2.026-5.154
	c0.888-2.95,4.519-4.95,7.015-6.271c2.199-1.163,4.752-1.994,6.988-0.493c1.843,1.238,3.162,3.08,5.12,4.186
	c3.406,1.924,7.494,1.478,11.169,0.728c3.713-0.758,7.484-2.12,10.362-4.666C238.146,145.207,239.479,143.64,239.947,141.875
	L239.947,141.875z"/>
<path fill="#1E9589" d="M573.234,412.364c0,8.49-5.625,18.636-15.238,18.242c-9.612-0.395-14.668-10.95-14.213-19.467
	c0.435-8.137,6.094-17.389,15.206-17.016C568.11,394.498,573.234,404.182,573.234,412.364
	C573.234,422.444,573.234,402.284,573.234,412.364z"/>
<path fill="#DAEDED" d="M564.292,330.938c0,9.054-7.251,17.673-16.775,16.785c-9.514-0.887-15.297-10.705-13.887-19.657
	c1.256-7.977,8.186-14.692,16.552-13.912C558.569,314.936,564.292,322.853,564.292,330.938
	C564.292,340.242,564.292,321.636,564.292,330.938z"/>
<path fill="#5DBDB5" d="M326.146,213.01c0,9.472-2.884,19.176-9.003,26.52c-5.292,6.35-13.085,10.546-21.494,9.918
	c-8.45-0.63-15.662-5.979-20.26-12.871c-5.417-8.119-7.5-18.237-6.602-27.889c0.853-9.172,4.522-18.377,11.251-24.823
	c5.955-5.704,14.226-8.632,22.397-6.791C318.214,180.63,326.146,198.161,326.146,213.01
	C326.146,233.169,326.146,192.852,326.146,213.01z"/>
<path fill="#5DBDB5" d="M394.937,169.489c-1.531,0.069-3.072-0.596-4.442-1.198c-1.925-0.845-3.787-1.825-5.697-2.703
	c-4.178-1.92-8.846-3.559-13.49-2.567c-3.486,0.745-6.221,3.118-8.408,5.831c-2.57,3.189-4.486,6.921-5.819,10.783
	c-2.325,6.738-3.531,16.049,2.223,21.47c2.649,2.496,6.195,3.848,9.652,4.79c3.926,1.07,7.968,1.646,11.985,2.257
	c3.619,0.551,7.315,1.051,10.798,2.222c2.338,0.786,4.37,2.195,6.634,3.155c5.765,2.443,12.083,3.902,18.318,4.385
	c6.097,0.472,13.196,0.076,18.176-3.912c2.404-1.925,3.978-4.623,4.673-7.608c1.247-5.354,1.745-11.02,1.414-16.507
	c-0.254-4.217-1.032-8.514-2.847-12.357c-1.273-2.698-3.167-5.337-5.905-6.689c-1.511-0.746-3.073-1.204-4.49-2.161
	c-1.276-0.862-2.402-1.91-3.583-2.893c-2.954-2.458-6.237-3.378-10.075-3.17C407.483,162.973,400.084,165.202,394.937,169.489
	C389.79,169.722,394.937,169.489,394.937,169.489z"/>
<path fill="#5DBDB5" d="M471.669,248.345c0,9.472-2.884,19.177-9.004,26.521c-5.292,6.351-13.085,10.546-21.494,9.919
	c-8.45-0.631-15.663-5.979-20.262-12.871c-5.417-8.119-7.5-18.238-6.602-27.89c0.853-9.173,4.522-18.377,11.252-24.823
	c5.955-5.704,14.227-8.632,22.398-6.791C463.737,215.966,471.669,233.496,471.669,248.345
	C471.669,268.506,471.669,228.188,471.669,248.345z"/>
<path fill="#5DBDB5" d="M453.938,349.677c0,9.472-2.884,19.177-9.004,26.521c-5.292,6.35-13.085,10.546-21.493,9.919
	c-8.45-0.631-15.662-5.979-20.261-12.872c-5.417-8.118-7.5-18.237-6.602-27.89c0.853-9.173,4.522-18.378,11.251-24.824
	c5.955-5.704,14.226-8.633,22.396-6.791C446.006,317.295,453.938,334.828,453.938,349.677
	C453.938,369.837,453.938,329.518,453.938,349.677z"/>
<path fill="#5DBDB5" d="M394.937,293.063c-1.531,0.069-3.072-0.597-4.442-1.198c-1.925-0.846-3.787-1.826-5.697-2.703
	c-4.178-1.92-8.846-3.56-13.49-2.566c-3.486,0.745-6.221,3.117-8.408,5.831c-2.57,3.188-4.486,6.92-5.819,10.783
	c-2.325,6.738-3.531,16.049,2.223,21.47c2.649,2.496,6.195,3.848,9.652,4.79c3.926,1.069,7.968,1.646,11.985,2.257
	c3.619,0.552,7.315,1.051,10.798,2.222c2.338,0.786,4.37,2.195,6.634,3.155c5.765,2.443,12.083,3.902,18.318,4.386
	c6.097,0.472,13.196,0.076,18.176-3.911c2.404-1.925,3.978-4.623,4.673-7.608c1.247-5.354,1.745-11.02,1.414-16.507
	c-0.254-4.217-1.032-8.515-2.847-12.358c-1.273-2.697-3.167-5.336-5.905-6.688c-1.511-0.746-3.073-1.204-4.49-2.161
	c-1.276-0.861-2.402-1.91-3.583-2.893c-2.954-2.459-6.237-3.379-10.075-3.173C407.483,286.544,400.083,288.774,394.937,293.063
	C389.79,293.297,394.937,293.063,394.937,293.063z"/>
<path fill="#FFFFFF" d="M462.547,372.185l-93.322-232.516h51.28l45.866,116.258l44.592-114.029h2.229l44.593,114.029l45.866-116.258
	h51.28l-93.005,231.561h-8.282l-41.726-100.971l-41.407,101.926H462.547L462.547,372.185z M733.283,131.387h4.778l95.874,236.02
	h-51.282l-9.236-24.525H697.93l-8.919,24.525c-9.033,0-18.066,0-27.099,0c-8.167,0-16.333,0-24.5,0
	c0.977-2.404,1.954-4.81,2.931-7.215c2.637-6.492,5.275-12.985,7.912-19.479c3.858-9.498,7.717-18.997,11.575-28.496
	c4.64-11.422,9.28-22.845,13.919-34.268c4.981-12.264,9.963-24.527,14.945-36.791c4.884-12.023,9.768-24.046,14.651-36.069
	c4.347-10.7,8.693-21.4,13.039-32.1c3.37-8.294,6.739-16.589,10.108-24.884c1.953-4.807,3.905-9.615,5.858-14.422
	C732.661,132.918,732.973,132.153,733.283,131.387L733.283,131.387z M756.535,300.2l-20.705-59.244
	c-2.739,7.606-5.479,15.213-8.219,22.819c-3.917,10.875-7.834,21.751-11.751,32.627c-0.456,1.266-0.912,2.532-1.368,3.798
	c9.735,0,19.471,0,29.206,0C747.978,300.2,752.256,300.2,756.535,300.2L756.535,300.2z M979.174,367.407l-45.865-86.955h-21.976
	v86.955h-45.548V139.669h89.821c13.527,0,27.072,3.35,38.369,10.961c9.905,6.673,17.567,16.254,22.417,27.13
	c4.83,10.833,6.942,22.838,6.399,34.672c-0.539,11.739-3.711,23.433-9.685,33.587c-6.064,10.307-15.017,18.728-25.835,23.873
	c-3.02,1.437-6.159,2.619-9.37,3.552c2.699,4.796,5.397,9.593,8.097,14.389c5.966,10.604,11.933,21.206,17.898,31.809
	c6.038,10.73,12.076,21.462,18.114,32.192c2.915,5.18,5.83,10.359,8.744,15.539c0.007,0.011,0.013,0.022,0.02,0.034H979.174
	L979.174,367.407z M911.333,236.18h40.133c6.028,0,11.874-2.133,16.097-6.511c3.89-4.033,6.108-9.456,6.818-14.967
	c1.423-11.035-3.24-23.608-14.194-27.914c-3.893-1.53-7.915-1.572-12.016-1.572c-5.757,0-11.515,0-17.271,0
	c-6.522,0-13.044,0-19.566,0V236.18L911.333,236.18z"/>
<path fill="#5DBDB5" d="M800.255,270.34c0,8.49-5.624,18.637-15.237,18.243c-9.613-0.395-14.667-10.951-14.212-19.468
	c0.436-8.136,6.093-17.389,15.204-17.015C795.132,252.474,800.255,262.157,800.255,270.34
	C800.255,280.421,800.255,260.26,800.255,270.34z"/>
<path fill="#5DBDB5" d="M616.973,389.894c0,9.055-7.251,17.672-16.775,16.784c-9.513-0.887-15.296-10.705-13.886-19.656
	c1.256-7.977,8.186-14.691,16.551-13.912C611.251,373.892,616.973,381.808,616.973,389.894
	C616.973,399.198,616.973,380.591,616.973,389.894z"/>
<path fill="#DAEDED" d="M442.889,271.965c0,9.472-2.884,19.177-9.004,26.521c-5.292,6.35-13.085,10.546-21.494,9.919
	c-8.45-0.631-15.662-5.979-20.26-12.872c-5.417-8.118-7.5-18.237-6.602-27.89c0.853-9.173,4.522-18.378,11.251-24.824
	c5.955-5.704,14.226-8.632,22.397-6.791C434.957,239.583,442.889,257.116,442.889,271.965
	C442.889,292.125,442.889,251.806,442.889,271.965z"/>
<path fill="#5DBDB5" d="M759.471,335.491c-5.213,0.218-10.581,0.643-15.646,1.942c-1.276,0.328-2.604,0.714-3.733,1.412
	c-0.926,0.572-1.41,1.53-2.417,2.016c-1.421,0.686-3.067,0.883-4.605,1.146c-2.085,0.356-4.166,0.748-6.174,1.43
	c-9.566,3.248-14.451,12.725-17.149,21.831c-1.57,5.299-2.88,11.053-2.568,16.623c0.548,9.818,3.54,19.892,8.463,28.391
	c3.122,5.39,7.227,10.248,12.341,13.844c5.884,4.137,12.858,6.339,20.009,6.801c9.699,0.626,19.794-1.254,28.979-4.288
	c8.649-2.857,16.865-7.059,24.211-12.448c6.148-4.512,11.781-9.88,16.194-16.121c3.191-4.513,6.075-9.8,6.604-15.398
	c0.343-3.616-0.073-7.485,1.284-10.943c0.727-1.851,2.088-2.636,4.041-2.416c2.37,0.269,4.642,1.072,7.029,1.28
	c2.428,0.211,4.996-0.848,7.157-1.824c6.85-3.097,13.205-8.112,17.768-14.085c2.289-2.998,4.186-6.408,4.981-10.124
	c0.918-4.29-0.19-8.315-1.519-12.402c-1.206-3.707-2.769-7.413-5.279-10.438c-1.919-2.312-4.355-4.035-6.971-5.476
	c-1.424-0.784-2.885-1.502-4.34-2.227c-1.257-0.626-2.533-1.142-3.965-0.891c-2.836,0.497-4.62,3.412-5.8,5.773
	c-1.714,3.431-2.792,7.171-3.767,10.867c-0.944,3.579-1.52,7.386-2.871,10.839c-1.469,3.753-4.225,7.13-8.114,8.497
	c-4.443,1.563-9.169,0.097-13.012-2.308c-6.862-4.295-11.109-11.823-18.345-15.562c-8.238-4.257-18.981-2.85-27.137,0.927
	C763.152,333.07,761.178,334.136,759.471,335.491L759.471,335.491z"/>
<path fill="#5DBDB5" d="M513.491,242.889c-1.765,0.08-3.695-1.431-5.267-2.073c-1.979-0.808-4.346-1.301-6.31-0.177
	c-3.279,1.876-5.131,6.451-5.469,10.037c-0.169,1.788,0.036,3.756,1.175,5.216c1.097,1.406,2.841,2.132,4.51,2.605
	c1.933,0.547,3.934,0.803,5.915,1.11c1.679,0.261,3.473,0.492,5.015,1.249c2.559,1.255,5.062,2.193,7.907,2.64
	c3.028,0.475,6.711,0.621,9.355-1.204c1.269-0.875,2.082-2.201,2.393-3.702c0.552-2.663,0.794-5.432,0.459-8.141
	c-0.234-1.89-0.749-3.863-1.889-5.423c-1.011-1.381-2.394-1.595-3.729-2.508c-0.897-0.613-1.625-1.454-2.584-1.979
	c-1.478-0.81-3.252-0.69-4.858-0.423C517.792,240.501,515.332,241.375,513.491,242.889
	C511.277,242.989,513.491,242.889,513.491,242.889z"/>
<path fill="#80C8C2" d="M935.064,187.408c-1.069,0.046-2.138,0.133-3.2,0.257c-1.407,0.165-3.229,0.276-4.438,1.1
	c-0.484,0.33-0.708,0.726-1.317,0.907c-0.916,0.272-1.885,0.341-2.813,0.565c-2.445,0.588-4.338,2.077-5.655,4.197
	c-3.14,5.051-3.605,11.011-2.009,16.598c1.717,6.01,5.62,11.58,11.964,13.17c4.449,1.115,9.399,0.312,13.709-1.026
	c4.282-1.33,8.321-3.5,11.751-6.395c2.618-2.211,5.054-4.924,6.413-8.107c0.562-1.316,0.769-2.583,0.825-4.001
	c0.041-1.043-0.062-3.494,1.204-3.995c0.904-0.357,2.163,0.236,3.068,0.37c1.313,0.193,2.538-0.272,3.704-0.845
	c3.298-1.618,6.613-4.413,8.038-7.875c0.824-2.002,0.583-3.814-0.037-5.837c-0.553-1.8-1.302-3.627-2.655-4.98
	c-1.074-1.073-2.45-1.745-3.794-2.413c-1.433-0.713-2.537-0.407-3.443,0.934c-1.029,1.522-1.531,3.405-1.994,5.161
	c-0.478,1.813-0.709,3.851-1.746,5.45c-1.144,1.763-3.112,2.658-5.187,2.211c-2.217-0.476-3.988-2.086-5.522-3.663
	c-1.144-1.175-2.263-2.41-3.694-3.245c-1.773-1.033-3.846-1.287-5.866-1.15C939.822,184.969,937.102,185.817,935.064,187.408
	L935.064,187.408z"/>
<path fill="#FAE2EE" d="M987.352,142.933c1.091,1.109,2.786,1.747,4.195,2.318c2.358,0.958,4.814,1.69,7.298,2.243
	c4.796,1.068,10.82,1.938,15.375-0.454c5.745-3.017,4.196-10.621,1.944-15.442c-1.398-2.993-3.702-5.323-7.03-5.944
	c-3.251-0.606-6.657,0.129-9.852,0.745c-3.835,0.74-7.691,1.525-11.616,1.483c-5.135-0.056-9.786-2.058-14.533-3.813
	c-4.879-1.803-9.725-3.715-14.666-5.341c-3.226-1.062-6.688-2.197-10.126-2.133c-2.122,0.04-4.294,0.6-6.385,0.931
	c-3.41,0.541-6.827,1.04-10.252,1.479c-8.405,1.077-16.923,1.914-25.406,1.668c-3.558-0.103-7.183-0.373-10.628-1.316
	c-3.927-1.075-7.827-2.098-11.825-2.886c-9.098-1.792-18.297-3.019-27.48-4.271c-8.551-1.166-17.031-2.514-25.313-5.034
	c-2.403-0.731-4.789-1.551-7.089-2.567c-1.626-0.718-3.073-1.67-4.628-2.507c-2.771-1.491-5.969-2.291-9.012-3.003
	c-4.008-0.938-8.096-1.595-12.199-1.916c-3.473-0.271-7.152-0.417-10.561,0.433c-4.545,1.133-7.791,5.721-9.035,10.029
	c-0.654,2.265-0.758,4.774,0.263,6.95c1.236,2.637,3.863,4.176,6.56,4.987c2.08,0.626,4.261,0.888,6.425,0.977
	c2.979,0.123,5.956,0.246,8.93,0.475c4.362,0.337,8.729,0.83,13.016,1.726c2.651,0.555,5.291,1.264,7.785,2.332
	c1.893,0.811,3.507,2.011,5.325,2.945c3.577,1.836,7.61,3.126,11.549,3.914c0.961,0.192,2.078,0.084,2.985,0.442
	c1.487,0.587,2.833,1.632,4.063,2.63c2.691,2.183,5.048,4.642,6.204,7.939c0.806,2.294,2.141,4.448,3.523,6.432
	c4.137,5.934,10.234,11.377,17.701,12.183c4.58,0.495,9.318-0.947,13.412-2.914c3.697-1.776,7.184-4.305,9.591-7.667
	c1.749-2.441,3.021-5.56,2.338-8.597c-0.333-1.477-1.127-2.704-2.173-3.777c-1.854-1.9-3.899-3.595-6.087-5.096
	c-1.208-0.829-2.609-1.535-3.677-2.549c-0.957-0.909-0.138-1.908,0.608-2.726c2.502-2.745,6.73-2.133,9.933-1.264
	c2.813,0.763,5.446,2.139,8.362,2.464c3.669,0.408,7.529,0.404,11.189-0.089c1.027-0.139,1.831-0.389,2.738-0.843
	c1.227-0.613,2.577-1.015,3.89-1.394c4.116-1.188,8.53-2.011,12.828-1.726c4.83,0.32,8.659,2.996,12.501,5.687
	c1.947,1.364,3.95,2.688,6.183,3.542c2.051,0.784,4.254,1.039,6.411,1.373c5.166,0.8,10.356,1.468,15.496,2.427
	c1.691,0.315,3.438,0.614,5.034,1.277C983.505,140.558,985.505,141.661,987.352,142.933
	C991.009,146.649,987.352,142.933,987.352,142.933z"/>
<path fill="#B5DDDB" d="M954.615,387.004c-3.163,0.045-6.505,0.163-9.54-0.873c-1.377-0.471-2.618-1.241-3.052-2.698
	c-0.396-1.327-0.434-2.772-0.253-4.138c0.422-3.196,2.346-6.159,5.774-6.518c1.093-0.114,2.147,0.079,3.229,0.21
	c1.429,0.172,2.869,0.252,4.308,0.222c2.684-0.057,5.347-0.508,7.903-1.321c2.737-0.871,5.335-2.138,7.789-3.625
	c1.876-1.137,3.758-2.472,5.866-3.151c3.558-1.147,2.215,3.382,1.708,5.259c-0.21,0.774-1.063,2.926-0.299,3.646
	c0.632,0.596,2.245-0.155,2.899-0.354c2.002-0.61,4.043-1.231,6.137-1.409c1.438-0.123,2.787,0.153,4.208,0.278
	c1.807,0.159,3.55-0.404,5.199-1.09c2.454-1.02,4.762-2.341,6.943-3.854c4.273-2.963,8.191-6.336,12.866-8.692
	c2.383-1.201,4.87-2.137,7.482-2.698c2.011-0.433,4.061-0.659,6.065-1.122c5.327-1.23,9.489-4.625,14.124-7.312
	c1.797-1.042,3.743-1.974,5.854-2.075c2.381-0.115,4.641,0.853,6.644,2.056c1.922,1.153,3.8,2.429,5.387,4.022
	c0.849,0.853,1.575,1.833,2.505,2.604c1.423,1.179,3.264,1.893,5.059,2.246c2.289,0.451,4.764,0.231,6.972,1.055
	c1.577,0.589,2.458,1.839,3.436,3.117c0.254,0.332,0.894,0.965,0.815,1.438c-0.165,0.994-6.006-0.561-6.495-0.661
	c-4.613-0.944-8.966-1.882-12.813-4.74c-2.078-1.544-4.058-3.975-6.701-4.521c-1.443-0.299-2.918,0.066-4.255,0.619
	c-2.156,0.892-4.178,1.977-6.405,2.713c-4.505,1.488-9.184,2.291-13.813,3.271c-1.715,0.362-3.458,0.728-5.099,1.355
	c-1.13,0.432-1.834,1.135-2.796,1.803c-2.595,1.803-5.697,2.797-8.438,4.351c-0.98,0.556-2.242,1.237-2.776,2.286
	c-0.518,1.014,0.378,1.803,1.195,2.268c3.671,2.086,7.82,3.485,11.145,6.156c0.608,0.489,1.953,1.632,1.038,2.445
	c-0.501,0.444-1.262,0.593-1.897,0.707c-1.355,0.243-2.746,0.266-4.115,0.146c-5.521-0.481-10.652-3.111-16.232-3.204
	c-5.614-0.093-11.196,1.716-16.74,2.394c-1.55,0.19-3.127,0.321-4.687,0.193c-1.667-0.137-3.195-0.543-4.868-0.134
	c-1.424,0.35-2.684,1.116-3.979,1.771c-1.363,0.688-2.767,1.102-4.232,1.501C963.281,384.145,958.94,385.569,954.615,387.004
	C952.288,387.037,954.615,387.004,954.615,387.004z"/>
</svg>
