<?xml version="1.0" encoding="utf-8"?>
<!-- Generator: Adobe Illustrator 15.0.0, SVG Export Plug-In . SVG Version: 6.00 Build 0)  -->
<!DOCTYPE svg PUBLIC "-//W3C//DTD SVG 1.1//EN" "http://www.w3.org/Graphics/SVG/1.1/DTD/svg11.dtd">
<svg version="1.1" id="WAAAR_x21__x21__x21_" xmlns="http://www.w3.org/2000/svg" xmlns:xlink="http://www.w3.org/1999/xlink"
	 x="0px" y="0px" width="1400px" height="503.572px" viewBox="0 0 1400 503.572" enable-background="new 0 0 1400 503.572"
	 xml:space="preserve">
<path d="M226.33,295.735l-0.303-80.588l-25.078,0.094l-0.076-20.007l70.303-0.264l0.076,20.006l-25.079,0.095l0.303,80.588
	L226.33,295.735z"/>
<path d="M337.066,295.319l-0.151-40.294l-30.15,0.113l0.152,40.294l-20.147,0.076l-0.379-100.736l20.147-0.076l0.151,40.293
	l30.15-0.113l-0.152-40.293l20.147-0.076l0.379,100.735L337.066,295.319z"/>
<path d="M379.896,295.158l-0.379-100.736l20.147-0.076l0.379,100.735L379.896,295.158z"/>
<path d="M420.506,267.391c11.583,8.128,24.124,8.362,28.771,7.922c5.916-0.444,10.972-4.69,10.388-10.184
	c-0.444-5.773-4.821-8.294-10.464-10.244c-15.802-5.718-29.92-13.694-29.984-30.602c-0.063-16.907,11.582-29.913,28.344-30.821
	c5.212-0.301,12.116-0.327,25.094,4.132l-2.463,19.452c-11.147-4.466-17.487-4.301-20.586-4.149
	c-7.184,0.449-10.404,5.675-9.96,11.309c0.585,5.633,5.526,8.151,11.31,10.102c15.66,5.717,29.22,14.684,29.28,30.744
	c0.063,16.767-11.441,29.631-30.317,30.688c-5.633,0.444-18.175-0.212-31.868-7.207L420.506,267.391z"/>
<path d="M537.262,294.565l-0.379-100.735l20.147-0.076l0.379,100.734L537.262,294.565z"/>
<path d="M577.872,266.799c11.584,8.128,24.124,8.362,28.771,7.921c5.916-0.443,10.972-4.689,10.388-10.183
	c-0.444-5.773-4.822-8.294-10.465-10.244c-15.801-5.718-29.92-13.694-29.983-30.602s11.581-29.913,28.344-30.821
	c5.212-0.301,12.115-0.327,25.094,4.132l-2.463,19.452c-11.146-4.466-17.486-4.301-20.585-4.149
	c-7.184,0.45-10.405,5.675-9.96,11.309c0.584,5.633,5.525,8.151,11.309,10.102c15.66,5.717,29.219,14.684,29.279,30.744
	c0.063,16.767-11.441,29.631-30.317,30.688c-5.634,0.444-18.175-0.212-31.868-7.207L577.872,266.799z"/>
<path d="M725.491,295.971l-41.667-102.693l22.684-0.085l20.481,51.349l19.535-50.513l0.985-0.003l19.914,50.364l20.094-51.501
	l22.683-0.085l-40.753,102.58l-3.664,0.014l-18.624-44.593l-18.145,45.153L725.491,295.971z"/>
<path d="M844.844,189.009l2.115-0.008l42.799,104.238l-22.684,0.086l-4.127-10.833l-33.39,0.126l-3.903,10.862l-22.824,0.086
	L844.844,189.009z M855.411,263.64l-9.257-26.169l-9.341,26.239L855.411,263.64z"/>
<path d="M936.843,188.663l2.114-0.008l42.799,104.238l-22.683,0.085l-4.126-10.832l-33.389,0.126l-3.904,10.862l-22.825,0.086
	L936.843,188.663z M947.409,263.294l-9.257-26.17l-9.341,26.24L947.409,263.294z"/>
<path d="M1028.843,188.317l2.114-0.008l42.799,104.239l-22.684,0.085l-4.126-10.832l-33.39,0.125l-3.904,10.862l-22.824,0.086
	L1028.843,188.317z M1039.408,262.948l-9.256-26.17l-9.342,26.239L1039.408,262.948z"/>
<path d="M1138.001,292.306l-20.434-38.386l-9.722,0.036l0.145,38.463l-20.146,0.075l-0.379-100.734l39.73-0.149
	c35.927-0.135,39.639,50.431,10.086,59.137l23.543,41.473L1138.001,292.306z M1107.772,234.374l17.752-0.066
	c13.665-0.052,13.581-22.595-0.085-22.543l-17.752,0.066L1107.772,234.374z"/>
<path d="M1171.209,281.896c-0.056-14.935,23.049-15.021,23.105-0.087S1171.266,296.831,1171.209,281.896z M1171.574,191.443
	l21.696-0.082l0.14,37.335c-0.804,10.991-1.603,23.254-2.691,33.261c-5.213,0.02-10.708,0.04-15.921,0.06
	c-1.166-9.998-2.057-22.254-3.083-33.238L1171.574,191.443z"/>
<path d="M1210.092,281.75c-0.057-14.934,23.049-15.021,23.105-0.087C1233.253,296.598,1210.148,296.685,1210.092,281.75z
	 M1210.457,191.297l21.696-0.082l0.141,37.335c-0.806,10.992-1.604,23.253-2.693,33.26c-5.213,0.02-10.708,0.04-15.921,0.06
	c-1.164-9.998-2.055-22.254-3.083-33.238L1210.457,191.297z"/>
</svg>
